<?xml version="1.0" encoding="UTF-8"?> <svg xmlns="http://www.w3.org/2000/svg" width="141" height="140" viewBox="0 0 141 140" fill="none"> <path d="M104.869 91.248V87.4341V82.1671V57.376V52.109L108.927 43.6636L129.218 27.5902C131.923 25.32 135.982 27.227 135.982 30.7686V107.594C135.982 111.135 131.833 113.042 129.128 110.772L104.869 91.248Z" fill="#00AC47"></path> <path d="M37.7314 15.9624L4.98145 48.7124H37.7314V15.9624Z" fill="#EA4335"></path> <path d="M37.7314 48.7124H4.98145V91.2874H37.7314V48.7124Z" fill="#2684FC"></path> <path d="M4.98145 91.2874V113.121C4.98145 119.125 9.89395 124.037 15.8982 124.037H37.7314V91.2874H4.98145Z" fill="#0066DA"></path> <path d="M108.963 26.7539C108.963 20.8186 104.155 15.9624 98.278 15.9624H76.9086H37.7314V48.7124H77.8502V69.9999L108.963 69.02V26.7539Z" fill="#FFBA00"></path> <path d="M77.8502 91.2875H37.7314V124.037H76.9086H98.278C104.155 124.037 108.963 119.188 108.963 113.262V70H77.8502V91.2875Z" fill="#00AC47"></path> <path d="M108.963 43.7998V94.5623L77.8506 69.9998L108.963 43.7998Z" fill="#00832D"></path> </svg> 