<?xml version="1.0" encoding="UTF-8"?> <svg xmlns="http://www.w3.org/2000/svg" width="140" height="140" viewBox="0 0 140 140" fill="none"> <g clip-path="url(#clip0_2927_1931)"> <path fill-rule="evenodd" clip-rule="evenodd" d="M20.875 62.4266C20.875 34.7937 42.707 12.6875 70 12.6875C97.293 12.6875 119.125 34.7937 119.125 62.4266C119.125 70.2456 118.654 74.8306 113.668 84.5328C119.125 95.5859 109.889 108.993 91.832 106.639C89.4494 109.054 88.1271 112.526 86.9277 115.666C85.3884 119.715 84.0497 123.219 80.918 123.219H59.082C55.9503 123.219 54.6116 119.715 53.0723 115.666C51.8729 112.522 50.5506 109.054 48.168 106.639C35.5716 108.993 20.875 95.5859 26.332 84.5328C23.1388 77.9378 20.875 70.2456 20.875 62.4266ZM37.25 76.243C37.25 83.8737 43.3579 90.0594 50.8945 90.0594C58.4352 90.0594 64.543 83.8778 64.543 76.243C64.543 68.6122 58.4352 62.4266 50.8945 62.4266C43.3579 62.4266 37.25 68.6081 37.25 76.243ZM64.543 101.113C64.543 98.0627 66.987 95.5859 70 95.5859C73.013 95.5859 75.457 98.0627 75.457 101.113C75.457 104.162 64.543 104.162 64.543 101.113ZM80.918 79.0063C80.918 85.1141 85.8019 90.0594 91.832 90.0594C97.8621 90.0594 102.75 85.1141 102.75 79.0063C102.75 72.9025 97.8621 67.9531 91.832 67.9531C85.8019 67.9531 80.918 72.9025 80.918 79.0063Z" fill="#E2E2E2"></path> <path d="M14.489 11.9916C14.489 13.277 14.8165 14.4888 15.3815 15.545C14.0707 14.8799 12.5933 14.615 11.1331 14.7835C9.67293 14.9519 8.29457 15.5461 7.16966 16.4922C6.04474 17.4383 5.22299 18.6943 4.80671 20.104C4.39044 21.5137 4.39805 23.0147 4.82859 24.4201C5.25912 25.8254 6.09357 27.0731 7.22801 28.0077C8.36245 28.9423 9.74677 29.5226 11.2086 29.6762C12.6704 29.8298 14.1451 29.5501 15.449 28.8717C16.753 28.1933 17.8286 27.1464 18.5419 25.8612L21.6777 28.5222C24.0439 25.3413 25.2679 23.9003 28.1867 21.4195L25.7264 18.4802C26.8652 17.8227 27.8109 16.877 28.4684 15.7382C29.126 14.5993 29.4721 13.3075 29.4722 11.9925C29.4722 10.6775 29.1261 9.38562 28.4686 8.24676C27.8112 7.1079 26.8655 6.16216 25.7267 5.5046C24.5879 4.84704 23.2961 4.50082 21.9811 4.50075C20.666 4.50067 19.3742 4.84673 18.2353 5.50416C17.0964 6.16158 16.1506 7.10721 15.493 8.24599C14.8354 9.38477 14.4892 10.6766 14.489 11.9916ZM27.4458 120.095L30.1435 116.697C26.8645 114.454 25.3907 113.271 22.8976 110.344L18.3535 114.475C17.4956 113.089 16.2091 112.021 14.6894 111.433C13.1696 110.845 11.4994 110.769 9.93248 111.217C8.36551 111.664 6.98724 112.61 6.00687 113.912C5.0265 115.214 4.49755 116.8 4.5003 118.429C4.50006 119.745 4.84647 121.038 5.50465 122.177C6.16284 123.317 7.10958 124.263 8.24959 124.92C9.3896 125.578 10.6827 125.923 11.9986 125.922C13.3146 125.921 14.607 125.573 15.7458 124.914C15.2918 126.397 15.2685 127.979 15.6787 129.475C16.0889 130.971 16.9156 132.32 18.0627 133.364C19.2097 134.408 20.6298 135.105 22.1577 135.374C23.6855 135.642 25.2582 135.471 26.6926 134.881C28.127 134.29 29.364 133.304 30.2597 132.037C31.1554 130.771 31.6728 129.276 31.7517 127.726C31.8306 126.177 31.4678 124.637 30.7055 123.286C29.9431 121.935 28.8127 120.829 27.4458 120.095ZM113.906 121.594C112.504 122.439 111.418 123.72 110.813 125.241C110.209 126.762 110.119 128.439 110.558 130.016C110.996 131.593 111.939 132.983 113.243 133.973C114.546 134.964 116.138 135.5 117.774 135.5C118.987 135.5 120.182 135.206 121.256 134.643C122.33 134.08 123.251 133.265 123.94 132.267C124.63 131.269 125.066 130.119 125.213 128.915C125.36 127.711 125.212 126.49 124.783 125.356C126.111 125.988 127.595 126.216 129.052 126.011C130.508 125.806 131.872 125.176 132.973 124.201C134.074 123.226 134.864 121.948 135.243 120.527C135.623 119.106 135.576 117.605 135.108 116.21C134.64 114.816 133.773 113.59 132.613 112.685C131.453 111.781 130.052 111.238 128.586 111.124C127.12 111.01 125.652 111.33 124.366 112.045C123.081 112.759 122.034 113.836 121.356 115.142L117.394 111.101C114.7 113.914 113.042 115.281 109.599 117.037L113.906 121.594ZM126.085 12.0735C126.085 13.4531 125.716 14.7508 125.069 15.8643C126.288 15.5189 127.57 15.4606 128.814 15.6938C130.059 15.9271 131.233 16.4457 132.243 17.2088C133.254 17.9719 134.074 18.9588 134.639 20.0921C135.204 21.2254 135.499 22.4743 135.5 23.7407C135.5 25.5805 134.881 27.3667 133.741 28.8112C132.602 30.2557 131.009 31.2743 129.22 31.7028C127.43 32.1313 125.549 31.9447 123.879 31.1731C122.209 30.4015 120.847 29.0898 120.014 27.4496L118.171 29.0543C116.174 25.7507 114.667 24.0927 111.507 21.4113L114.639 18.5866C113.208 17.7415 112.095 16.4489 111.471 14.9084C110.848 13.368 110.749 11.6652 111.19 10.0628C111.63 8.46048 112.586 7.04763 113.909 6.04228C115.232 5.03694 116.849 4.49498 118.511 4.50004C120.52 4.50004 122.446 5.29795 123.866 6.71824C125.287 8.13854 126.085 10.0649 126.085 12.0735Z" fill="#E2E2E2"></path> </g> <defs> <clipPath id="clip0_2927_1931"> <rect width="131" height="131" fill="white" transform="translate(4.5 4.5)"></rect> </clipPath> </defs> </svg> 