<?xml version="1.0" encoding="UTF-8"?> <svg xmlns="http://www.w3.org/2000/svg" width="141" height="141" viewBox="0 0 141 141" fill="none"> <path d="M94.0894 58.5575C94.3798 58.6746 94.693 58.7243 95.0055 58.7029C95.3179 58.6815 95.6213 58.5894 95.893 58.4337C96.1647 58.278 96.3975 58.0627 96.574 57.804C96.7504 57.5453 96.8659 57.25 96.9117 56.9402C97.9683 49.8294 99.0088 42.5704 100.033 35.1631C100.238 33.6644 100.777 32.4756 101.65 31.5969C101.823 31.419 102.033 31.357 102.281 31.4109C103.769 31.7559 104.58 32.3975 104.715 33.3355C105.831 40.9746 106.942 48.611 108.047 56.2448C108.165 57.0696 108.368 57.7435 108.653 58.2664C108.721 58.3877 108.821 58.4876 108.941 58.5547C109.061 58.6219 109.197 58.6537 109.333 58.6465C110.395 58.5926 111.397 58.3742 112.341 57.9915C118.999 55.3121 125.673 52.6759 132.363 50.0828C133.797 49.5275 134.946 49.6973 135.808 50.5922C135.906 50.6929 135.979 50.8149 136.021 50.9483C136.063 51.0817 136.073 51.2229 136.051 51.3605C135.835 52.6867 135.21 53.746 134.175 54.5385C128.12 59.1694 122.212 63.7976 116.449 68.4231C116.249 68.5848 116.087 68.789 115.976 69.0209C115.865 69.2527 115.807 69.5065 115.806 69.7636C115.806 70.0207 115.862 70.2748 115.972 70.5073C116.082 70.7398 116.242 70.945 116.441 71.1079C122.619 76.1782 129.193 80.9007 135.04 86.2459C137.361 88.3727 135.08 91.1707 132.436 90.1032C125.271 87.2028 118.053 84.2998 110.78 81.394C110.563 81.3065 110.329 81.2671 110.094 81.2784C109.86 81.2898 109.631 81.3516 109.422 81.4598C109.213 81.568 109.03 81.7199 108.885 81.9053C108.74 82.0907 108.636 82.3052 108.581 82.5342C106.858 89.7636 106.381 97.8421 105.322 105.249C104.731 109.341 100.316 110.303 99.7986 106.236C98.8982 99.1198 97.9575 92.009 96.9763 84.9036C96.8092 83.6852 96.5855 82.7067 96.3052 81.9681C96.2519 81.8275 96.1598 81.705 96.0395 81.6148C95.9192 81.5246 95.7758 81.4704 95.6259 81.4587C94.8496 81.3994 94.0328 81.5395 93.1756 81.8792C86.2751 84.6017 79.3826 87.343 72.4983 90.1032C67.2258 92.2219 52.1686 81.6932 45.6427 81.4506C45.5051 81.4453 45.3679 81.4768 45.2446 81.5421C45.1212 81.6073 45.016 81.7039 44.9392 81.8226C44.5996 82.3617 44.3705 83.0517 44.2519 83.8927C43.303 90.8256 42.3623 97.7639 41.4296 104.708C41.179 106.567 40.9121 108.662 38.664 108.872C36.7799 109.05 35.9955 107.546 35.769 105.824C34.7609 98.1089 33.7204 90.5561 32.6476 83.165C32.405 81.5045 31.4993 80.9735 29.9305 81.5719C22.9976 84.2243 15.9866 87.0196 8.89734 89.9577C4.99961 91.575 3.84323 87.653 6.82717 85.2917C11.76 81.3886 16.6901 77.4855 21.6175 73.5824C23.0192 72.4772 24.1082 71.4691 24.8845 70.558C25.5153 69.8086 25.4479 69.1294 24.6823 68.5202C18.3047 63.4526 12.1401 58.5791 6.18833 53.8997C3.81088 52.0236 5.57375 48.7566 8.00781 49.7512C15.2696 52.7163 22.7308 55.6841 30.3915 58.6546C30.6446 58.7535 30.9167 58.7942 31.1876 58.7737C31.4586 58.7531 31.7215 58.6719 31.9568 58.536C32.1921 58.4001 32.3938 58.213 32.547 57.9885C32.7002 57.7641 32.8009 57.5081 32.8417 57.2394C33.9738 49.7351 35.0817 42.0393 36.1653 34.1522C36.6343 30.7882 40.338 30.6184 40.7827 33.6913C41.9041 41.5137 43.0038 49.1852 44.082 56.7057C44.3462 58.544 45.3435 59.1263 47.0741 58.4524C53.8722 55.8054 60.7431 53.0883 67.6868 50.3011C69.3742 49.6219 71.1559 49.638 73.032 50.3496C80.0727 53.002 87.0918 55.738 94.0894 58.5575ZM89.1243 68.9892L71.8675 55.2986C71.6901 55.1527 71.4634 55.0752 71.2287 55.0803C67.7272 55.1126 55.7105 65.9163 52.201 68.7789C51.6133 69.2534 51.4786 69.8329 51.7966 70.5176C52.1255 71.2238 52.7967 71.9597 53.8102 72.7252C58.3764 76.1701 63.2526 79.8764 68.4388 83.8442C69.0324 84.2978 69.7577 84.5449 70.5039 84.5478C71.25 84.5508 71.9761 84.3093 72.571 83.8604C77.2667 80.3131 82.2183 76.5286 87.4261 72.5069C88.321 71.8168 88.976 71.1106 89.3911 70.3882C89.5215 70.1616 89.5662 69.8959 89.5173 69.6392C89.4683 69.3825 89.3288 69.1518 89.1243 68.9892Z" fill="black"></path> </svg> 