<svg width="140" height="140" viewBox="0 0 140 140" fill="none" xmlns="http://www.w3.org/2000/svg">
<rect x="5" y="5" width="131" height="131" rx="20" fill="#0057FF"/>
<g clip-path="url(#clip0_6253_4226)">
<path d="M51.4491 41.5078C54.0814 41.5078 56.5132 41.7084 58.7444 42.31C60.9756 42.7112 62.8057 43.5385 64.4353 44.5413C66.0648 45.5441 67.2681 46.973 68.0955 48.8031C68.8977 50.6332 69.3239 52.8645 69.3239 55.2962C69.3239 58.1291 68.7222 60.5609 67.2932 62.391C66.0648 64.2211 64.0592 65.8506 61.6024 67.054C65.062 68.0568 67.6943 69.8869 69.2988 72.3187C70.9033 74.7505 71.9311 77.7839 71.9311 81.2435C71.9311 84.0764 71.3295 86.5082 70.3016 88.5389C69.2988 90.5695 67.6693 92.3996 65.8392 93.603C64.0091 94.8314 61.7778 95.8342 59.3461 96.4359C56.9143 97.0376 54.4825 97.4387 52.0507 97.4387L24.875 97.4888V41.5078H51.4491ZM49.8195 64.2211C52.0507 64.2211 53.8808 63.6194 55.2848 62.5916C56.6887 61.5637 57.3154 59.7587 57.3154 57.5275C57.3154 56.299 57.1149 55.0957 56.7137 54.2934C56.3126 53.4912 55.7109 52.8645 54.8836 52.2628C54.0814 51.8617 53.2541 51.4605 52.2513 51.26C51.2485 51.0594 50.2206 51.0594 49.0173 51.0594H37.2595V64.2462C37.2595 64.2211 49.8195 64.2211 49.8195 64.2211ZM50.4212 88.1628C51.6496 88.1628 52.853 87.9623 53.8808 87.7617C54.8836 87.5612 55.9115 87.16 56.7137 86.5333C57.516 85.9065 58.1427 85.3049 58.7444 84.3021C59.1455 83.2993 59.5466 82.0709 59.5466 80.6419C59.5466 77.809 58.7444 75.7783 57.1149 74.3493C55.4853 73.1209 53.2541 72.5192 50.6218 72.5192H37.2595V88.1378H50.4212V88.1628Z" fill="white"/>
<path d="M89.5817 87.9531C91.2112 89.5826 93.643 90.3848 96.877 90.3848C99.1082 90.3848 101.139 89.7832 102.768 88.7553C104.398 87.5269 105.401 86.3235 105.802 85.0951H115.73C114.1 89.9587 111.668 93.4183 108.434 95.6495C105.2 97.6802 101.339 98.8835 96.6765 98.8835C93.4424 98.8835 90.5845 98.2819 87.9521 97.254C85.3198 96.2512 83.2891 94.8222 81.459 92.7916C79.6289 90.9615 78.225 88.7302 77.3977 86.0979C76.3949 83.4656 75.9688 80.6327 75.9688 77.3736C75.9688 74.3401 76.3699 71.4822 77.3977 68.8498C78.4256 66.2175 79.8295 63.9863 81.6596 61.9556C83.4897 60.1255 85.7209 58.496 88.1527 57.4932C90.785 56.4904 93.4174 55.8636 96.6765 55.8636C100.136 55.8636 103.17 56.4653 105.802 57.8943C108.434 59.3233 110.465 60.9278 112.094 63.3595C113.724 65.5908 114.927 68.2231 115.755 71.056C116.156 73.8889 116.356 76.7468 116.156 79.9809H86.7488C86.7488 83.2901 87.9521 86.3235 89.5817 87.9531ZM102.367 66.6437C100.938 65.2147 98.7071 64.4125 96.0748 64.4125C94.2447 64.4125 92.8408 64.8136 91.6123 65.4153C90.3839 66.0169 89.5817 66.8442 88.7794 67.6465C87.9772 68.4487 87.551 69.4766 87.3505 70.4794C87.1499 71.4822 86.9494 72.3095 86.9494 73.1117H105.2C104.799 70.1033 103.771 68.0727 102.367 66.6437ZM84.5176 45.3594H107.231V50.8246H84.5176V45.3594Z" fill="white"/>
</g>
<defs>
<clipPath id="clip0_6253_4226">
<rect width="91.2543" height="57.41" fill="white" transform="translate(24.8672 41.5)"/>
</clipPath>
</defs>
</svg>
