<?xml version="1.0" encoding="UTF-8"?> <svg xmlns="http://www.w3.org/2000/svg" width="140" height="140" viewBox="0 0 140 140" fill="none"> <g clip-path="url(#clip0_2928_1999)"> <path d="M13.4318 119.125H34.2727V68.5112L4.5 46.1816V110.193C4.5 115.135 8.50443 119.125 13.4318 119.125Z" fill="#4285F4"></path> <path d="M105.728 119.125H126.568C131.511 119.125 135.5 115.12 135.5 110.193V46.1816L105.728 68.5112" fill="#34A853"></path> <path d="M105.728 29.8068V68.5113L135.5 46.1818V34.2727C135.5 23.227 122.892 16.9301 114.064 23.5545" fill="#FBBC04"></path> <path d="M34.2725 68.5112V29.8066L69.9997 56.6021L105.727 29.8066V68.5112L69.9997 95.3066" fill="#EA4335"></path> <path d="M4.5 34.2727V46.1818L34.2727 68.5113V29.8068L25.9364 23.5545C17.0939 16.9301 4.5 23.227 4.5 34.2727Z" fill="#C5221F"></path> </g> <defs> <clipPath id="clip0_2928_1999"> <rect width="131" height="98.25" fill="white" transform="translate(4.5 20.875)"></rect> </clipPath> </defs> </svg> 