<?xml version="1.0" encoding="UTF-8"?> <svg xmlns="http://www.w3.org/2000/svg" width="140" height="140" viewBox="0 0 140 140" fill="none"> <g clip-path="url(#clip0_2927_1937)"> <path d="M104.474 35.5259L73.4482 32.0786L35.527 35.5259L32.0791 69.9998L35.5264 104.474L70.0003 108.783L104.474 104.474L107.922 69.1385L104.474 35.5259Z" fill="white"></path> <path d="M49.6699 89.0122C47.0932 87.2712 45.3089 84.7292 44.335 81.3677L50.3164 78.903C50.8594 80.9714 51.8072 82.5742 53.1604 83.712C54.5051 84.8497 56.1426 85.4097 58.0559 85.4097C60.0124 85.4097 61.6931 84.815 63.0974 83.6255C64.5018 82.436 65.2092 80.919 65.2092 79.0837C65.2092 77.2052 64.4677 75.6705 62.9854 74.4817C61.5032 73.2929 59.6417 72.6975 57.4179 72.6975H53.9622V66.7769H57.0642C58.9775 66.7769 60.5894 66.2601 61.8994 65.2259C63.2094 64.1917 63.8644 62.7782 63.8644 60.9769C63.8644 59.3741 63.2782 58.0982 62.1064 57.1419C60.9346 56.1856 59.4517 55.7029 57.6505 55.7029C55.8924 55.7029 54.496 56.1686 53.4617 57.1078C52.4275 58.0471 51.6775 59.2019 51.2039 60.5636L45.2834 58.0988C46.0674 55.8751 47.5071 53.9101 49.6182 52.2124C51.7299 50.5146 54.4272 49.6611 57.7022 49.6611C60.1237 49.6611 62.3042 50.1268 64.2352 51.0661C66.1655 52.0054 67.6824 53.3069 68.7769 54.9614C69.8714 56.6244 70.4144 58.4866 70.4144 60.5544C70.4144 62.6662 69.9062 64.4497 68.8889 65.915C67.8717 67.3802 66.622 68.5002 65.1397 69.2849V69.638C67.0962 70.4567 68.6905 71.7065 69.9487 73.3872C71.1985 75.0679 71.8273 77.0762 71.8273 79.4204C71.8273 81.7647 71.2325 83.8587 70.0431 85.6946C68.8536 87.5306 67.2076 88.9782 65.122 90.0294C63.028 91.0807 60.6752 91.6152 58.0638 91.6152C55.039 91.6237 52.2467 90.7532 49.6699 89.0122Z" fill="#1A73E8"></path> <path d="M86.3751 59.3306L79.8421 64.0793L76.5586 59.0981L88.3401 50.6001H92.8563V90.6841H86.3751V59.3306Z" fill="#1A73E8"></path> <path d="M104.475 135.5L135.501 104.474L119.988 97.5796L104.475 104.474L97.5801 119.987L104.475 135.5Z" fill="#EA4335"></path> <path d="M28.6318 119.987L35.5264 135.5H104.474V104.474H35.5264L28.6318 119.987Z" fill="#34A853"></path> <path d="M14.8418 4.5C9.12823 4.5 4.5 9.12823 4.5 14.8418V104.473L20.013 111.368L35.526 104.473V35.526H104.473L111.368 20.013L104.474 4.5H14.8418Z" fill="#4285F4"></path> <path d="M4.5 104.474V125.158C4.5 130.873 9.12823 135.5 14.8418 135.5H35.526V104.474H4.5Z" fill="#188038"></path> <path d="M104.474 35.5259V104.473H135.5V35.5259L119.987 28.6313L104.474 35.5259Z" fill="#FBBC04"></path> <path d="M135.5 35.526V14.8418C135.5 9.12757 130.871 4.5 125.158 4.5H104.474V35.526H135.5Z" fill="#1967D2"></path> </g> <defs> <clipPath id="clip0_2927_1937"> <rect width="131" height="131" fill="white" transform="translate(4.5 4.5)"></rect> </clipPath> </defs> </svg> 