<svg width="17" height="16" viewBox="0 0 17 16" fill="none" xmlns="http://www.w3.org/2000/svg">
<path d="M10.7213 5.77867C11.2988 5.76134 11.8468 5.51974 12.2492 5.10511C12.6516 4.69049 12.8766 4.13544 12.8766 3.55767C12.8766 2.9799 12.6516 2.42485 12.2492 2.01022C11.8468 1.5956 11.2988 1.354 10.7213 1.33667H6.27861C5.7011 1.354 5.15305 1.5956 4.75068 2.01022C4.34831 2.42485 4.12326 2.9799 4.12326 3.55767C4.12326 4.13544 4.34831 4.69049 4.75068 5.10511C5.15305 5.51974 5.7011 5.76134 6.27861 5.77867C5.69605 5.78876 5.14076 6.02727 4.73235 6.44281C4.32394 6.85836 4.09509 7.41769 4.09509 8.00034C4.09509 8.58298 4.32394 9.14232 4.73235 9.55786C5.14076 9.97341 5.69605 10.2119 6.27861 10.222C5.69889 10.2362 5.1477 10.4765 4.74272 10.8915C4.33773 11.3065 4.11103 11.8635 4.11103 12.4433C4.11103 13.0232 4.33773 13.5801 4.74272 13.9952C5.1477 14.4102 5.69889 14.6505 6.27861 14.6647C6.86775 14.6643 7.43265 14.4301 7.84917 14.0134C8.26569 13.5968 8.49976 13.0318 8.49994 12.4427V5.77867H10.7213Z" fill="#0D0D0D"/>
<path d="M10.7213 10.2214C11.9481 10.2214 12.9427 9.22683 12.9427 8.00002C12.9427 6.77321 11.9481 5.77869 10.7213 5.77869C9.49452 5.77869 8.5 6.77321 8.5 8.00002C8.5 9.22683 9.49452 10.2214 10.7213 10.2214Z" fill="#0D0D0D"/>
</svg>
