<svg width="19" height="19" viewBox="0 0 19 19" fill="none" xmlns="http://www.w3.org/2000/svg">
<path fill-rule="evenodd" clip-rule="evenodd" d="M9.5 17.5C13.9183 17.5 17.5 13.9183 17.5 9.5C17.5 5.08172 13.9183 1.5 9.5 1.5C5.08172 1.5 1.5 5.08172 1.5 9.5C1.5 13.9183 5.08172 17.5 9.5 17.5ZM9.5 19C14.7467 19 19 14.7467 19 9.5C19 4.25329 14.7467 0 9.5 0C4.25329 0 0 4.25329 0 9.5C0 14.7467 4.25329 19 9.5 19Z" fill="#F0820F"/>
<path fill-rule="evenodd" clip-rule="evenodd" d="M9.5 4.25C9.91421 4.25 10.25 4.58579 10.25 5V8.75H14C14.4142 8.75 14.75 9.08579 14.75 9.5C14.75 9.91421 14.4142 10.25 14 10.25H10.25V14C10.25 14.4142 9.91421 14.75 9.5 14.75C9.08579 14.75 8.75 14.4142 8.75 14V10.25H5C4.58579 10.25 4.25 9.91421 4.25 9.5C4.25 9.08579 4.58579 8.75 5 8.75H8.75V5C8.75 4.58579 9.08579 4.25 9.5 4.25Z" fill="#F0820F"/>
</svg>
