<svg width="175" height="105" viewBox="0 0 175 105" fill="none" xmlns="http://www.w3.org/2000/svg">
<g clip-path="url(#clip0_3027_226966)">
<path d="M100 2.5H0V102.5H100V2.5Z" fill="#6939F9"/>
<path d="M74.0129 54.7231C72.2204 54.7231 70.711 56.2325 70.711 58.0249C70.711 59.8175 72.126 61.3269 74.0129 61.3269C75.8054 61.3269 77.3147 59.8175 77.3147 58.0249C77.2204 56.1381 75.8054 54.7231 74.0129 54.7231ZM74.0129 64.8175C70.2392 64.8175 67.126 61.7985 67.126 57.9307C67.126 54.1571 70.2392 51.0439 74.0129 51.0439C77.7864 51.0439 80.8997 54.0627 80.8997 57.9307C80.8054 61.7985 77.7864 64.8175 74.0129 64.8175Z" fill="white"/>
<path d="M49.3633 82.5H45.7783V70.2358H49.3633V82.5Z" fill="white"/>
<path d="M54.5508 82.5H50.9658V70.2358H54.5508V82.5Z" fill="white"/>
<path d="M65.9333 28.4378L69.4238 24.9472L66.8766 22.4001L63.3861 25.8906L60.8389 28.4378L65.3671 32.9662L61.8766 36.4566L64.4238 39.0038L70.4616 32.9662L65.9333 28.4378Z" fill="white"/>
<path d="M26.0014 57.9035L27.6994 60.8281H24.3032L26.0014 57.9035ZM26.0014 51.1111L18.4541 64.2243H33.5484L26.0014 51.1111Z" fill="white"/>
<path d="M41.8145 26.2757L39.2675 23.7285L34.9278 28.0681L30.588 23.7285L28.041 26.2757L32.3805 30.6153L28.041 34.9549L30.588 37.5021L34.9278 33.1625L39.2675 37.5021L41.8145 34.9549L37.475 30.6153L41.8145 26.2757Z" fill="white"/>
</g>
<rect x="72" y="2.5" width="100" height="100" rx="30" fill="#4D2DFF"/>
<rect x="72" y="2.5" width="100" height="100" rx="30" stroke="#F0F0F0" stroke-width="5"/>
<path d="M110.386 29.2441L94.0928 52.5H113.014L129.307 75.7558H150.856V71.5274H145.266L131.935 52.5H113.014L126.345 33.4725H131.935V29.2441H110.386Z" fill="white"/>
<defs>
<clipPath id="clip0_3027_226966">
<rect y="2.5" width="100" height="100" rx="30" fill="white"/>
</clipPath>
</defs>
</svg>
