<?xml version="1.0" encoding="UTF-8"?> <svg xmlns="http://www.w3.org/2000/svg" width="140" height="140" viewBox="0 0 140 140" fill="none"> <g clip-path="url(#clip0_2927_1908)"> <path d="M70.0214 4.5C42.6758 4.5 34.6782 4.52822 33.1236 4.6572C27.5118 5.1238 24.0198 6.00763 20.2155 7.9022C17.2837 9.3585 14.9714 11.0465 12.6894 13.4128C8.53349 17.7281 6.01473 23.037 5.10292 29.3478C4.65964 32.4114 4.53066 33.0362 4.50447 48.685C4.49442 53.9013 4.50447 60.7662 4.50447 69.9743C4.50447 97.3052 4.53467 105.297 4.66568 106.849C5.11906 112.311 5.97541 115.748 7.78893 119.507C11.2548 126.702 17.874 132.104 25.6721 134.119C28.3722 134.815 31.3544 135.198 35.1829 135.379C36.805 135.45 53.3381 135.5 69.8813 135.5C86.4245 135.5 102.968 135.48 104.549 135.399C108.983 135.191 111.557 134.845 114.403 134.109C122.251 132.084 128.75 126.763 132.286 119.466C134.064 115.798 134.966 112.23 135.374 107.053C135.463 105.925 135.5 87.9288 135.5 69.9572C135.5 51.9824 135.46 34.0198 135.371 32.8911C134.958 27.6305 134.056 24.0932 132.221 20.3543C130.714 17.2937 129.042 15.008 126.614 12.6711C122.281 8.5311 116.981 6.01165 110.666 5.10063C107.606 4.65819 106.997 4.52718 91.3401 4.5H70.0214Z" fill="url(#paint0_radial_2927_1908)"></path> <path d="M70.0214 4.5C42.6758 4.5 34.6782 4.52822 33.1236 4.6572C27.5118 5.1238 24.0198 6.00763 20.2155 7.9022C17.2837 9.3585 14.9714 11.0465 12.6894 13.4128C8.53349 17.7281 6.01473 23.037 5.10292 29.3478C4.65964 32.4114 4.53066 33.0362 4.50447 48.685C4.49442 53.9013 4.50447 60.7662 4.50447 69.9743C4.50447 97.3052 4.53467 105.297 4.66568 106.849C5.11906 112.311 5.97541 115.748 7.78893 119.507C11.2548 126.702 17.874 132.104 25.6721 134.119C28.3722 134.815 31.3544 135.198 35.1829 135.379C36.805 135.45 53.3381 135.5 69.8813 135.5C86.4245 135.5 102.968 135.48 104.549 135.399C108.983 135.191 111.557 134.845 114.403 134.109C122.251 132.084 128.75 126.763 132.286 119.466C134.064 115.798 134.966 112.23 135.374 107.053C135.463 105.925 135.5 87.9288 135.5 69.9572C135.5 51.9824 135.46 34.0198 135.371 32.8911C134.958 27.6305 134.056 24.0932 132.221 20.3543C130.714 17.2937 129.042 15.008 126.614 12.6711C122.281 8.5311 116.981 6.01165 110.666 5.10063C107.606 4.65819 106.997 4.52718 91.3401 4.5H70.0214Z" fill="url(#paint1_radial_2927_1908)"></path> <path d="M70.0214 4.5C42.6758 4.5 34.6782 4.52822 33.1236 4.6572C27.5118 5.1238 24.0198 6.00763 20.2155 7.9022C17.2837 9.3585 14.9714 11.0465 12.6894 13.4128C8.53349 17.7281 6.01473 23.037 5.10292 29.3478C4.65964 32.4114 4.53066 33.0362 4.50447 48.685C4.49442 53.9013 4.50447 60.7662 4.50447 69.9743C4.50447 97.3052 4.53467 105.297 4.66568 106.849C5.11906 112.311 5.97541 115.748 7.78893 119.507C11.2548 126.702 17.874 132.104 25.6721 134.119C28.3722 134.815 31.3544 135.198 35.1829 135.379C36.805 135.45 53.3381 135.5 69.8813 135.5C86.4245 135.5 102.968 135.48 104.549 135.399C108.983 135.191 111.557 134.845 114.403 134.109C122.251 132.084 128.75 126.763 132.286 119.466C134.064 115.798 134.966 112.23 135.374 107.053C135.463 105.925 135.5 87.9288 135.5 69.9572C135.5 51.9824 135.46 34.0198 135.371 32.8911C134.958 27.6305 134.056 24.0932 132.221 20.3543C130.714 17.2937 129.042 15.008 126.614 12.6711C122.281 8.5311 116.981 6.01165 110.666 5.10063C107.606 4.65819 106.997 4.52718 91.3401 4.5H70.0214Z" fill="url(#paint2_radial_2927_1908)"></path> <path d="M70.0214 4.5C42.6758 4.5 34.6782 4.52822 33.1236 4.6572C27.5118 5.1238 24.0198 6.00763 20.2155 7.9022C17.2837 9.3585 14.9714 11.0465 12.6894 13.4128C8.53349 17.7281 6.01473 23.037 5.10292 29.3478C4.65964 32.4114 4.53066 33.0362 4.50447 48.685C4.49442 53.9013 4.50447 60.7662 4.50447 69.9743C4.50447 97.3052 4.53467 105.297 4.66568 106.849C5.11906 112.311 5.97541 115.748 7.78893 119.507C11.2548 126.702 17.874 132.104 25.6721 134.119C28.3722 134.815 31.3544 135.198 35.1829 135.379C36.805 135.45 53.3381 135.5 69.8813 135.5C86.4245 135.5 102.968 135.48 104.549 135.399C108.983 135.191 111.557 134.845 114.403 134.109C122.251 132.084 128.75 126.763 132.286 119.466C134.064 115.798 134.966 112.23 135.374 107.053C135.463 105.925 135.5 87.9288 135.5 69.9572C135.5 51.9824 135.46 34.0198 135.371 32.8911C134.958 27.6305 134.056 24.0932 132.221 20.3543C130.714 17.2937 129.042 15.008 126.614 12.6711C122.281 8.5311 116.981 6.01165 110.666 5.10063C107.606 4.65819 106.997 4.52718 91.3401 4.5H70.0214Z" fill="url(#paint3_radial_2927_1908)"></path> <path d="M70.0262 21.3208C56.7983 21.3208 55.1382 21.3786 49.9428 21.6149C44.7576 21.8521 41.2182 22.6724 38.1213 23.8761C34.9178 25.1191 32.2004 26.7821 29.4931 29.4883C26.7838 32.1936 25.1196 34.909 23.8715 38.1091C22.664 41.2048 21.842 44.7425 21.6087 49.9219C21.3763 55.1134 21.3154 56.7733 21.3154 69.9914C21.3154 83.2096 21.3743 84.8633 21.6097 90.0548C21.8482 95.2362 22.6691 98.773 23.8725 101.868C25.1176 105.069 26.7817 107.784 29.49 110.489C32.1963 113.197 34.9137 114.864 38.1152 116.107C41.2141 117.31 44.7546 118.131 49.9388 118.368C55.1342 118.604 56.7932 118.662 70.0202 118.662C83.2491 118.662 84.9042 118.604 90.0995 118.368C95.2848 118.131 98.8282 117.31 101.927 116.107C105.13 114.864 107.843 113.197 110.549 110.489C113.259 107.784 114.923 105.069 116.171 101.869C117.368 98.773 118.19 95.2353 118.434 90.0559C118.667 84.8644 118.728 83.2095 118.728 69.9914C118.728 56.7732 118.667 55.1144 118.434 49.9229C118.19 44.7415 117.368 41.2048 116.171 38.1102C114.923 34.909 113.259 32.1936 110.549 29.4883C107.84 26.781 105.131 25.1181 101.924 23.876C98.8191 22.6724 95.2777 21.8521 90.0924 21.6149C84.897 21.3786 83.243 21.3208 70.011 21.3208H70.0262ZM65.6568 30.0917C66.9537 30.0896 68.4007 30.0917 70.0262 30.0917C83.031 30.0917 84.5723 30.1383 89.7078 30.3715C94.4568 30.5885 97.0341 31.3814 98.7511 32.0476C101.024 32.9297 102.645 33.9843 104.348 35.6877C106.053 37.3912 107.108 39.0136 107.993 41.2849C108.66 42.9985 109.454 45.574 109.671 50.3194C109.904 55.45 109.955 56.9913 109.955 69.9803C109.955 82.9692 109.904 84.5105 109.671 89.6412C109.453 94.3865 108.66 96.962 107.993 98.6756C107.11 100.947 106.053 102.564 104.348 104.267C102.644 105.97 101.025 107.025 98.7511 107.907C97.0362 108.576 94.4568 109.367 89.7078 109.584C84.5734 109.817 83.031 109.868 70.0262 109.868C57.0205 109.868 55.4792 109.817 50.3447 109.584C45.5958 109.365 43.0184 108.572 41.3004 107.906C39.0274 107.024 37.4038 105.969 35.6992 104.266C33.9944 102.562 32.9391 100.944 32.0542 98.6716C31.3876 96.958 30.5931 94.3825 30.3769 89.6371C30.1435 84.5064 30.0968 82.9652 30.0968 69.9681C30.0968 56.971 30.1435 55.4379 30.3769 50.3072C30.5941 45.5618 31.3876 42.9863 32.0542 41.2707C32.937 38.9994 33.9944 37.377 35.6992 35.6736C37.4038 33.9701 39.0274 32.9156 41.3004 32.0314C43.0174 31.3621 45.5958 30.5713 50.3447 30.3532C54.8379 30.1504 56.5791 30.0896 65.6569 30.0794L65.6568 30.0917ZM96.0255 38.173C92.7987 38.173 90.1807 40.786 90.1807 44.0114C90.1807 47.2359 92.7987 49.8519 96.0255 49.8519C99.2523 49.8519 101.87 47.2359 101.87 44.0114C101.87 40.787 99.2523 38.171 96.0255 38.171L96.0255 38.173ZM70.0262 44.997C56.2128 44.997 45.0133 56.1882 45.0133 69.9914C45.0133 83.7946 56.2128 94.9807 70.0262 94.9807C83.8397 94.9807 95.0352 83.7946 95.0352 69.9914C95.0352 56.1882 83.8387 44.997 70.0253 44.997H70.0262ZM70.0262 53.7679C78.9923 53.7679 86.2619 61.031 86.2619 69.9914C86.2619 78.9509 78.9923 86.2149 70.0262 86.2149C61.0592 86.2149 53.7907 78.9509 53.7907 69.9914C53.7907 61.031 61.0592 53.7679 70.0262 53.7679Z" fill="white"></path> </g> <defs> <radialGradient id="paint0_radial_2927_1908" cx="0" cy="0" r="1" gradientUnits="userSpaceOnUse" gradientTransform="translate(131.27 65.9013) rotate(164.25) scale(83.7016 60.3029)"> <stop stop-color="#FF005F"></stop> <stop offset="1" stop-color="#FC01D8"></stop> </radialGradient> <radialGradient id="paint1_radial_2927_1908" cx="0" cy="0" r="1" gradientUnits="userSpaceOnUse" gradientTransform="translate(39.2959 145.59) rotate(-90) scale(104.567 110.943)"> <stop stop-color="#FFCC00"></stop> <stop offset="0.1242" stop-color="#FFCC00"></stop> <stop offset="0.5672" stop-color="#FE4A05"></stop> <stop offset="0.6942" stop-color="#FF0F3F"></stop> <stop offset="1" stop-color="#FE0657" stop-opacity="0"></stop> </radialGradient> <radialGradient id="paint2_radial_2927_1908" cx="0" cy="0" r="1" gradientUnits="userSpaceOnUse" gradientTransform="translate(73.3103 133.653) rotate(-59.8703) scale(43.2392 56.2926)"> <stop stop-color="#FFCC00"></stop> <stop offset="1" stop-color="#FFCC00" stop-opacity="0"></stop> </radialGradient> <radialGradient id="paint3_radial_2927_1908" cx="0" cy="0" r="1" gradientUnits="userSpaceOnUse" gradientTransform="translate(22.2739 9.83428) rotate(164.274) scale(82.7731 28.2007)"> <stop stop-color="#780CFF"></stop> <stop offset="1" stop-color="#820BFF" stop-opacity="0"></stop> </radialGradient> <clipPath id="clip0_2927_1908"> <rect width="131" height="131" fill="white" transform="translate(4.5 4.5)"></rect> </clipPath> </defs> </svg> 