<?xml version="1.0" encoding="UTF-8"?> <svg xmlns="http://www.w3.org/2000/svg" width="140" height="140" viewBox="0 0 140 140" fill="none"> <path d="M135.5 70.0002C135.5 78.6018 133.806 87.1191 130.514 95.0659C127.222 103.013 122.398 110.233 116.315 116.316C110.233 122.398 103.013 127.223 95.0658 130.514C87.1189 133.806 78.6016 135.5 70 135.5C52.6283 135.5 35.9681 128.599 23.6845 116.316C11.4009 104.032 4.5 87.3718 4.5 70.0002C4.5 52.6285 11.4009 35.9684 23.6845 23.6847C35.9681 11.4011 52.6283 4.50024 70 4.50024C78.6016 4.50024 87.1189 6.19445 95.0658 9.48613C103.013 12.7778 110.233 17.6025 116.315 23.6847C122.398 29.767 127.222 36.9876 130.514 44.9344C133.806 52.8813 135.5 61.3986 135.5 70.0002ZM14.0209 61.498C33.2876 63.9629 51.7604 69.4228 69.2505 77.6946C69.6336 77.875 70.2748 77.789 70.6579 77.6058C88.1434 69.3284 106.49 63.9573 125.699 61.4924C125.782 61.4832 125.817 61.4369 125.804 61.3536C122.62 41.4264 109.158 24.4414 90.5296 17.2605C56.6846 4.21434 19.6974 25.363 13.9043 61.3425C13.8895 61.4351 13.9284 61.4869 14.0209 61.498ZM125.743 79.1464C126.219 76.0541 126.464 72.9434 126.479 69.8142C126.479 69.8047 126.477 69.7953 126.473 69.7866C126.469 69.7779 126.463 69.7702 126.456 69.7639C126.449 69.7576 126.441 69.7529 126.432 69.75C126.423 69.7472 126.413 69.7464 126.404 69.7476C108.298 72.07 90.9775 77.0756 74.4412 84.7645C74.3996 84.7844 74.3644 84.8156 74.3399 84.8544C74.3153 84.8932 74.3023 84.9381 74.3025 84.9838V95.1903C74.3022 95.2146 74.3083 95.2386 74.32 95.2599C74.3317 95.2811 74.3486 95.2991 74.3693 95.3119C74.3899 95.3247 74.4135 95.332 74.4378 95.3331C74.462 95.3342 74.4862 95.329 74.5079 95.318C90.6351 87.2201 107.642 81.9008 125.529 79.3601C125.583 79.3518 125.633 79.3267 125.671 79.2882C125.71 79.2498 125.735 79.2001 125.743 79.1464ZM14.1542 79.3434C32.2217 81.9249 48.8569 87.3654 65.2395 95.3041C65.3598 95.3633 65.42 95.3254 65.42 95.1903V84.9977C65.42 84.8867 65.37 84.808 65.2701 84.7617C48.7783 77.0858 31.4991 72.0876 13.4324 69.767C13.2992 69.7504 13.2335 69.8096 13.2354 69.9447C13.2668 73.0369 13.512 76.1106 13.971 79.1658C13.9783 79.2108 14 79.2524 14.033 79.2843C14.0659 79.3163 14.1084 79.337 14.1542 79.3434ZM55.4161 110.085C58.5777 111.601 61.9974 113.477 65.2451 115.279C65.3617 115.343 65.42 115.309 65.42 115.176V104.631C65.42 104.538 65.3793 104.47 65.2978 104.425C49.8664 96.2719 33.5291 90.8046 16.2859 88.0233C16.2027 88.0103 16.1749 88.0436 16.2027 88.1232C17.4259 91.6614 18.9646 95.0562 20.8188 98.3075C20.8669 98.3908 20.9372 98.4417 21.0298 98.4602C32.9748 100.949 44.437 104.824 55.4161 110.085ZM118.868 98.3769C120.72 95.1237 122.265 91.7317 123.503 88.2009C123.549 88.0714 123.504 88.0168 123.367 88.0372C106.148 90.8222 89.8348 96.2849 74.4274 104.425C74.3896 104.445 74.3581 104.475 74.3361 104.512C74.3141 104.549 74.3025 104.591 74.3025 104.634V115.179C74.3025 115.334 74.37 115.373 74.5051 115.295C88.3507 107.308 103.107 101.691 118.773 98.4435C118.793 98.44 118.812 98.4322 118.828 98.4207C118.845 98.4091 118.858 98.3942 118.868 98.3769ZM37.2098 116.247C46.7057 122.937 57.0899 125.988 68.6399 126.776C68.6459 126.777 68.6519 126.776 68.6569 126.773C68.6619 126.77 68.6655 126.765 68.6672 126.759C68.6688 126.753 68.6684 126.746 68.6659 126.74C68.6635 126.734 68.6592 126.729 68.6537 126.726C58.6406 120.255 47.9825 115.096 36.6796 111.251C33.9242 110.315 31.1401 109.42 28.3273 108.567C28.314 108.562 28.2994 108.563 28.2861 108.568C28.2728 108.573 28.2616 108.582 28.2544 108.593C28.2472 108.605 28.2444 108.619 28.2466 108.632C28.2487 108.646 28.2557 108.658 28.2662 108.667C31.0836 111.359 34.1342 114.079 37.2098 116.247ZM71.2852 126.768C74.6254 126.442 76.7655 126.212 77.7056 126.079C87.5318 124.691 96.3958 120.974 104.297 114.929C106.646 113.136 109.144 110.818 111.478 108.678C111.488 108.669 111.494 108.657 111.496 108.644C111.498 108.631 111.495 108.618 111.489 108.607C111.483 108.595 111.474 108.587 111.462 108.582C111.451 108.577 111.438 108.577 111.426 108.581C96.9972 112.739 83.94 118.629 71.2241 126.595C70.9984 126.736 71.0187 126.793 71.2852 126.768Z" fill="#2EA94E"></path> </svg> 