<svg width="84" height="85" viewBox="0 0 84 85" fill="none" xmlns="http://www.w3.org/2000/svg">
<g opacity="0.4" filter="url(#filter0_f_228_1729)">
<path d="M19.4293 30.1044C20.6609 24.9451 24.6951 20.9109 29.8544 19.6793C37.8379 17.7736 46.1621 17.7736 54.1456 19.6793C59.3049 20.9109 63.339 24.9451 64.5707 30.1044C66.4764 38.0879 66.4764 46.4121 64.5707 54.3956C63.339 59.5549 59.3049 63.589 54.1456 64.8207C46.1621 66.7264 37.8379 66.7264 29.8544 64.8207C24.6951 63.589 20.6609 59.5549 19.4293 54.3956C17.5236 46.4121 17.5236 38.0879 19.4293 30.1044Z" fill="#6939F9"/>
</g>
<g filter="url(#filter1_iii_228_1729)">
<path d="M19.4293 24.8544C20.6609 19.6951 24.6951 15.6609 29.8544 14.4293C37.8379 12.5236 46.1621 12.5236 54.1456 14.4293C59.3049 15.6609 63.339 19.6951 64.5707 24.8544C66.4764 32.8379 66.4764 41.1621 64.5707 49.1456C63.339 54.3049 59.3049 58.339 54.1456 59.5707C46.1621 61.4764 37.8379 61.4764 29.8544 59.5707C24.6951 58.339 20.6609 54.3049 19.4293 49.1456C17.5236 41.1621 17.5236 32.8379 19.4293 24.8544Z" fill="#6939F9"/>
</g>
<g filter="url(#filter2_f_228_1729)">
<path d="M42 50.125C39.4041 50.125 36.8665 49.3552 34.7081 47.913C32.5498 46.4709 30.8675 44.421 29.8741 42.0227C28.8807 39.6244 28.6208 36.9854 29.1272 34.4394C29.6336 31.8934 30.8837 29.5548 32.7192 27.7192C34.5548 25.8837 36.8934 24.6336 39.4394 24.1272C41.9854 23.6208 44.6244 23.8807 47.0227 24.8741C49.421 25.8675 51.4709 27.5498 52.913 29.7081C54.3552 31.8665 55.125 34.4041 55.125 37C55.121 40.4798 53.737 43.8158 51.2764 46.2764C48.8158 48.737 45.4798 50.121 42 50.125ZM42 25.75C39.775 25.75 37.5999 26.4098 35.7498 27.646C33.8998 28.8821 32.4578 30.6391 31.6064 32.6948C30.7549 34.7505 30.5321 37.0125 30.9662 39.1948C31.4003 41.3771 32.4717 43.3816 34.0451 44.955C35.6184 46.5283 37.623 47.5998 39.8052 48.0338C41.9875 48.4679 44.2495 48.2451 46.3052 47.3937C48.3609 46.5422 50.1179 45.1002 51.354 43.2502C52.5902 41.4001 53.25 39.225 53.25 37C53.2465 34.0174 52.0602 31.1579 49.9511 29.0489C47.8421 26.9399 44.9826 25.7535 42 25.75Z" fill="white"/>
<path d="M41.0625 28.5625H42.9375V35.125H41.0625V28.5625Z" fill="white"/>
<path d="M33.5625 36.0625H40.125V37.9375H33.5625V36.0625Z" fill="white"/>
<path d="M41.0625 38.875H42.9375V45.4375H41.0625V38.875Z" fill="white"/>
<path d="M43.875 36.0625H50.4375V37.9375H43.875V36.0625Z" fill="white"/>
</g>
<path d="M42 50.125C39.4041 50.125 36.8665 49.3552 34.7081 47.913C32.5498 46.4709 30.8675 44.421 29.8741 42.0227C28.8807 39.6244 28.6208 36.9854 29.1272 34.4394C29.6336 31.8934 30.8837 29.5548 32.7192 27.7192C34.5548 25.8837 36.8934 24.6336 39.4394 24.1272C41.9854 23.6208 44.6244 23.8807 47.0227 24.8741C49.421 25.8675 51.4709 27.5498 52.913 29.7081C54.3552 31.8665 55.125 34.4041 55.125 37C55.121 40.4798 53.737 43.8158 51.2764 46.2764C48.8158 48.737 45.4798 50.121 42 50.125ZM42 25.75C39.775 25.75 37.5999 26.4098 35.7498 27.646C33.8998 28.8821 32.4578 30.6391 31.6064 32.6948C30.7549 34.7505 30.5321 37.0125 30.9662 39.1948C31.4003 41.3771 32.4717 43.3816 34.0451 44.955C35.6184 46.5283 37.623 47.5998 39.8052 48.0338C41.9875 48.4679 44.2495 48.2451 46.3052 47.3937C48.3609 46.5422 50.1179 45.1002 51.354 43.2502C52.5902 41.4001 53.25 39.225 53.25 37C53.2465 34.0174 52.0602 31.1579 49.9511 29.0489C47.8421 26.9399 44.9826 25.7535 42 25.75Z" fill="white"/>
<path d="M41.0625 28.5625H42.9375V35.125H41.0625V28.5625Z" fill="white"/>
<path d="M33.5625 36.0625H40.125V37.9375H33.5625V36.0625Z" fill="white"/>
<path d="M41.0625 38.875H42.9375V45.4375H41.0625V38.875Z" fill="white"/>
<path d="M43.875 36.0625H50.4375V37.9375H43.875V36.0625Z" fill="white"/>
<defs>
<filter id="filter0_f_228_1729" x="0" y="0.25" width="84" height="84" filterUnits="userSpaceOnUse" color-interpolation-filters="sRGB">
<feFlood flood-opacity="0" result="BackgroundImageFix"/>
<feBlend mode="normal" in="SourceGraphic" in2="BackgroundImageFix" result="shape"/>
<feGaussianBlur stdDeviation="9" result="effect1_foregroundBlur_228_1729"/>
</filter>
<filter id="filter1_iii_228_1729" x="16.5" y="10" width="49.5" height="51.75" filterUnits="userSpaceOnUse" color-interpolation-filters="sRGB">
<feFlood flood-opacity="0" result="BackgroundImageFix"/>
<feBlend mode="normal" in="SourceGraphic" in2="BackgroundImageFix" result="shape"/>
<feColorMatrix in="SourceAlpha" type="matrix" values="0 0 0 0 0 0 0 0 0 0 0 0 0 0 0 0 0 0 127 0" result="hardAlpha"/>
<feOffset dy="0.75"/>
<feGaussianBlur stdDeviation="1.5"/>
<feComposite in2="hardAlpha" operator="arithmetic" k2="-1" k3="1"/>
<feColorMatrix type="matrix" values="0 0 0 0 0 0 0 0 0 0 0 0 0 0 0 0 0 0 0.1 0"/>
<feBlend mode="normal" in2="shape" result="effect1_innerShadow_228_1729"/>
<feColorMatrix in="SourceAlpha" type="matrix" values="0 0 0 0 0 0 0 0 0 0 0 0 0 0 0 0 0 0 127 0" result="hardAlpha"/>
<feOffset dy="-3"/>
<feGaussianBlur stdDeviation="1.5"/>
<feComposite in2="hardAlpha" operator="arithmetic" k2="-1" k3="1"/>
<feColorMatrix type="matrix" values="0 0 0 0 1 0 0 0 0 1 0 0 0 0 1 0 0 0 0.25 0"/>
<feBlend mode="normal" in2="effect1_innerShadow_228_1729" result="effect2_innerShadow_228_1729"/>
<feColorMatrix in="SourceAlpha" type="matrix" values="0 0 0 0 0 0 0 0 0 0 0 0 0 0 0 0 0 0 127 0" result="hardAlpha"/>
<feOffset dx="-1.5" dy="-1.5"/>
<feGaussianBlur stdDeviation="1.5"/>
<feComposite in2="hardAlpha" operator="arithmetic" k2="-1" k3="1"/>
<feColorMatrix type="matrix" values="0 0 0 0 1 0 0 0 0 1 0 0 0 0 1 0 0 0 0.25 0"/>
<feBlend mode="normal" in2="effect2_innerShadow_228_1729" result="effect3_innerShadow_228_1729"/>
</filter>
<filter id="filter2_f_228_1729" x="24.875" y="19.875" width="34.25" height="34.25" filterUnits="userSpaceOnUse" color-interpolation-filters="sRGB">
<feFlood flood-opacity="0" result="BackgroundImageFix"/>
<feBlend mode="normal" in="SourceGraphic" in2="BackgroundImageFix" result="shape"/>
<feGaussianBlur stdDeviation="2" result="effect1_foregroundBlur_228_1729"/>
</filter>
</defs>
</svg>
