<?xml version="1.0" encoding="UTF-8"?> <svg xmlns="http://www.w3.org/2000/svg" width="141" height="141" viewBox="0 0 141 141" fill="none"> <path d="M65.7597 58.2662L90.1772 39.2607C90.1772 39.2607 106.324 39.6884 114.267 39.5064C114.407 39.5028 114.547 39.5273 114.678 39.5784C114.808 39.6296 114.927 39.7065 115.028 39.8044C115.128 39.9024 115.208 40.0195 115.263 40.1488C115.317 40.2781 115.345 40.417 115.345 40.5574V67.2404C115.345 67.9501 115.7 68.3004 116.41 68.2913L134.795 68.0047C134.914 68.0029 135.033 68.0248 135.144 68.0693C135.255 68.1138 135.355 68.1798 135.441 68.2637C135.526 68.3475 135.593 68.4474 135.639 68.5576C135.685 68.6678 135.709 68.786 135.709 68.9055L135.818 100.133C135.818 100.245 135.796 100.355 135.753 100.457C135.71 100.56 135.646 100.653 135.566 100.732C135.487 100.81 135.392 100.873 135.288 100.915C135.183 100.958 135.071 100.98 134.958 100.98H104.426C103.753 100.98 103.403 100.638 103.375 99.9561L102.816 81.5305C102.81 81.4127 102.77 81.2993 102.7 81.2043C102.63 81.1093 102.534 81.0369 102.424 80.9962C102.313 80.9555 102.193 80.9482 102.078 80.9752C101.964 81.0022 101.859 81.0624 101.779 81.1483C97.2199 86.1846 85.9051 100.543 79.4084 100.775C72.0745 101.03 62.5689 101.127 53.9884 100.972V81.0192C48.2287 87.9345 40.3732 94.5467 33.6307 100.488C33.3304 100.752 32.9801 100.884 32.5798 100.884L5.9239 101.021C5.64518 101.021 5.37786 100.91 5.18077 100.713C4.98368 100.516 4.87296 100.248 4.87296 99.9697L4.81836 72.7271C4.81846 72.5536 4.85227 72.3823 4.91785 72.2231C4.98342 72.0638 5.07948 71.9197 5.20052 71.799C14.6727 62.1995 24.1813 52.6864 33.7263 43.2598C36.2285 40.7848 38.7808 39.5519 41.3832 39.561C49.2266 39.6065 57.0746 39.5929 64.9271 39.5201C65.4367 39.5201 65.7597 40.2707 65.7597 40.2707V58.2662Z" fill="black"></path> </svg> 