<?xml version="1.0" encoding="UTF-8"?> <svg xmlns="http://www.w3.org/2000/svg" width="141" height="140" viewBox="0 0 141 140" fill="none"> <g clip-path="url(#clip0_2929_2067)"> <path fill-rule="evenodd" clip-rule="evenodd" d="M87.8607 109.397C64.2803 111.406 44.0169 95.533 39.0937 73.823C34.3015 52.6908 48.9075 30.8898 70.5344 30.765C86.8512 30.6731 100.421 42.5208 103.05 58.0908C105.036 69.8849 97.8514 81.9397 85.9727 83.1874C74.153 84.4286 64.1755 75.1821 64.1755 63.5982C64.1755 59.9733 67.1122 57.0322 70.7309 57.0322C74.3495 57.0322 77.2865 59.9733 77.2865 63.5982C77.2865 67.2231 80.2234 70.1642 83.8421 70.1642C87.4607 70.1642 90.3977 67.2231 90.3977 63.5982C90.3977 52.0143 80.4201 42.7678 68.6004 44.009C56.7217 45.2632 49.5369 57.3147 51.5232 69.1088C54.152 84.6854 67.7219 96.5265 84.0388 96.4345C105.666 96.3098 120.271 74.5056 115.479 53.3734C109.599 27.4212 81.7903 9.81757 52.6048 21.1191C37.6975 26.8848 27.0643 40.7083 25.2419 56.6132C21.3741 90.4063 45.9903 119.337 78.1388 122.43C81.41 122.745 83.8421 125.616 83.8421 128.913C83.8421 132.827 80.4333 135.86 76.5393 135.466C40.4771 131.834 12.2552 101.596 11.7373 64.6376C11.344 36.689 30.8272 11.4502 58.1508 5.80275C93.4591 -1.49958 124.821 22.8184 129.207 55.6921C132.707 81.9268 114.188 107.151 87.8607 109.397Z" fill="black"></path> </g> <defs> <clipPath id="clip0_2929_2067"> <rect width="131" height="131" fill="white" transform="translate(5.18164 4.5)"></rect> </clipPath> </defs> </svg> 