<?xml version="1.0" encoding="UTF-8"?> <svg xmlns="http://www.w3.org/2000/svg" width="140" height="140" viewBox="0 0 140 140" fill="none"> <path fill-rule="evenodd" clip-rule="evenodd" d="M14.8689 5C9.52908 5 5 9.22768 5 14.4303V126.57C5 131.779 7.96955 136 13.3094 136H124.949C130.295 136 136 131.779 136 126.57V14.4303C136 9.22768 131.855 5 126.509 5H14.8689ZM33.0714 21.375C39.5341 21.375 44.7679 26.6088 44.7679 33.0714C44.7679 39.5341 39.5341 44.7679 33.0714 44.7679C26.6088 44.7679 21.375 39.5341 21.375 33.0714C21.375 26.6088 26.6088 21.375 33.0714 21.375ZM93.1862 54.125C112.032 54.125 117.286 64.126 117.286 82.6594V117.286H98.5714V86.0708C98.5714 77.7742 95.2563 70.5 87.5086 70.5C78.1015 70.5 73.6191 76.8708 73.6191 87.3258V117.286H54.9048V54.9048H72.5347V63.8964H72.7293C75.4179 59.0494 83.3675 54.125 93.1862 54.125ZM23.7143 54.9048H42.4286V117.286H23.7143V54.9048Z" fill="#0A66C2"></path> </svg> 