<?xml version="1.0" encoding="UTF-8"?> <svg xmlns="http://www.w3.org/2000/svg" width="141" height="140" viewBox="0 0 141 140" fill="none"> <path d="M132.822 38.4687C131.313 32.8288 126.88 28.3967 121.241 26.887C111.029 24.148 70.0613 24.1479 70.0613 24.1479C70.0613 24.1479 29.0943 24.148 18.8822 26.887C13.2424 28.3967 8.81029 32.8288 7.30057 38.4687C4.56152 48.6808 4.56152 70.0001 4.56152 70.0001C4.56152 70.0001 4.56152 91.3195 7.30057 101.532C8.81029 107.171 13.2424 111.604 18.8822 113.113C29.0943 115.852 70.0613 115.852 70.0613 115.852C70.0613 115.852 111.029 115.852 121.241 113.113C126.88 111.604 131.313 107.171 132.822 101.532C135.562 91.3195 135.562 70.0001 135.562 70.0001C135.562 70.0001 135.551 48.6808 132.822 38.4687Z" fill="#FF0000"></path> <path d="M56.9492 89.6496L90.9825 70.002L56.9492 50.354V89.6496Z" fill="white"></path> </svg> 