<?xml version="1.0" encoding="UTF-8"?> <svg xmlns="http://www.w3.org/2000/svg" width="140" height="140" viewBox="0 0 140 140" fill="none"> <g clip-path="url(#clip0_2929_2103)"> <rect x="4.5" y="4.5" width="131" height="131" rx="65.5" fill="#FFABE7"></rect> <path fill-rule="evenodd" clip-rule="evenodd" d="M4.5 69.9881C4.5 33.8381 33.8168 4.5 70 4.5C106.186 4.5 135.5 33.8645 135.5 70.0119C135.5 106.162 106.183 135.5 70 135.5H64.6869V135.264C31.0109 132.557 4.5 104.351 4.5 69.9881ZM71.6291 124.852C101.187 123.99 124.874 99.7528 124.874 70.0119C124.874 39.7236 100.309 15.1241 70 15.1241C39.6882 15.1241 15.126 39.7028 15.126 69.9881C15.126 100.272 39.7105 124.852 70 124.852H71.6291Z" fill="#B8509A"></path> <path fill-rule="evenodd" clip-rule="evenodd" d="M43.4823 22.0013C42.7538 21.7721 41.9987 21.5344 41.2119 21.2676L44.6261 11.2068C44.9397 11.3132 45.5044 11.4933 46.1637 11.7035C47.3482 12.0812 48.838 12.5562 49.7253 12.8762L49.773 12.8934L49.8203 12.9114C50.063 13.0043 50.3232 13.1027 50.596 13.2059C51.9705 13.7257 53.6663 14.367 55.0826 15.0294L55.1456 15.0588L55.4262 15.1991C56.0927 15.5099 57.0936 15.9869 57.9273 16.3842C58.3952 16.6073 58.8105 16.8052 59.0844 16.9345L59.2111 16.9944L59.3345 17.0608C59.3632 17.0763 59.397 17.0943 59.435 17.1147C59.7222 17.2685 60.2579 17.5551 60.7719 17.8691L60.9129 17.9553L60.9528 17.9832C61.0107 18.0169 61.0901 18.062 61.1884 18.1166C61.2742 18.1644 61.3566 18.2098 61.4391 18.2552C61.4553 18.2641 61.4715 18.2731 61.4876 18.282C61.5331 18.307 61.5849 18.3355 61.6311 18.3613L61.6344 18.3632C61.6579 18.3763 61.7181 18.4098 61.7875 18.4503C61.8501 18.4864 61.9468 18.5414 62.0675 18.6104C62.437 18.8213 63.0341 19.162 63.5884 19.4866C64.1594 19.821 65.031 20.3361 65.676 20.7882C66.367 21.2125 67.1266 21.7387 67.6324 22.089C67.7234 22.1521 67.8063 22.2096 67.879 22.2596C68.2679 22.4964 68.6486 22.7649 68.9135 22.9548C69.2926 23.2264 69.7052 23.5341 70.0814 23.817C70.2554 23.9477 70.4143 24.0676 70.5643 24.1809C70.7641 24.3317 70.9483 24.4708 71.1319 24.6081C71.2834 24.7216 71.4097 24.815 71.5116 24.8891C71.5619 24.9257 71.6013 24.9538 71.6307 24.9746C71.6559 24.9924 71.6678 25.0004 71.6684 25.0008L71.8068 25.0931L71.9402 25.1947C77.8041 29.6616 83.0261 34.9095 87.4832 40.7587L87.4875 40.764L87.4916 40.7695C92.4188 47.2702 96.3091 54.4865 99.0071 62.1659C107.045 84.6181 104.681 110.557 92.0475 131.032L83.004 125.454C93.8917 107.809 95.9879 85.2442 88.9978 65.733L88.9921 65.7171L88.9866 65.7011C86.6579 59.068 83.2951 52.8242 79.0265 47.1912C75.1645 42.1246 70.6544 37.5871 65.6076 33.7273C65.3282 33.5336 65.0187 33.3038 64.7657 33.1144C64.5741 32.9711 64.349 32.8013 64.1269 32.6336C63.9777 32.521 63.8301 32.4097 63.695 32.3082C63.3302 32.0339 62.9989 31.7872 62.7244 31.5907C62.4798 31.4155 62.378 31.3508 62.3786 31.3498C62.3778 31.3494 62.3789 31.3498 62.3786 31.3498L62.2219 31.2614L62.0374 31.1363C61.766 30.9521 61.5243 30.7849 61.3028 30.6316C60.8165 30.2951 60.427 30.0255 60.0317 29.7909L59.773 29.6372L59.5331 29.4554C59.548 29.4667 59.547 29.4661 59.5259 29.452C59.4864 29.4258 59.3771 29.3531 59.1724 29.226C58.9026 29.0588 58.5719 28.8612 58.2184 28.6541C57.7169 28.3606 57.2602 28.1 56.899 27.8939C56.7305 27.7977 56.5827 27.7133 56.4609 27.6431L56.4499 27.6368C56.4312 27.6266 56.4038 27.6112 56.3625 27.5885C56.3498 27.5815 56.3359 27.5739 56.3211 27.5658C56.239 27.5207 56.1295 27.4603 56.018 27.3983C55.8874 27.3257 55.729 27.2364 55.5748 27.1462C55.4905 27.0968 55.3333 27.0043 55.1573 26.8901C54.9409 26.7611 54.7088 26.6365 54.4325 26.4881C54.4284 26.4858 54.4243 26.4836 54.4202 26.4813C54.0896 26.3249 53.6782 26.1289 53.2416 25.9205C52.42 25.5287 51.5083 25.0942 50.8756 24.7999L50.8075 24.7682L50.5215 24.6253C49.5183 24.1602 48.3172 23.7049 46.972 23.1948C46.6795 23.084 46.3803 22.9705 46.0747 22.8538C45.2455 22.5562 44.3844 22.2852 43.4823 22.0013ZM56.4609 27.6431C56.4667 27.6464 56.4703 27.6483 56.4703 27.6483L56.4609 27.6431ZM56.4609 27.6431C56.4667 27.6464 56.4703 27.6483 56.4703 27.6483L56.4609 27.6431Z" fill="#B8509A"></path> <path fill-rule="evenodd" clip-rule="evenodd" d="M65.8562 47.286C81.8918 44.3907 96.6897 35.3963 106.811 22.5935L115.147 29.1814C103.451 43.9768 86.3773 54.377 67.7432 57.7412C58.4647 59.4141 48.9306 59.4708 39.6251 57.7648C30.3449 56.1107 21.3901 52.7792 13.291 47.9154L18.7623 38.808C25.7413 42.999 33.4763 45.8788 41.5025 47.3077L41.5164 47.3101L41.5303 47.3128C49.5317 48.7812 57.7804 48.7419 65.8562 47.286Z" fill="#B8509A"></path> <path fill-rule="evenodd" clip-rule="evenodd" d="M37.4678 123.856C46.5395 77.5652 93.7147 52.0003 132.296 62.5159L129.502 72.7661C96.7506 63.8396 55.7558 85.7897 47.8956 125.898L37.4678 123.856Z" fill="#B8509A"></path> </g> <defs> <clipPath id="clip0_2929_2103"> <rect x="4.5" y="4.5" width="131" height="131" rx="65.5" fill="white"></rect> </clipPath> </defs> </svg> 