<?xml version="1.0" encoding="UTF-8"?> <svg xmlns="http://www.w3.org/2000/svg" width="141" height="140" viewBox="0 0 141 140" fill="none"> <path d="M107.853 24.0721C107.853 29.9833 103.061 34.7754 97.1492 34.7754C91.238 34.7754 86.4459 29.9833 86.4459 24.0721C86.4459 18.1608 91.238 13.3688 97.1492 13.3688C103.061 13.3688 107.853 18.1608 107.853 24.0721Z" fill="url(#paint0_linear_2929_2146)"></path> <path d="M127.019 43.7388C127.019 49.65 122.227 54.4421 116.316 54.4421C110.405 54.4421 105.613 49.65 105.613 43.7388C105.613 37.8275 110.405 33.0354 116.316 33.0354C122.227 33.0354 127.019 37.8275 127.019 43.7388Z" fill="url(#paint1_linear_2929_2146)"></path> <path d="M133.743 70.1268C133.743 76.0381 128.951 80.8301 123.04 80.8301C117.129 80.8301 112.337 76.0381 112.337 70.1268C112.337 64.2156 117.129 59.4235 123.04 59.4235C128.951 59.4235 133.743 64.2156 133.743 70.1268Z" fill="url(#paint2_linear_2929_2146)"></path> <path d="M129.259 96.5137C129.259 102.425 124.467 107.217 118.556 107.217C112.645 107.217 107.853 102.425 107.853 96.5137C107.853 90.6025 112.645 85.8104 118.556 85.8104C124.467 85.8104 129.259 90.6025 129.259 96.5137Z" fill="url(#paint3_linear_2929_2146)"></path> <path d="M107.853 117.92C107.853 123.832 103.061 128.624 97.1492 128.624C91.238 128.624 86.4459 123.832 86.4459 117.92C86.4459 112.009 91.238 107.217 97.1492 107.217C103.061 107.217 107.853 112.009 107.853 117.92Z" fill="url(#paint4_linear_2929_2146)"></path> <path d="M81.712 121.903C81.712 127.815 76.92 132.607 71.0087 132.607C65.0975 132.607 60.3054 127.815 60.3054 121.903C60.3054 115.992 65.0975 111.2 71.0087 111.2C76.92 111.2 81.712 115.992 81.712 121.903Z" fill="url(#paint5_linear_2929_2146)"></path> <path d="M55.5715 115.68C55.5715 121.591 50.7795 126.383 44.8682 126.383C38.957 126.383 34.1649 121.591 34.1649 115.68C34.1649 109.768 38.957 104.976 44.8682 104.976C50.7795 104.976 55.5715 109.768 55.5715 115.68Z" fill="url(#paint6_linear_2929_2146)"></path> <path d="M36.1547 96.5137C36.1547 102.425 31.3627 107.217 25.4514 107.217C19.5402 107.217 14.7481 102.425 14.7481 96.5137C14.7481 90.6025 19.5402 85.8104 25.4514 85.8104C31.3627 85.8104 36.1547 90.6025 36.1547 96.5137Z" fill="url(#paint7_linear_2929_2146)"></path> <path d="M28.9359 70.1268C28.9359 76.0381 24.1439 80.8301 18.2326 80.8301C12.3213 80.8301 7.5293 76.0381 7.5293 70.1268C7.5293 64.2156 12.3213 59.4235 18.2326 59.4235C24.1439 59.4235 28.9359 64.2156 28.9359 70.1268Z" fill="url(#paint8_linear_2929_2146)"></path> <path d="M36.1547 41.7466C36.1547 47.6579 31.3627 52.4499 25.4514 52.4499C19.5402 52.4499 14.7481 47.6579 14.7481 41.7466C14.7481 35.8354 19.5402 31.0433 25.4514 31.0433C31.3627 31.0433 36.1547 35.8354 36.1547 41.7466Z" fill="url(#paint9_linear_2929_2146)"></path> <path d="M55.5715 24.0721C55.5715 29.9833 50.7795 34.7754 44.8682 34.7754C38.957 34.7754 34.1649 29.9833 34.1649 24.0721C34.1649 18.1608 38.957 13.3688 44.8682 13.3688C50.7795 13.3688 55.5715 18.1608 55.5715 24.0721Z" fill="url(#paint10_linear_2929_2146)"></path> <path d="M81.712 18.0969C81.712 24.0081 76.92 28.8002 71.0087 28.8002C65.0975 28.8002 60.3054 24.0081 60.3054 18.0969C60.3054 12.1856 65.0975 7.39355 71.0087 7.39355C76.92 7.39355 81.712 12.1856 81.712 18.0969Z" fill="url(#paint11_linear_2929_2146)"></path> <defs> <linearGradient id="paint0_linear_2929_2146" x1="108.663" y1="123.124" x2="44.0581" y2="11.9178" gradientUnits="userSpaceOnUse"> <stop stop-color="#F5F5F5"></stop> <stop offset="1"></stop> </linearGradient> <linearGradient id="paint1_linear_2929_2146" x1="108.663" y1="123.124" x2="44.0581" y2="11.9178" gradientUnits="userSpaceOnUse"> <stop stop-color="#F5F5F5"></stop> <stop offset="1"></stop> </linearGradient> <linearGradient id="paint2_linear_2929_2146" x1="108.663" y1="123.124" x2="44.0581" y2="11.9178" gradientUnits="userSpaceOnUse"> <stop stop-color="#F5F5F5"></stop> <stop offset="1"></stop> </linearGradient> <linearGradient id="paint3_linear_2929_2146" x1="108.663" y1="123.124" x2="44.0581" y2="11.9178" gradientUnits="userSpaceOnUse"> <stop stop-color="#F5F5F5"></stop> <stop offset="1"></stop> </linearGradient> <linearGradient id="paint4_linear_2929_2146" x1="108.663" y1="123.124" x2="44.0581" y2="11.9178" gradientUnits="userSpaceOnUse"> <stop stop-color="#F5F5F5"></stop> <stop offset="1"></stop> </linearGradient> <linearGradient id="paint5_linear_2929_2146" x1="108.663" y1="123.124" x2="44.0581" y2="11.9178" gradientUnits="userSpaceOnUse"> <stop stop-color="#F5F5F5"></stop> <stop offset="1"></stop> </linearGradient> <linearGradient id="paint6_linear_2929_2146" x1="108.663" y1="123.124" x2="44.0581" y2="11.9178" gradientUnits="userSpaceOnUse"> <stop stop-color="#F5F5F5"></stop> <stop offset="1"></stop> </linearGradient> <linearGradient id="paint7_linear_2929_2146" x1="108.663" y1="123.124" x2="44.0581" y2="11.9178" gradientUnits="userSpaceOnUse"> <stop stop-color="#F5F5F5"></stop> <stop offset="1"></stop> </linearGradient> <linearGradient id="paint8_linear_2929_2146" x1="108.663" y1="123.124" x2="44.0581" y2="11.9178" gradientUnits="userSpaceOnUse"> <stop stop-color="#F5F5F5"></stop> <stop offset="1"></stop> </linearGradient> <linearGradient id="paint9_linear_2929_2146" x1="108.663" y1="123.124" x2="44.0581" y2="11.9178" gradientUnits="userSpaceOnUse"> <stop stop-color="#F5F5F5"></stop> <stop offset="1"></stop> </linearGradient> <linearGradient id="paint10_linear_2929_2146" x1="108.663" y1="123.124" x2="44.0581" y2="11.9178" gradientUnits="userSpaceOnUse"> <stop stop-color="#F5F5F5"></stop> <stop offset="1"></stop> </linearGradient> <linearGradient id="paint11_linear_2929_2146" x1="108.663" y1="123.124" x2="44.0581" y2="11.9178" gradientUnits="userSpaceOnUse"> <stop stop-color="#F5F5F5"></stop> <stop offset="1"></stop> </linearGradient> </defs> </svg> 