<svg width="140" height="140" viewBox="0 0 140 140" fill="none" xmlns="http://www.w3.org/2000/svg">
<path d="M135.992 70.4846C135.992 106.659 106.666 135.984 70.4919 135.984C34.3176 135.984 4.99219 106.659 4.99219 70.4846C4.99219 34.3097 34.3176 4.98481 70.4919 4.98481C106.666 4.98481 135.992 34.3097 135.992 70.4846Z" fill="white"/>
<path d="M70.4919 4.98481C34.3176 4.98481 4.99219 34.3102 4.99219 70.4846C4.99219 98.2336 22.2568 121.955 46.6221 131.499C46.0498 126.317 45.5322 118.347 46.8493 112.689C48.0396 107.577 54.5299 80.1314 54.5299 80.1314C54.5299 80.1314 52.5707 76.2076 52.5707 70.4067C52.5707 61.299 57.8496 54.4994 64.4226 54.4994C70.0108 54.4994 72.7099 58.6949 72.7099 63.7259C72.7099 69.3458 69.1319 77.748 67.2854 85.5344C65.7423 92.0537 70.5547 97.3703 76.9849 97.3703C88.6263 97.3703 97.5751 85.0952 97.5751 67.3764C97.5751 51.6935 86.3063 40.7286 70.2154 40.7286C51.5784 40.7286 40.6393 54.7072 40.6393 69.1536C40.6393 74.7832 42.8079 80.8197 45.5139 84.1014C46.0493 84.75 46.1276 85.318 45.9682 85.9801C45.471 88.0488 44.366 92.4977 44.1491 93.4083C43.8635 94.6073 43.1998 94.8618 41.9585 94.284C33.778 90.4762 28.6633 78.5158 28.6633 68.9093C28.6633 48.2476 43.6755 29.2723 71.9416 29.2723C94.6634 29.2723 112.321 45.4636 112.321 67.102C112.321 89.6757 98.0879 107.843 78.3325 107.843C71.6952 107.843 65.4556 104.395 63.3198 100.322C63.3198 100.322 60.0354 112.828 59.2392 115.892C57.7605 121.582 53.7685 128.713 51.0984 133.064C57.2268 134.961 63.7396 135.984 70.4919 135.984C106.667 135.984 135.992 106.659 135.992 70.4846C135.992 34.3102 106.667 4.98481 70.4919 4.98481Z" fill="#E60023"/>
</svg>
