<svg width="140" height="140" viewBox="0 0 140 140" fill="none" xmlns="http://www.w3.org/2000/svg">
<g clip-path="url(#clip0_1494_22)">
<rect x="4" y="4" width="131" height="131" rx="21" fill="black"/>
<path d="M113.22 4H26C13.8497 4 4 13.8497 4 26V113.22C4 125.37 13.8497 135.22 26 135.22H113.22C125.37 135.22 135.22 125.37 135.22 113.22V26C135.22 13.8497 125.37 4 113.22 4Z" fill="black"/>
<path fill-rule="evenodd" clip-rule="evenodd" d="M58.9985 64.4985H64.4985V58.9985V13.9985H53.4985V45.7203L2.88755 -4.89062L-4.89062 2.88755L45.7203 53.4985H13.9985V64.4985H58.9985ZM79.9985 74.4985H74.4985V79.9985V124.998H85.4985V93.2766L136.109 143.888L143.888 136.109L93.2766 85.4985H124.998V74.4985H79.9985Z" fill="white"/>
</g>
<defs>
<clipPath id="clip0_1494_22">
<rect x="4" y="4" width="131" height="131" rx="21" fill="white"/>
</clipPath>
</defs>
</svg>
