<svg width="191" height="153" viewBox="0 0 191 153" fill="none" xmlns="http://www.w3.org/2000/svg">
<path fill-rule="evenodd" clip-rule="evenodd" d="M171.542 76.4346C171.542 68.5962 171.283 61.8359 170.776 56.3193C170.411 52.3467 169.935 49.2252 169.39 46.875C168.843 49.2266 168.36 52.3481 167.984 56.3184C167.478 61.8354 167.219 68.5303 167.219 76.4346C167.219 84.337 167.478 90.9366 167.985 96.4551C168.358 100.362 168.839 103.474 169.39 105.858C169.938 103.477 170.413 100.365 170.776 96.4551L170.868 95.4062C171.314 90.0986 171.542 83.7811 171.542 76.4346ZM52.8318 71.8428L52.5936 71.8311C51.4976 71.7197 50.6265 70.848 50.5154 69.752L50.5037 69.5146V40.0117C50.5039 38.8063 51.4196 37.8146 52.5936 37.6953L52.8318 37.6836H54.6766C55.618 37.6837 56.4237 38.3912 57.0965 39.7959L57.2244 40.0664C57.8517 41.4513 58.3393 43.345 58.6902 45.7393C59.0623 48.2345 59.2508 51.2409 59.2508 54.7578C59.2508 58.2749 59.0623 61.223 58.6902 63.7773L58.5428 64.7109C58.181 66.828 57.6994 68.5011 57.0965 69.7305C56.4237 71.1351 55.618 71.8426 54.6766 71.8428H52.8318ZM176.199 76.4346C176.199 84.3636 175.938 91.1792 175.414 96.8809C174.89 102.516 174.121 106.856 173.103 109.893L172.91 110.434C171.93 113.052 170.754 114.356 169.381 114.356L169.245 114.353C167.854 114.262 166.666 112.769 165.68 109.893C164.663 106.856 163.885 102.516 163.347 96.8809C162.889 91.8919 162.631 86.1011 162.574 79.375L162.562 76.4346C162.562 68.439 162.824 61.5952 163.347 55.8936C163.887 50.1921 164.663 45.8516 165.68 42.8818C166.696 39.8454 167.915 38.3223 169.381 38.3223C170.846 38.3223 172.086 39.8455 173.103 42.8818C174.121 45.8516 174.89 50.1921 175.414 55.8936C175.938 61.5952 176.199 68.5056 176.199 76.4346Z" fill="black"/>
<path fill-rule="evenodd" clip-rule="evenodd" d="M122.765 0.207031C124.08 0.207057 125.31 0.572237 126.36 1.2041C127.411 0.571837 128.641 0.207031 129.957 0.207031H134.629C138.486 0.207287 141.613 3.33482 141.613 7.19238V15.0527L143.181 6L143.242 5.68945C143.943 2.50207 146.773 0.207031 150.064 0.207031H155.95C158.486 0.207031 160.66 1.5462 161.883 3.50977C163.852 1.58653 166.371 0.207031 169.381 0.207031C172.462 0.207069 175.03 1.65192 177.016 3.64941C178.946 5.58903 180.523 8.22356 181.866 11.2422C184.59 17.3071 186.602 25.877 188.056 36.6758L188.327 38.7529C189.634 49.2789 190.276 61.8488 190.276 76.4346C190.276 91.9921 189.545 105.169 188.056 116.104C186.6 126.853 184.586 135.429 181.866 141.541L181.858 141.558C180.512 144.551 178.932 147.163 176.997 149.085C175.002 151.066 172.44 152.481 169.381 152.481C166.552 152.481 164.156 151.263 162.243 149.52C160.988 151.292 158.924 152.475 156.541 152.475H150.646C147.249 152.474 144.345 150.031 143.764 146.684L141.616 134.301V145.489C141.616 149.347 138.488 152.475 134.631 152.475H129.957C128.641 152.475 127.41 152.11 126.359 151.478C125.309 152.11 124.079 152.475 122.763 152.475H118.092C114.234 152.475 111.106 149.347 111.106 145.489V43.2969H109.295V145.489C109.295 149.347 106.167 152.475 102.309 152.475H97.6375C93.7798 152.474 90.6531 149.347 90.6531 145.489V109.465L89.825 117.049C89.0233 124.365 88.1044 130.492 87.0574 135.371L87.0545 135.383C86.0251 140.119 84.7587 144.089 83.0916 146.913C81.4869 149.656 78.8086 152.48 74.7439 152.48H72.5203C68.6625 152.48 65.535 149.353 65.535 145.495V116.387C65.535 112.911 68.0739 110.028 71.3982 109.491C71.5608 108.665 71.7216 107.537 71.8553 106.055L72.1707 102.521L70.3846 87.8359C69.3945 92.8818 68.1158 97.1753 66.4832 100.605L66.4773 100.616L66.4725 100.627C64.3216 105.086 60.8334 109.312 55.3699 109.312H55.16V145.495C55.16 149.353 52.0325 152.48 48.1746 152.48H43.5027C42.0492 152.48 40.6998 152.036 39.5818 151.276C38.4701 152.033 37.1239 152.48 35.659 152.48H29.5652C26.1024 152.48 23.1628 149.943 22.6561 146.518L21.2664 137.13L19.7928 146.573C19.2618 149.974 16.3322 152.48 12.8904 152.48H7.08575C2.7748 152.48 -0.5074 148.614 0.193171 144.36L11.6727 74.6836L1.49591 8.25684C0.847879 4.02693 4.12106 0.214156 8.4002 0.213867H14.1883C17.5546 0.213902 20.4252 2.61067 21.0496 5.8877L21.1024 6.20801L21.5154 9.09473L21.9393 6.19141L21.993 5.87305C22.6234 2.60277 25.4908 0.213867 28.8514 0.213867H34.3768C36.1358 0.213947 37.7236 0.859356 38.9402 1.91211C40.1643 0.854669 41.7582 0.213969 43.5027 0.213867H55.3699C58.0903 0.21389 60.3151 1.26915 62.1287 2.87793C63.4007 1.26397 65.3736 0.213867 67.617 0.213867H73.6404C77.0972 0.214034 80.0155 2.73782 80.5418 6.12109L80.5848 6.45117L81.4119 14.1396L82.1326 6.53906L82.1727 6.20508C82.6613 2.78543 85.5937 0.21449 89.0818 0.211914L122.765 0.207031ZM52.5936 71.8311L52.8318 71.8428H54.6766C55.618 71.8426 56.4237 71.1351 57.0965 69.7305C57.6994 68.5011 58.181 66.828 58.5428 64.7109L58.6902 63.7773C59.0623 61.223 59.2508 58.2749 59.2508 54.7578C59.2508 51.2409 59.0623 48.2345 58.6902 45.7393C58.3393 43.345 57.8517 41.4513 57.2244 40.0664L57.0965 39.7959C56.4237 38.3912 55.618 37.6837 54.6766 37.6836H52.8318L52.5936 37.6953C51.4196 37.8146 50.5039 38.8063 50.5037 40.0117V69.5146L50.5154 69.752C50.6265 70.848 51.4976 71.7197 52.5936 71.8311ZM36.5174 106.38L31.3094 73.6045L36.5174 39.4766V106.38ZM176.199 76.4346C176.199 84.3636 175.938 91.1792 175.414 96.8809C174.89 102.516 174.121 106.856 173.103 109.893L172.91 110.434C171.93 113.052 170.754 114.356 169.381 114.356L169.245 114.353C167.854 114.262 166.666 112.769 165.68 109.893C164.663 106.856 163.885 102.516 163.347 96.8809C162.889 91.8919 162.631 86.1011 162.574 79.375L162.562 76.4346C162.562 68.439 162.824 61.5952 163.347 55.8936C163.887 50.1921 164.663 45.8516 165.68 42.8818C166.696 39.8454 167.915 38.3223 169.381 38.3223C170.846 38.3223 172.086 39.8455 173.103 42.8818C174.121 45.8516 174.89 50.1921 175.414 55.8936C175.938 61.5952 176.199 68.5056 176.199 76.4346Z" fill="black"/>
<path d="M37.9587 145.13C38.1834 146.544 37.0909 147.824 35.6592 147.824H29.5655C28.4111 147.824 27.431 146.978 27.2621 145.836L23.923 123.263C23.5624 120.837 23.2041 118.4 22.8459 115.974C22.6548 114.622 22.4603 113.279 22.2646 111.939C22.1118 110.893 20.5885 110.894 20.4347 111.94C20.2369 113.286 20.0385 114.63 19.8397 115.974C19.4814 118.4 19.1071 120.837 18.7189 123.263L15.1912 145.855C15.0142 146.988 14.0379 147.824 12.8906 147.824H7.08583C5.64876 147.824 4.55476 146.535 4.78837 145.117L16.3277 75.0767C16.3676 74.8347 16.369 74.588 16.3319 74.3456L6.09892 7.55144C5.88291 6.14143 6.97403 4.87042 8.4005 4.87042H14.188C15.3463 4.87042 16.3285 5.72186 16.4929 6.86846L18.8751 23.4875C19.262 26.1504 19.6399 28.8393 20.0132 31.5403C20.2479 33.2385 22.728 33.2408 22.9685 31.5435C23.3503 28.8487 23.7361 26.1644 24.1251 23.4875L26.547 6.86317C26.7137 5.71896 27.6948 4.87042 28.8511 4.87042H34.3762C35.8022 4.87042 36.8931 6.14049 36.678 7.55008L26.6509 73.2625C26.6146 73.5 26.6154 73.7418 26.6531 73.9791L37.9587 145.13Z" fill="#C62B1C"/>
<path d="M66.7629 28.2818C65.718 20.7956 64.2229 15.0386 62.2777 11.0106C60.3348 6.9237 58.0314 4.87042 55.3697 4.87042H43.503C42.217 4.87042 41.1745 5.91289 41.1745 7.19884V145.496C41.1745 146.782 42.217 147.824 43.503 147.824H48.1748C49.4607 147.824 50.5032 146.782 50.5032 145.496V106.984C50.5032 105.698 51.5457 104.656 52.8316 104.656H55.3697C58.0314 104.656 60.3348 102.632 62.2777 98.6042C64.2229 94.5173 65.718 88.7209 66.7629 81.2446C67.8263 73.7585 68.3568 64.9363 68.3568 54.7583C68.3568 44.5803 67.8263 35.6991 66.7629 28.2818ZM58.6905 63.777C58.3162 66.3411 57.7856 68.3257 57.0967 69.7305C56.4238 71.1354 55.6177 71.8428 54.6761 71.8428H52.8316C51.5457 71.8428 50.5032 70.8003 50.5032 69.5143V40.012C50.5032 38.7261 51.5457 37.6836 52.8316 37.6836H54.6761C55.6177 37.6836 56.4238 38.391 57.0967 39.7958C57.7856 41.2007 58.3162 43.1852 58.6905 45.7396C59.0625 48.2349 59.2509 51.2412 59.2509 54.7583C59.2509 58.2754 59.0625 61.2227 58.6905 63.777Z" fill="#C62B1C"/>
<path d="M129.956 147.818C128.67 147.818 127.628 146.775 127.628 145.489V7.19269C127.628 5.90674 128.67 4.86426 129.956 4.86426H134.628C135.914 4.86426 136.956 5.90673 136.956 7.19268V56.7559C136.956 57.3475 137.436 57.8271 138.028 57.8271C138.549 57.8271 138.994 57.4522 139.083 56.9388L147.77 6.79525C147.963 5.67926 148.931 4.86426 150.064 4.86426H155.95C157.401 4.86426 158.499 6.17711 158.241 7.60522L146.338 73.7262C146.289 73.9969 146.289 74.2741 146.337 74.5449L158.834 145.083C159.086 146.509 157.989 147.818 156.541 147.818H150.647C149.514 147.818 148.546 147.003 148.352 145.887L139.086 92.4815C138.997 91.9681 138.551 91.5933 138.03 91.5933C137.438 91.5933 136.959 92.0729 136.959 92.6646V145.489C136.959 146.775 135.916 147.818 134.63 147.818H129.956Z" fill="#C62B1C"/>
<path fill-rule="evenodd" clip-rule="evenodd" d="M169.38 147.824C166.344 147.824 163.593 145.064 161.126 139.553C158.674 134.041 156.731 125.979 155.295 115.385C153.86 104.724 153.141 91.7406 153.141 76.4347C153.141 61.1287 153.858 47.955 155.295 37.3037C156.731 26.6428 158.674 18.5901 161.126 13.1359C163.593 7.62465 166.344 4.86426 169.38 4.86426C172.416 4.86426 175.159 7.62465 177.611 13.1359C180.064 18.5901 182.007 26.6428 183.442 37.3037C184.894 47.9645 185.619 61.005 185.619 76.4347C185.619 91.8643 184.894 104.819 183.442 115.48C182.007 126.074 180.064 134.136 177.611 139.648C175.159 145.102 172.416 147.824 169.38 147.824ZM169.38 114.357C170.846 114.357 172.086 112.872 173.103 109.893C174.12 106.856 174.89 102.516 175.413 96.8806C175.937 91.179 176.199 84.3637 176.199 76.4347C176.199 68.5057 175.937 61.5952 175.413 55.8935C174.89 50.1919 174.12 45.8514 173.103 42.8816C172.086 39.8451 170.846 38.3222 169.38 38.3222C167.915 38.3222 166.696 39.8451 165.681 42.8816C164.663 45.8514 163.887 50.1919 163.347 55.8935C162.824 61.5952 162.562 68.439 162.562 76.4347C162.562 84.4303 162.824 91.179 163.347 96.8806C163.885 102.516 164.663 106.856 165.681 109.893C166.698 112.862 167.931 114.357 169.38 114.357Z" fill="#C62B1C"/>
<path fill-rule="evenodd" clip-rule="evenodd" d="M95.3093 4.86426L89.0849 4.86885C87.8847 4.86974 86.8818 5.78284 86.7686 6.97774L84.187 34.2353C83.4008 42.5337 82.6283 50.8554 81.8813 59.2195C81.8611 59.4448 81.5324 59.4471 81.5091 59.2222L81.5068 59.2002C81.1585 55.8352 80.8101 52.4691 80.4643 49.0995C79.9544 44.1087 79.4308 39.1573 78.8934 34.2353L75.9549 6.94953C75.8276 5.76691 74.8294 4.87042 73.6399 4.87042H67.6164C66.219 4.87042 65.1363 6.09269 65.305 7.47989L76.8222 102.202C76.8419 102.364 76.8445 102.527 76.8301 102.69L76.4935 106.473C76.2684 108.969 75.9469 110.855 75.5289 112.132C75.1247 113.409 74.3255 114.058 73.129 114.058H72.5201C71.2342 114.058 70.1917 115.1 70.1917 116.386V145.496C70.1917 146.782 71.2342 147.824 72.5201 147.824H74.7435C76.358 147.824 77.8026 146.733 79.0726 144.562C80.3586 142.391 81.5023 139.002 82.5036 134.394C83.5049 129.728 84.4029 123.774 85.1952 116.543L95.3093 23.9221V145.489C95.3093 146.775 96.3518 147.818 97.6378 147.818H102.31C103.596 147.818 104.638 146.775 104.638 145.489V40.9687C104.638 39.6827 105.68 38.6402 106.966 38.6402H113.434C114.72 38.6402 115.763 39.6827 115.763 40.9687V145.489C115.763 146.775 116.805 147.818 118.091 147.818H122.763C124.049 147.818 125.091 146.775 125.091 145.489L125.094 7.19272C125.094 5.90675 124.051 4.86426 122.765 4.86426H95.3093Z" fill="#C62B1C"/>
</svg>
