<svg width="75" height="42" viewBox="0 0 75 42" fill="none" xmlns="http://www.w3.org/2000/svg">
<path d="M5.46143 12.4742C2.44742 12.4742 0.00341797 14.9182 0.00341797 17.9323V29.0778C0.00354526 32.0917 2.4475 34.5348 5.46143 34.5348H8.86865C11.8826 34.5348 14.3265 32.0917 14.3267 29.0778V24.1412H15.0073V29.0778C15.0075 32.0917 17.4504 34.5348 20.4644 34.5348H23.1177V35.5582C23.1177 38.0668 24.9086 40.5347 27.7671 40.8727C29.0677 41.0265 30.2378 41.0572 31.103 41.0573C34.1168 41.0573 36.7937 40.5439 39.1235 39.1793C41.4651 37.8079 43.1041 35.7823 44.4048 33.3961C44.4065 33.3933 44.413 33.3824 44.4146 33.3795L45.6704 31.0416C46.4591 33.0849 48.4408 34.5348 50.7622 34.5348H54.1714C57.1852 34.5347 59.6283 32.0916 59.6284 29.0778V24.1412H60.3081V29.0778C60.3082 32.0916 62.7513 34.5347 65.7651 34.5348H69.1743C72.1882 34.5348 74.6312 32.0917 74.6313 29.0778V17.9323C74.6313 14.9182 72.1883 12.4742 69.1743 12.4742H43.2603C41.1009 12.4742 39.1443 13.7479 38.27 15.7223L37.4956 17.4703L36.6353 15.6256L36.4556 15.274C35.4975 13.5548 33.6776 12.4742 31.689 12.4742H5.46143ZM37.6558 25.5377C37.6622 25.5211 37.6686 25.5054 37.6751 25.4892L37.6679 25.5071L37.6558 25.5377Z" fill="#78F0FC"/>
<path d="M69.1744 15.8854C70.3047 15.8854 71.221 16.8016 71.221 17.9319V29.0775C71.221 30.2078 70.3047 31.1241 69.1744 31.1241H65.7653C64.635 31.1241 63.7188 30.2078 63.7188 29.0775V22.7771C63.7188 21.6468 62.8025 20.7305 61.6722 20.7305H58.2642C57.134 20.7305 56.2177 21.6468 56.2177 22.7771V29.0775C56.2177 30.2078 55.3014 31.1241 54.1712 31.1241H50.762C49.6318 31.1241 48.7155 30.2078 48.7155 29.0775V26.3057C48.7155 24.1789 45.8737 23.4633 44.8665 25.3365L41.4104 31.7638C39.1842 35.8481 36.378 37.6462 31.1031 37.6462C30.3159 37.6462 29.2894 37.618 28.1672 37.4853C27.2061 37.3716 26.5284 36.5265 26.5284 35.5586V34.2922C26.5284 33.0104 27.6917 32.0721 28.9695 32.1745C29.3346 32.2038 29.7116 32.2213 30.096 32.2213C31.0059 32.2213 32.9692 31.9505 33.8016 31.2889C33.8112 31.2813 33.8165 31.2698 33.8165 31.2575C33.8165 31.2502 33.8145 31.243 33.8108 31.2367L29.7253 24.3536C28.6633 22.5642 25.9189 23.3174 25.9189 25.3981V29.0775C25.9189 30.2078 25.0026 31.1241 23.8723 31.1241H20.4643C19.3341 31.1241 18.4178 30.2078 18.4178 29.0775V22.7771C18.4178 21.6468 17.5015 20.7305 16.3713 20.7305H12.9621C11.8319 20.7305 10.9156 21.6468 10.9156 22.7771V29.0775C10.9156 30.2078 9.99935 31.1241 8.86908 31.1241H5.46109C4.33082 31.1241 3.41455 30.2078 3.41455 29.0775V17.9319C3.41455 16.8016 4.33082 15.8854 5.46109 15.8854H31.6889C32.4843 15.8854 33.2077 16.3462 33.5438 17.0671L36.5309 23.4741C37.004 24.4483 37.1899 24.7932 37.4514 25.5345C37.4668 25.5781 37.5079 25.6074 37.5542 25.6074C37.5991 25.6074 37.6394 25.5797 37.6556 25.5378C37.9429 24.7978 38.0992 24.5126 38.5136 23.5964L41.3889 17.1033C41.7167 16.3628 42.4504 15.8854 43.2601 15.8854H69.1744Z" fill="#374FF5"/>
<path d="M34.8062 0.0244751H33.0259C32.1351 0.0244812 31.295 0.239735 30.5522 0.618225C29.8097 0.240028 28.97 0.0244751 28.0796 0.0244751H15.5903C12.5764 0.0244751 10.1323 2.46853 10.1323 5.48248V12.6446C10.1323 15.6586 12.5764 18.1016 15.5903 18.1016H17.0239C19.1056 18.1016 20.9142 16.9358 21.8345 15.2217C22.7547 16.9355 24.5636 18.1015 26.645 18.1016H28.0796C28.97 18.1016 29.8098 17.8861 30.5522 17.5079C31.295 17.8863 32.1351 18.1016 33.0259 18.1016H35.4712C36.933 18.1016 38.3341 17.5142 39.3599 16.4727L39.7993 16.0264C40.6505 17.2787 42.087 18.1016 43.7153 18.1016H45.4937C46.384 18.1016 47.2239 17.886 47.9663 17.5079C48.709 17.8865 49.5492 18.1015 50.4399 18.1016H51.8755C53.957 18.1019 55.7655 16.9364 56.686 15.2227C57.6065 16.9361 59.4154 18.1016 61.4966 18.1016H62.9312C65.9451 18.1016 68.3892 15.6576 68.3892 12.6436V5.48248C68.3892 2.46853 65.9451 0.0244751 62.9312 0.0244751H50.4409C49.5502 0.0244836 48.71 0.239734 47.9673 0.618225C47.2246 0.239837 46.3843 0.0244751 45.4937 0.0244751H43.0493C41.6789 0.0245052 40.3623 0.540359 39.3579 1.46295L39.1616 1.6524L38.7202 2.10065C37.8694 0.848289 36.4343 0.0244751 34.8062 0.0244751Z" fill="#78F0FC"/>
<path d="M15.5899 14.6912C14.4597 14.6912 13.5435 13.775 13.5435 12.6447V5.48208C13.5435 4.35185 14.4597 3.43561 15.5899 3.43561H28.0798C29.21 3.43561 30.1262 4.35184 30.1262 5.48208V12.6439C30.1262 13.7741 29.21 14.6904 28.0798 14.6904H26.6454C25.5151 14.6904 24.5989 13.7741 24.5989 12.6439V9.06139C24.5989 7.93115 23.6827 7.01492 22.5524 7.01492H21.1172C19.987 7.01492 19.0708 7.93115 19.0708 9.06139V12.6447C19.0708 13.775 18.1545 14.6912 17.0243 14.6912H15.5899Z" fill="#374FF5"/>
<path d="M45.494 3.43561C46.6243 3.43561 47.5405 4.35184 47.5405 5.48208V12.6439C47.5405 13.7741 46.6243 14.6904 45.494 14.6904H43.7151C42.9859 14.6904 42.3947 14.0992 42.3947 13.3699V10.0232C42.3947 9.53801 41.6455 9.31443 41.2936 9.64839L36.9293 14.0799C36.5447 14.4704 36.0194 14.6904 35.4713 14.6904H33.0259C31.8957 14.6904 30.9794 13.7741 30.9794 12.6439V5.48208C30.9794 4.35184 31.8957 3.43561 33.0259 3.43561H34.8064C35.5348 3.43561 36.1252 4.02609 36.1252 4.75449V8.10278C36.1252 8.5874 36.8748 8.81115 37.2264 8.47758L41.5915 4.04599C41.9761 3.65549 42.5013 3.43561 43.0494 3.43561H45.494Z" fill="#374FF5"/>
<path d="M50.4407 14.6907C49.3105 14.6905 48.3945 13.7743 48.3945 12.6442V5.48208C48.3945 4.35184 49.3107 3.43561 50.441 3.43561H62.9316C64.0619 3.43561 64.9781 4.35184 64.9781 5.48208V12.6439C64.9781 13.7741 64.0619 14.6904 62.9316 14.6904H61.4964C60.3662 14.6904 59.45 13.7741 59.45 12.6439V9.06139C59.45 7.93115 58.5337 7.01492 57.4035 7.01492H55.9691C54.8389 7.01492 53.9226 7.93115 53.9226 9.06139V12.6444C53.9226 13.7748 53.0062 14.6911 51.8759 14.6909L50.4407 14.6907Z" fill="#374FF5"/>
</svg>
