<svg width="151" height="90" viewBox="0 0 151 90" fill="none" xmlns="http://www.w3.org/2000/svg">
<path d="M33.4942 46.7537C33.1551 45.7025 33.7324 44.5754 34.7836 44.2363L76.6592 30.7294C77.7104 30.3903 78.8375 30.9676 79.1766 32.0188L86.237 53.9083C86.5761 54.9596 85.9988 56.0866 84.9476 56.4257L43.072 69.9327C42.0208 70.2717 40.8937 69.6944 40.5546 68.6432L33.4942 46.7537Z" fill="#E2E2E2"/>
<path d="M82.9835 30.7909C82.6444 29.7397 83.2217 28.6126 84.2729 28.2735L106.162 21.2131C107.214 20.874 108.341 21.4513 108.68 22.5026L115.74 44.3921C116.079 45.4433 115.502 46.5704 114.451 46.9095L92.5613 53.9699C91.5101 54.309 90.383 53.7317 90.0439 52.6804L82.9835 30.7909Z" fill="#E2E2E2"/>
<path d="M110.645 15.5644C110.306 14.5131 110.883 13.3861 111.934 13.047L135.727 5.37257C136.778 5.0335 137.906 5.61082 138.245 6.66206L148.682 39.0204C149.021 40.0717 148.444 41.1988 147.392 41.5378L123.599 49.2122C122.548 49.5513 121.421 48.974 121.082 47.9228L110.645 15.5644Z" fill="#E2E2E2"/>
<path d="M0.614195 45.8011C0.275118 44.7498 0.852439 43.6228 1.90368 43.2837L23.7932 36.2232C24.8444 35.8842 25.9715 36.4615 26.3106 37.5127L39.8175 79.3883C40.1566 80.4395 39.5793 81.5666 38.528 81.9057L16.6385 88.9661C15.5873 89.3052 14.4602 88.7279 14.1211 87.6766L0.614195 45.8011Z" fill="#E2E2E2"/>
<path d="M12.97 84.1077C13.4956 83.9381 14.0591 84.2268 14.2287 84.7524L15.0729 87.3696C15.2424 87.8953 15.8059 88.1839 16.3316 88.0144L19.0677 87.1318C19.5934 86.9623 20.1569 87.251 20.3264 87.7766L16.6385 88.9661C15.6529 89.284 14.601 88.7962 14.194 87.8676L14.1211 87.6766L12.97 84.1077Z" fill="#262626"/>
<path d="M30.0125 83.6016C30.5381 83.4321 31.1016 83.7207 31.2712 84.2463L23.8954 86.6254C23.7258 86.0998 24.0145 85.5363 24.5401 85.3667L30.0125 83.6016Z" fill="#262626"/>
<path d="M39.8175 79.3883L39.8699 79.5858C40.0681 80.5112 39.5858 81.4529 38.719 81.8328L38.528 81.9056L34.8401 83.0952C34.6706 82.5696 34.9592 82.006 35.4849 81.8365L38.2211 80.9539C38.7467 80.7844 39.0353 80.2209 38.8658 79.6952L38.0216 77.078C37.8521 76.5524 38.1407 75.9889 38.6664 75.8193L39.8175 79.3883Z" fill="#262626"/>
<path d="M120.004 44.248C120.5 44.1421 121.005 44.4269 121.164 44.9196L122.034 47.6158L122.07 47.7119C122.273 48.1759 122.8 48.4194 123.292 48.2605L126.267 47.3012C126.792 47.1317 127.356 47.4204 127.525 47.946L123.599 49.2122L123.402 49.2647C122.477 49.4628 121.535 48.9804 121.155 48.1137L121.082 47.9227L119.905 44.2748L120.004 44.248Z" fill="#262626"/>
<path d="M138.163 43.464C138.689 43.2945 139.252 43.5832 139.422 44.1087L131.57 46.6413C131.401 46.1157 131.689 45.5522 132.215 45.3826L138.163 43.464Z" fill="#262626"/>
<path d="M148.682 39.0204C149.021 40.0717 148.444 41.1987 147.392 41.5378L143.467 42.8041C143.297 42.2785 143.586 41.715 144.111 41.5454L147.085 40.5861C147.611 40.4166 147.9 39.853 147.73 39.3274L146.86 36.6312C146.691 36.1056 146.98 35.5421 147.505 35.3725L148.682 39.0204Z" fill="#262626"/>
<path d="M9.59325 73.6388C10.1189 73.4693 10.6824 73.7579 10.8519 74.2835L12.5403 79.518C12.7099 80.0436 12.4212 80.6071 11.8956 80.7767L9.59325 73.6388Z" fill="#262626"/>
<path d="M37.5919 72.4883L37.4928 72.5151C36.9973 72.621 36.4922 72.3363 36.3332 71.8436L34.6449 66.6091C34.4753 66.0835 34.764 65.52 35.2896 65.3504L37.5919 72.4883Z" fill="#262626"/>
<path d="M39.3651 64.9553C39.8907 64.7858 40.4542 65.0744 40.6238 65.6L41.5063 68.3362C41.6759 68.8618 42.2394 69.1505 42.765 68.981L45.3823 68.1368C45.9078 67.9673 46.4714 68.2559 46.6409 68.7815L43.072 69.9327C42.0864 70.2506 41.0345 69.7627 40.6275 68.8341L40.5546 68.6432L39.3651 64.9553Z" fill="#262626"/>
<path d="M55.8511 64.76C56.3767 64.5905 56.9403 64.8792 57.1098 65.4048L49.972 67.7071C49.8024 67.1815 50.0911 66.6179 50.6167 66.4484L55.8511 64.76Z" fill="#262626"/>
<path d="M66.32 61.3833C66.8456 61.2138 67.4092 61.5024 67.5787 62.028L60.4408 64.3304C60.2713 63.8047 60.56 63.2412 61.0856 63.0717L66.32 61.3833Z" fill="#262626"/>
<path d="M76.7889 58.0066C77.3145 57.8371 77.8781 58.1257 78.0476 58.6513L70.9097 60.9536C70.7402 60.428 71.0289 59.8645 71.5545 59.6949L76.7889 58.0066Z" fill="#262626"/>
<path d="M86.237 53.9083L86.2895 54.1059C86.4876 55.0312 86.0052 55.9729 85.1385 56.3528L84.9476 56.4257L81.3786 57.5769C81.2091 57.0513 81.4977 56.4877 82.0234 56.3182L84.6406 55.474C85.1661 55.3044 85.4548 54.7409 85.2853 54.2153L84.4028 51.4791C84.2332 50.9535 84.5219 50.39 85.0475 50.2204L86.237 53.9083Z" fill="#262626"/>
<path d="M88.8544 48.9925C89.38 48.8231 89.9435 49.1117 90.1131 49.6373L90.9956 52.3734C91.1652 52.899 91.7287 53.1877 92.2543 53.0182L94.9905 52.1356C95.5161 51.9662 96.0797 52.2548 96.2492 52.7804L92.5613 53.9699C91.5757 54.2878 90.5238 53.7999 90.1168 52.8714L90.0439 52.6804L88.8544 48.9925Z" fill="#262626"/>
<path d="M105.935 48.6054C106.461 48.4359 107.024 48.7246 107.194 49.2501L99.8181 51.6292C99.6486 51.1036 99.9373 50.5401 100.463 50.3705L105.935 48.6054Z" fill="#262626"/>
<path d="M115.74 44.3921L115.793 44.5896C115.991 45.515 115.508 46.4567 114.642 46.8366L114.451 46.9095L110.763 48.099C110.593 47.5734 110.882 47.0098 111.408 46.8403L114.144 45.9577C114.669 45.7882 114.958 45.2246 114.789 44.699L113.906 41.9629C113.736 41.4372 114.025 40.8737 114.551 40.7042L115.74 44.3921Z" fill="#262626"/>
<path d="M116.426 33.4881C116.952 33.3186 117.515 33.6074 117.685 34.1328L119.424 39.5262L119.451 39.6253C119.557 40.1208 119.272 40.626 118.78 40.7849L116.426 33.4881Z" fill="#262626"/>
<path d="M146.38 31.8826L146.28 31.9094C145.785 32.0152 145.28 31.7305 145.121 31.2378L143.381 25.8444C143.212 25.319 143.5 24.7553 144.026 24.5857L146.38 31.8826Z" fill="#262626"/>
<path d="M35.8349 54.0105C36.3605 53.8411 36.924 54.1297 37.0936 54.6553L38.8587 60.1276C39.0282 60.6532 38.7395 61.2168 38.2139 61.3863L35.8349 54.0105Z" fill="#262626"/>
<path d="M83.8964 46.6515L83.7973 46.6783C83.3017 46.7842 82.7966 46.4994 82.6377 46.0067L80.8725 40.5344C80.703 40.0088 80.9917 39.4452 81.5173 39.2757L83.8964 46.6515Z" fill="#262626"/>
<path d="M85.3242 38.0478C85.8497 37.8783 86.4133 38.1669 86.5828 38.6925L88.348 44.1649C88.5175 44.6905 88.2287 45.254 87.7032 45.4236L85.3242 38.0478Z" fill="#262626"/>
<path d="M113.4 37.1352L113.3 37.1621C112.805 37.268 112.3 36.9831 112.141 36.4905L110.376 31.0181C110.206 30.4925 110.495 29.929 111.021 29.7594L113.4 37.1352Z" fill="#262626"/>
<path d="M6.21651 63.1699C6.74213 63.0004 7.30567 63.289 7.4752 63.8146L9.16357 69.0491C9.33311 69.5747 9.04445 70.1382 8.51883 70.3078L6.21651 63.1699Z" fill="#262626"/>
<path d="M34.2152 62.0194L34.1161 62.0463C33.6206 62.1522 33.1154 61.8674 32.9565 61.3747L31.2681 56.1402C31.0986 55.6146 31.3873 55.0511 31.9129 54.8815L34.2152 62.0194Z" fill="#262626"/>
<path d="M112.947 22.7022C113.473 22.5327 114.036 22.8214 114.206 23.347L115.945 28.7404C116.115 29.2659 115.826 29.8295 115.301 29.9991L112.947 22.7022Z" fill="#262626"/>
<path d="M142.901 21.0967L142.801 21.1226C142.306 21.2284 141.801 20.9444 141.642 20.452L139.902 15.0586C139.733 14.5331 140.021 13.9695 140.547 13.7999L142.901 21.0967Z" fill="#262626"/>
<path d="M38.3526 43.0851C38.5221 43.6107 38.2334 44.1743 37.7078 44.3438L35.0906 45.188C34.565 45.3576 34.2763 45.9211 34.4459 46.4467L35.3284 49.1829C35.498 49.7085 35.2093 50.272 34.6837 50.4416L33.4942 46.7537C33.1551 45.7025 33.7324 44.5754 34.7836 44.2363L38.3526 43.0851Z" fill="#262626"/>
<path d="M76.8568 30.6769C77.8481 30.4647 78.8587 31.0332 79.1766 32.0188L80.3661 35.7067L80.267 35.7336C79.7715 35.8395 79.2664 35.5547 79.1074 35.062L78.2249 32.3258C78.0553 31.8002 77.4918 31.5116 76.9662 31.6811L74.349 32.5253C73.8563 32.6842 73.33 32.4406 73.1264 31.9766L73.0903 31.8805L76.6592 30.7294L76.8568 30.6769Z" fill="#262626"/>
<path d="M87.9608 27.084C88.1303 27.6096 87.8416 28.1731 87.3161 28.3427L84.5799 29.2253C84.0543 29.3948 83.7656 29.9583 83.9352 30.484L84.8177 33.2201C84.9872 33.7457 84.6985 34.3093 84.173 34.4788L82.9835 30.7909C82.6444 29.7397 83.2217 28.6126 84.2729 28.2735L87.9608 27.084Z" fill="#262626"/>
<path d="M106.36 21.1607C107.351 20.9484 108.362 21.517 108.68 22.5026L109.869 26.1905L109.77 26.2173C109.275 26.3232 108.77 26.0384 108.611 25.5457L107.728 22.8095C107.559 22.284 106.995 21.9953 106.469 22.1648L103.733 23.0474C103.241 23.2063 102.714 22.9627 102.511 22.4987L102.475 22.4026L106.162 21.2131L106.36 21.1607Z" fill="#262626"/>
<path d="M2.83977 52.701C3.36539 52.5315 3.92893 52.8201 4.09847 53.3458L5.78683 58.5802C5.95637 59.1058 5.66771 59.6694 5.14209 59.8389L2.83977 52.701Z" fill="#262626"/>
<path d="M30.8385 51.5505L30.7394 51.5774C30.2438 51.6833 29.7387 51.3985 29.5798 50.9058L27.8914 45.6714C27.7219 45.1457 28.0105 44.5822 28.5361 44.4127L30.8385 51.5505Z" fill="#262626"/>
<path d="M48.8215 39.7084C48.991 40.234 48.7023 40.7975 48.1767 40.9671L42.9423 42.6555C42.4496 42.8144 41.9233 42.5708 41.7197 42.1068L41.6836 42.0107L48.8215 39.7084Z" fill="#262626"/>
<path d="M59.2904 36.3317C59.4599 36.8573 59.1712 37.4208 58.6456 37.5904L53.4112 39.2787C52.9185 39.4376 52.3922 39.1941 52.1886 38.7301L52.1525 38.634L59.2904 36.3317Z" fill="#262626"/>
<path d="M69.7593 32.9549C69.9288 33.4805 69.6401 34.0441 69.1145 34.2136L63.8801 35.902C63.3874 36.0609 62.8611 35.8174 62.6575 35.3533L62.6214 35.2573L69.7593 32.9549Z" fill="#262626"/>
<path d="M98.9056 23.5538C99.0751 24.0794 98.7864 24.6429 98.2609 24.8125L92.7885 26.5776C92.2958 26.7365 91.7695 26.4929 91.5659 26.0289L91.5298 25.9328L98.9056 23.5538Z" fill="#262626"/>
<path d="M115.86 11.7807C116.03 12.3063 115.741 12.8699 115.215 13.0394L112.241 13.9987C111.716 14.1683 111.427 14.7318 111.597 15.2574L112.466 17.9536C112.636 18.4792 112.347 19.0428 111.821 19.2123L110.645 15.5644C110.327 14.5788 110.815 13.5268 111.743 13.1199L111.934 13.047L115.86 11.7807Z" fill="#262626"/>
<path d="M135.727 5.37257C136.778 5.0335 137.906 5.61084 138.245 6.66205L139.421 10.31C138.896 10.4795 138.332 10.1908 138.163 9.66525L137.293 6.96903C137.123 6.44343 136.56 6.15475 136.034 6.32429L133.06 7.28359C132.535 7.45305 131.971 7.16443 131.801 6.63885L135.727 5.37257Z" fill="#262626"/>
<path d="M127.757 7.9435C127.926 8.46912 127.637 9.03265 127.112 9.20219L121.164 11.1208C120.638 11.2903 120.074 11.0016 119.905 10.4761L127.757 7.9435Z" fill="#262626"/>
<path d="M5.59158 42.0941C5.76112 42.6198 5.47246 43.1833 4.94684 43.3528L2.21065 44.2354C1.68503 44.4049 1.39637 44.9685 1.56591 45.4941L2.4101 48.1113C2.57963 48.6369 2.29097 49.2005 1.76536 49.37L0.614194 45.8011C0.275118 44.7498 0.852439 43.6228 1.90368 43.2837L5.59158 42.0941Z" fill="#262626"/>
<path d="M23.9907 36.1708C24.9821 35.9585 25.9926 36.5271 26.3106 37.5127L27.4617 41.0816L27.3626 41.1085C26.8671 41.2144 26.3619 40.9296 26.203 40.4369L25.3588 37.8197C25.1893 37.2941 24.6258 37.0054 24.1001 37.1749L21.364 38.0575C20.8713 38.2164 20.345 37.9729 20.1414 37.5088L20.1053 37.4128L23.7932 36.2232L23.9907 36.1708Z" fill="#262626"/>
<path d="M16.5363 38.5639C16.7059 39.0895 16.4172 39.6531 15.8916 39.8226L10.4192 41.5877C9.92653 41.7466 9.40025 41.5031 9.19664 41.0391L9.16052 40.943L16.5363 38.5639Z" fill="#262626"/>
<path d="M43.1803 61.3943L44.7436 66.2412L43.8718 66.5224L42.5844 62.5311L42.5552 62.5405L41.6571 63.631L41.3969 62.8243L42.3508 61.6619L43.1803 61.3943Z" fill="#262626"/>
<path d="M47.1978 65.5215C46.9658 65.5963 46.7266 65.6304 46.4802 65.6236C46.2331 65.6147 45.9927 65.5486 45.759 65.4253C45.5246 65.2998 45.3067 65.1031 45.1054 64.8352C44.9041 64.5674 44.7317 64.2112 44.5883 63.7666C44.4547 63.3524 44.3802 62.9694 44.3649 62.6176C44.3489 62.2636 44.387 61.9473 44.479 61.6686C44.5733 61.3892 44.7175 61.1535 44.9118 60.9615C45.1075 60.7667 45.3507 60.6225 45.6413 60.5287C45.9471 60.4301 46.2366 60.4037 46.51 60.4496C46.7849 60.4927 47.0282 60.5937 47.2399 60.7529C47.4517 60.9121 47.6172 61.1172 47.7366 61.3685L46.8745 61.6465C46.771 61.474 46.6331 61.3545 46.4608 61.2879C46.2885 61.2214 46.0972 61.2221 45.8868 61.2899C45.5528 61.3976 45.3416 61.6262 45.2532 61.9755C45.1669 62.3242 45.2063 62.7544 45.3714 63.2662L45.404 63.2557C45.4373 63.0917 45.4985 62.9403 45.5878 62.8014C45.6785 62.6596 45.7925 62.5378 45.9297 62.4361C46.0683 62.3315 46.2244 62.2512 46.3979 62.1953C46.682 62.1036 46.9588 62.0898 47.2285 62.1536C47.4974 62.2154 47.7364 62.3441 47.9457 62.54C48.1542 62.7337 48.3078 62.9835 48.4064 63.2893C48.5092 63.608 48.5286 63.9167 48.4644 64.2151C48.4002 64.5135 48.2604 64.7777 48.0448 65.0076C47.8293 65.2376 47.547 65.4088 47.1978 65.5215ZM46.9626 64.8144C47.1361 64.7585 47.2768 64.6676 47.3846 64.5418C47.494 64.4132 47.5649 64.2658 47.5975 64.0996C47.6316 63.9306 47.6203 63.7583 47.5637 63.5826C47.5077 63.4091 47.4183 63.2656 47.2955 63.152C47.1741 63.0355 47.0329 62.9577 46.8719 62.9187C46.713 62.879 46.5468 62.8871 46.3733 62.943C46.2042 62.9976 46.0638 63.0895 45.9523 63.2189C45.843 63.3475 45.7709 63.4953 45.7362 63.6621C45.7014 63.829 45.7113 63.997 45.7658 64.1661C45.8204 64.3353 45.9098 64.4788 46.034 64.5968C46.1576 64.7125 46.3006 64.7921 46.463 64.8355C46.6247 64.8767 46.7913 64.8697 46.9626 64.8144Z" fill="#262626"/>
<path d="M49.9006 63.9134C49.7531 63.961 49.6124 63.9513 49.4783 63.8845C49.3456 63.8147 49.2559 63.7072 49.209 63.5619C49.1621 63.4166 49.1725 63.278 49.2401 63.1461C49.3091 63.0112 49.4174 62.9201 49.5649 62.8725C49.7123 62.8249 49.8524 62.836 49.985 62.9058C50.1191 62.9727 50.2096 63.0787 50.2565 63.224C50.3033 63.3693 50.2922 63.5094 50.2232 63.6442C50.1556 63.7761 50.0481 63.8659 49.9006 63.9134ZM49.1042 61.4445C48.9568 61.492 48.816 61.4824 48.6819 61.4155C48.5493 61.3457 48.4595 61.2382 48.4126 61.0929C48.3658 60.9476 48.3761 60.809 48.4437 60.6771C48.5128 60.5423 48.621 60.4511 48.7685 60.4035C48.916 60.356 49.056 60.367 49.1886 60.4368C49.3227 60.5037 49.4132 60.6098 49.4601 60.7551C49.507 60.9004 49.4959 61.0404 49.4268 61.1752C49.3592 61.3071 49.2517 61.3969 49.1042 61.4445Z" fill="#262626"/>
<path d="M51.4262 58.6556C51.6611 58.5822 51.901 58.5504 52.1459 58.5599C52.393 58.5688 52.6334 58.635 52.8671 58.7583C53.1008 58.8816 53.3183 59.0772 53.5197 59.3451C53.721 59.613 53.8933 59.9692 54.0367 60.4137C54.1703 60.8279 54.2455 61.2131 54.2622 61.5693C54.2804 61.9225 54.2427 62.24 54.1492 62.5215C54.0571 62.8002 53.9132 63.037 53.7174 63.2318C53.521 63.4245 53.2786 63.5673 52.9902 63.6603C52.6844 63.759 52.3937 63.7857 52.1182 63.7405C51.8426 63.6953 51.5986 63.592 51.3862 63.4307C51.1737 63.2694 51.0075 63.062 50.8874 62.8086L51.7527 62.5295C51.8569 62.7042 51.9959 62.827 52.1696 62.8979C52.3448 62.9659 52.5364 62.9663 52.7446 62.8991C53.0786 62.7914 53.2884 62.5621 53.3739 62.2113C53.4617 61.8598 53.4237 61.4267 53.2601 60.912L53.2243 60.9236C53.191 61.0876 53.1287 61.2394 53.0372 61.379C52.948 61.5179 52.8351 61.6393 52.6986 61.7432C52.5621 61.8471 52.4071 61.927 52.2336 61.983C51.9495 62.0746 51.672 62.0899 51.4009 62.0289C51.1291 61.9657 50.8886 61.8362 50.6794 61.6403C50.4702 61.4444 50.3166 61.1947 50.2186 60.8911C50.1158 60.5723 50.0965 60.2637 50.1606 59.9653C50.2263 59.664 50.3658 59.3987 50.5791 59.1695C50.794 58.9374 51.0763 58.7661 51.4262 58.6556ZM51.6635 59.3692C51.4922 59.4244 51.3518 59.5164 51.2425 59.645C51.1325 59.7715 51.0611 59.9178 51.0285 60.084C50.9959 60.2501 51.008 60.421 51.0646 60.5967C51.1206 60.7701 51.2092 60.9151 51.3306 61.0316C51.452 61.1481 51.5932 61.2258 51.7542 61.2649C51.9146 61.3018 52.0804 61.2926 52.2517 61.2373C52.423 61.182 52.5634 61.0901 52.6727 60.9614C52.7835 60.8299 52.8563 60.6808 52.8911 60.5139C52.9252 60.3449 52.9153 60.1769 52.8614 60.0099C52.8075 59.8429 52.7188 59.7016 52.5953 59.5858C52.4739 59.4693 52.3313 59.3908 52.1674 59.3503C52.005 59.3069 51.837 59.3132 51.6635 59.3692Z" fill="#262626"/>
<path d="M92.5924 45.4565L94.1558 50.3033L93.284 50.5845L91.9966 46.5932L91.9673 46.6026L91.0693 47.6932L90.8091 46.8864L91.7629 45.724L92.5924 45.4565Z" fill="#262626"/>
<path d="M95.2531 49.285C95.1056 49.3326 94.9648 49.3229 94.8307 49.256C94.6981 49.1863 94.6084 49.0788 94.5615 48.9335C94.5146 48.7882 94.525 48.6495 94.5926 48.5176C94.6616 48.3828 94.7699 48.2916 94.9173 48.2441C95.0648 48.1965 95.2049 48.2076 95.3375 48.2773C95.4716 48.3442 95.5621 48.4503 95.6089 48.5956C95.6558 48.7409 95.6447 48.881 95.5757 49.0158C95.5081 49.1477 95.4006 49.2374 95.2531 49.285ZM94.4567 46.816C94.3093 46.8636 94.1685 46.8539 94.0344 46.787C93.9017 46.7173 93.812 46.6098 93.7651 46.4645C93.7183 46.3192 93.7286 46.1806 93.7962 46.0486C93.8652 45.9138 93.9735 45.8226 94.121 45.7751C94.2684 45.7275 94.4085 45.7386 94.5411 45.8084C94.6752 45.8752 94.7657 45.9813 94.8126 46.1266C94.8594 46.2719 94.8483 46.412 94.7793 46.5468C94.7117 46.6787 94.6042 46.7685 94.4567 46.816Z" fill="#262626"/>
<path d="M97.0359 44.0232L98.5993 48.8701L97.7275 49.1513L96.4401 45.1599L96.4108 45.1694L95.5128 46.2599L95.2526 45.4532L96.2064 44.2908L97.0359 44.0232Z" fill="#262626"/>
<path d="M125.194 45.6247C124.832 45.7415 124.495 45.7628 124.184 45.6884C123.872 45.6119 123.601 45.455 123.371 45.2179C123.141 44.9807 122.967 44.6789 122.849 44.3124C122.729 43.9415 122.695 43.5924 122.745 43.265C122.795 42.9377 122.924 42.6528 123.133 42.4106C123.342 42.1662 123.623 41.9869 123.976 41.8729C124.274 41.7771 124.553 41.7467 124.816 41.7817C125.079 41.8166 125.309 41.9111 125.507 42.0651C125.707 42.2162 125.859 42.4198 125.963 42.6759L125.143 42.9403C125.084 42.8302 125.007 42.7387 124.915 42.6657C124.822 42.5928 124.715 42.5456 124.596 42.5243C124.479 42.5022 124.351 42.5136 124.212 42.5584C124.036 42.615 123.898 42.7124 123.796 42.8505C123.696 42.9857 123.638 43.153 123.62 43.3525C123.603 43.5519 123.634 43.7742 123.713 44.0192C123.793 44.2664 123.898 44.4685 124.027 44.6254C124.156 44.7802 124.303 44.885 124.466 44.9399C124.63 44.9927 124.8 44.9904 124.978 44.933C125.166 44.8721 125.308 44.7654 125.402 44.6129C125.499 44.4596 125.534 44.2794 125.508 44.0724L126.328 43.808C126.392 44.0723 126.389 44.3245 126.321 44.5645C126.252 44.8045 126.123 45.0173 125.934 45.2028C125.744 45.3862 125.497 45.5268 125.194 45.6247Z" fill="#262626"/>
<path d="M129.015 42.6289L128.334 40.5177L129.189 40.2418L130.362 43.8786L129.533 44.1461L129.324 43.4988L129.285 43.5114C129.268 43.7418 129.188 43.9522 129.043 44.1425C128.899 44.3327 128.689 44.4708 128.416 44.5568C128.177 44.6338 127.95 44.6496 127.734 44.6042C127.52 44.556 127.328 44.4468 127.158 44.2765C126.99 44.1034 126.858 43.8715 126.765 43.5809L126.018 41.2648L126.873 40.9889L127.578 43.1748C127.652 43.4025 127.773 43.5644 127.943 43.6605C128.115 43.7558 128.304 43.7692 128.509 43.7006C128.635 43.66 128.747 43.5905 128.844 43.492C128.944 43.3928 129.012 43.2702 129.049 43.1243C129.086 42.9784 129.074 42.8132 129.015 42.6289Z" fill="#262626"/>
<path d="M133.004 40.0779L132.253 40.41C132.182 40.3012 132.078 40.2188 131.94 40.1626C131.801 40.1044 131.633 40.1071 131.436 40.1707C131.258 40.2281 131.121 40.3154 131.025 40.4326C130.931 40.5492 130.903 40.6681 130.943 40.7896C130.977 40.8959 131.044 40.9711 131.145 41.0153C131.247 41.0567 131.396 41.0682 131.594 41.0499L132.257 40.9797C132.621 40.9414 132.913 40.9763 133.135 41.0844C133.357 41.1925 133.509 41.3756 133.592 41.6336C133.666 41.8613 133.665 42.0844 133.589 42.3027C133.513 42.521 133.374 42.7167 133.172 42.8899C132.971 43.0623 132.719 43.1975 132.415 43.2954C131.971 43.4388 131.583 43.461 131.252 43.3619C130.922 43.26 130.676 43.0508 130.514 42.7343L131.325 42.3866C131.414 42.5373 131.534 42.6351 131.685 42.6798C131.838 42.7216 132.011 42.711 132.206 42.6481C132.41 42.5823 132.561 42.4883 132.658 42.366C132.754 42.2416 132.783 42.1187 132.744 41.9972C132.678 41.7934 132.47 41.707 132.121 41.7382L131.458 41.8085C131.084 41.8452 130.787 41.8059 130.565 41.6906C130.343 41.5732 130.189 41.3822 130.104 41.1176C130.031 40.8921 130.03 40.6769 130.1 40.4723C130.171 40.2676 130.302 40.084 130.494 39.9216C130.686 39.7591 130.927 39.6311 131.217 39.5373C131.645 39.3995 132.009 39.3836 132.312 39.4896C132.616 39.5927 132.846 39.7888 133.004 40.0779Z" fill="#262626"/>
<path d="M135.045 38.3532L135.259 39.0168L133.174 39.6893L132.959 39.0257L135.045 38.3532ZM133.191 37.9957L134.047 37.7198L135.146 41.1289C135.192 41.272 135.258 41.3681 135.343 41.4172C135.428 41.4642 135.539 41.4656 135.675 41.4215C135.712 41.4096 135.752 41.3931 135.796 41.3719C135.839 41.3507 135.878 41.3298 135.912 41.3093L136.274 41.9321C136.192 41.9897 136.107 42.04 136.018 42.0831C135.93 42.1284 135.839 42.1661 135.745 42.1961C135.407 42.3053 135.113 42.302 134.862 42.1865C134.611 42.0687 134.436 41.8548 134.336 41.5447L133.191 37.9957Z" fill="#262626"/>
<path d="M138.258 41.411C137.902 41.5257 137.569 41.547 137.258 41.4748C136.948 41.4026 136.675 41.2486 136.441 41.0128C136.209 40.7764 136.033 40.4716 135.913 40.0986C135.792 39.7235 135.756 39.3722 135.806 39.0448C135.858 38.7145 135.989 38.4294 136.198 38.1893C136.408 37.9492 136.691 37.7718 137.047 37.6571C137.402 37.5424 137.736 37.5211 138.046 37.5933C138.357 37.6655 138.629 37.8206 138.864 38.0585C139.098 38.2943 139.276 38.5997 139.397 38.9749C139.517 39.3479 139.551 39.6985 139.499 40.0266C139.447 40.3546 139.316 40.6387 139.106 40.8788C138.896 41.1189 138.613 41.2963 138.258 41.411ZM138.035 40.7214C138.232 40.6577 138.378 40.5532 138.473 40.4078C138.566 40.2603 138.616 40.0864 138.62 39.8861C138.627 39.6851 138.596 39.4751 138.525 39.2561C138.453 39.0327 138.355 38.8416 138.232 38.6825C138.111 38.5228 137.97 38.4116 137.809 38.3487C137.646 38.2837 137.467 38.2831 137.269 38.3467C137.076 38.409 136.932 38.5142 136.836 38.6625C136.739 38.8085 136.688 38.982 136.681 39.183C136.676 39.3833 136.709 39.5951 136.781 39.8185C136.852 40.0375 136.948 40.2269 137.069 40.3866C137.192 40.5456 137.336 40.6573 137.5 40.7216C137.664 40.7837 137.842 40.7836 138.035 40.7214Z" fill="#262626"/>
<path d="M140.45 40.6249L139.277 36.9881L140.093 36.7248L140.294 37.3461L140.339 37.3314C140.348 37.0987 140.421 36.8955 140.559 36.7217C140.696 36.5458 140.885 36.419 141.126 36.3414C141.373 36.2616 141.601 36.2541 141.808 36.3188C142.016 36.3835 142.186 36.5081 142.32 36.6924L142.359 36.6798C142.377 36.4515 142.461 36.2459 142.613 36.0629C142.764 35.8799 142.973 35.7457 143.237 35.6604C143.571 35.5527 143.877 35.5712 144.156 35.7158C144.437 35.8576 144.642 36.1313 144.773 36.5369L145.56 38.9766L144.701 39.2536L143.956 36.944C143.884 36.7206 143.771 36.5765 143.616 36.5115C143.462 36.4437 143.299 36.4378 143.125 36.4938C142.919 36.5602 142.78 36.6771 142.707 36.8442C142.633 37.0093 142.629 37.1926 142.694 37.3943L143.426 39.6649L142.58 39.9377L141.825 37.5955C141.764 37.4069 141.661 37.2751 141.514 37.2001C141.367 37.123 141.203 37.1139 141.021 37.1726C140.897 37.2125 140.794 37.2803 140.713 37.3761C140.631 37.4719 140.578 37.5859 140.554 37.7183C140.532 37.8499 140.544 37.9895 140.592 38.137L141.305 40.349L140.45 40.6249Z" fill="#262626"/>
<path d="M16.4895 80.4318C16.7244 80.3584 16.9643 80.3265 17.2092 80.3361C17.4563 80.345 17.6967 80.4111 17.9304 80.5344C18.1642 80.6578 18.3817 80.8534 18.583 81.1212C18.7843 81.3891 18.9567 81.7453 19.1001 82.1899C19.2337 82.6041 19.3088 82.9893 19.3255 83.3454C19.3437 83.6987 19.306 84.0161 19.2125 84.2977C19.1204 84.5764 18.9765 84.8131 18.7808 85.0079C18.5844 85.2006 18.3419 85.3434 18.0535 85.4365C17.7477 85.5351 17.4571 85.5618 17.1815 85.5166C16.906 85.4714 16.662 85.3681 16.4495 85.2068C16.2371 85.0455 16.0708 84.8381 15.9508 84.5848L16.8161 84.3057C16.9203 84.4804 17.0592 84.6031 17.2329 84.674C17.4081 84.742 17.5998 84.7424 17.808 84.6753C18.1419 84.5676 18.3517 84.3383 18.4373 83.9875C18.525 83.6359 18.4871 83.2028 18.3235 82.6882L18.2877 82.6997C18.2544 82.8637 18.192 83.0155 18.1006 83.1551C18.0113 83.2941 17.8984 83.4155 17.7619 83.5193C17.6255 83.6232 17.4705 83.7031 17.297 83.7591C17.0129 83.8507 16.7353 83.866 16.4642 83.805C16.1925 83.7419 15.952 83.6123 15.7427 83.4164C15.5335 83.2206 15.3799 82.9708 15.282 82.6672C15.1792 82.3484 15.1598 82.0398 15.224 81.7414C15.2896 81.4401 15.4291 81.1748 15.6425 80.9456C15.8573 80.7135 16.1397 80.5422 16.4895 80.4318ZM16.7268 81.1453C16.5555 81.2006 16.4152 81.2925 16.3059 81.4212C16.1958 81.5476 16.1245 81.6939 16.0919 81.8601C16.0593 82.0262 16.0713 82.1971 16.128 82.3728C16.1839 82.5463 16.2726 82.6913 16.394 82.8077C16.5153 82.9242 16.6565 83.002 16.8176 83.041C16.9779 83.0779 17.1437 83.0687 17.315 83.0134C17.4864 82.9582 17.6267 82.8662 17.736 82.7376C17.8469 82.6061 17.9197 82.4569 17.9544 82.2901C17.9885 82.121 17.9786 81.953 17.9247 81.7861C17.8709 81.6191 17.7822 81.4777 17.6586 81.3619C17.5373 81.2454 17.3946 81.1669 17.2307 81.1264C17.0683 81.0831 16.9003 81.0893 16.7268 81.1453Z" fill="#262626"/>
<path d="M20.9038 83.7737C20.7564 83.8212 20.6156 83.8116 20.4815 83.7447C20.3488 83.675 20.2591 83.5674 20.2122 83.4221C20.1654 83.2768 20.1757 83.1382 20.2433 83.0063C20.3123 82.8715 20.4206 82.7803 20.5681 82.7327C20.7155 82.6852 20.8556 82.6963 20.9882 82.766C21.1223 82.8329 21.2128 82.939 21.2597 83.0843C21.3065 83.2296 21.2954 83.3696 21.2264 83.5044C21.1588 83.6364 21.0513 83.7261 20.9038 83.7737ZM20.1075 81.3047C19.96 81.3523 19.8192 81.3426 19.6851 81.2757C19.5525 81.206 19.4627 81.0984 19.4159 80.9531C19.369 80.8078 19.3793 80.6692 19.4469 80.5373C19.516 80.4025 19.6242 80.3113 19.7717 80.2638C19.9192 80.2162 20.0592 80.2273 20.1919 80.297C20.326 80.3639 20.4164 80.47 20.4633 80.6153C20.5102 80.7606 20.4991 80.9006 20.43 81.0354C20.3624 81.1674 20.2549 81.2571 20.1075 81.3047Z" fill="#262626"/>
<path d="M22.6867 78.5119L24.25 83.3588L23.3782 83.64L22.0908 79.6486L22.0616 79.658L21.1635 80.7486L20.9033 79.9418L21.8572 78.7794L22.6867 78.5119Z" fill="#262626"/>
<path d="M26.7042 82.639C26.4722 82.7138 26.233 82.7479 25.9866 82.7412C25.7395 82.7323 25.4991 82.6662 25.2654 82.5428C25.031 82.4173 24.8131 82.2206 24.6118 81.9528C24.4105 81.6849 24.2381 81.3287 24.0947 80.8841C23.9611 80.4699 23.8866 80.0869 23.8713 79.7351C23.8553 79.3811 23.8933 79.0648 23.9854 78.7861C24.0797 78.5067 24.2239 78.271 24.4182 78.0791C24.6139 77.8843 24.8571 77.74 25.1477 77.6463C25.4535 77.5476 25.743 77.5213 26.0164 77.5672C26.2913 77.6102 26.5346 77.7113 26.7463 77.8704C26.9581 78.0296 27.1236 78.2348 27.243 78.486L26.3809 78.764C26.2774 78.5915 26.1395 78.472 25.9672 78.4055C25.7949 78.3389 25.6036 78.3396 25.3932 78.4074C25.0592 78.5152 24.848 78.7437 24.7596 79.0931C24.6733 79.4417 24.7127 79.8719 24.8778 80.3837L24.9104 80.3732C24.9437 80.2093 25.0049 80.0578 25.0942 79.9189C25.1849 79.7771 25.2989 79.6553 25.4361 79.5536C25.5747 79.449 25.7308 79.3688 25.9043 79.3128C26.1884 79.2212 26.4652 79.2073 26.7348 79.2712C27.0038 79.3329 27.2428 79.4617 27.4521 79.6576C27.6606 79.8513 27.8142 80.101 27.9128 80.4068C28.0156 80.7256 28.0349 81.0342 27.9708 81.3326C27.9066 81.631 27.7668 81.8952 27.5512 82.1252C27.3357 82.3551 27.0534 82.5264 26.7042 82.639ZM26.469 81.9319C26.6425 81.876 26.7832 81.7851 26.891 81.6593C27.0004 81.5307 27.0713 81.3833 27.1039 81.2172C27.138 81.0482 27.1267 80.8758 27.0701 80.7002C27.0141 80.5267 26.9247 80.3831 26.8019 80.2695C26.6805 80.153 26.5393 80.0753 26.3783 80.0362C26.2194 79.9965 26.0532 80.0046 25.8797 80.0606C25.7106 80.1151 25.5702 80.2071 25.4587 80.3364C25.3494 80.4651 25.2773 80.6128 25.2426 80.7796C25.2078 80.9465 25.2177 81.1145 25.2722 81.2836C25.3268 81.4528 25.4162 81.5963 25.5404 81.7143C25.664 81.8301 25.807 81.9096 25.9694 81.953C26.1311 81.9942 26.2977 81.9872 26.469 81.9319Z" fill="#262626"/>
</svg>
