<svg width="121" height="123" viewBox="0 0 121 123" fill="none" xmlns="http://www.w3.org/2000/svg">
<path fill-rule="evenodd" clip-rule="evenodd" d="M70.1952 46.2473C70.1847 46.4138 70.1741 46.5806 70.1636 46.7477C70.174 46.5821 70.1848 46.4122 70.1952 46.2473ZM86.4743 92.6406C86.4743 92.6375 86.4743 92.6438 86.4743 92.6406L86.4736 92.5689Z" fill="#C62B1C"/>
<path fill-rule="evenodd" clip-rule="evenodd" d="M109.879 94.5302C109.696 93.4825 109.514 92.4346 109.332 91.3875L109.328 91.3595C109.511 92.4159 109.695 93.4731 109.879 94.5302Z" fill="#C62B1C"/>
<path d="M66.5505 107.152C66.5491 107.163 66.5467 107.18 66.5437 107.202C66.4862 107.613 66.1806 109.8 67.1367 111.874C67.8871 113.501 69.2486 114.861 70.8771 115.609C72.1661 116.201 73.3484 116.286 74.1075 116.284C74.695 116.282 75.3189 116.218 75.6699 116.182L75.7513 116.174L103.863 113.339L103.955 113.33C104.323 113.293 104.909 113.234 105.441 113.136C106.08 113.017 107.213 112.749 108.37 111.966C109.772 111.016 110.815 109.631 111.341 108.022C111.777 106.689 111.719 105.521 111.657 104.878C111.604 104.337 111.498 103.753 111.432 103.387L111.416 103.301C111.204 102.129 110.997 100.951 110.789 99.7629C110.302 96.9681 109.814 94.1611 109.328 91.3595L109.319 91.3126L109.311 91.2667L109.305 91.2297C108.457 86.3491 107.608 81.4615 106.75 76.5775L108.347 76.4165L108.437 76.4075C108.813 76.37 109.4 76.3113 109.931 76.2136C110.555 76.0987 111.698 75.8357 112.864 75.0501C114.266 74.1056 115.304 72.739 115.838 71.1353C116.287 69.7852 116.225 68.5973 116.168 67.9788C116.119 67.443 116.018 66.8601 115.951 66.4779L115.935 66.3829C115.812 65.6739 115.689 64.9188 115.561 64.1343C115.179 61.793 114.753 59.1814 114.162 56.6954C112.158 48.2676 108.652 40.391 103.4 33.3057C99.1696 27.5988 93.2806 22.2715 87.0284 18.5653C87.0193 18.5599 87.003 18.5495 86.981 18.5355C86.7798 18.4071 86.0581 17.9467 85.0498 17.5939C83.2056 9.44223 75.5556 3.49819 66.9635 4.27986C62.1448 4.71818 57.999 7.06518 55.1861 10.5066C51.7424 7.69485 47.2108 6.2221 42.4004 6.75492C33.8254 7.70444 27.5162 15.0554 27.3364 23.411C26.4196 23.9575 25.805 24.5528 25.633 24.7194C25.6135 24.7382 25.5997 24.7517 25.5917 24.7588C20.2056 29.6385 15.4995 36.0337 12.4941 42.47C8.76156 50.4615 6.89849 58.8812 6.61748 67.5396C6.53498 70.0939 6.63873 72.7375 6.73175 75.1079C6.76291 75.9018 6.79286 76.665 6.81422 77.384L6.81653 77.4631C6.82779 77.8504 6.84526 78.4514 6.90496 78.9943C6.97284 79.6117 7.14922 80.7879 7.85899 82.0213C8.702 83.4863 9.99162 84.619 11.5536 85.2646C12.8526 85.8016 14.0254 85.8301 14.66 85.8181C15.1996 85.8078 15.7872 85.748 16.1626 85.7098L16.2529 85.7006L17.8493 85.5396C17.9849 90.5237 18.1296 95.5133 18.2739 100.492L18.2742 100.503C18.3571 103.36 18.4398 106.215 18.5208 109.066C18.5546 110.271 18.5867 111.466 18.613 112.656L18.6149 112.744C18.6227 113.116 18.6353 113.709 18.6923 114.25C18.7599 114.893 18.9369 116.048 19.6296 117.267C20.4664 118.74 21.7654 119.888 23.329 120.539C24.6183 121.075 25.7825 121.111 26.4323 121.1C26.9732 121.091 27.5592 121.031 27.9271 120.994L28.0185 120.984L56.1298 118.149L56.2219 118.14C56.5748 118.105 57.1922 118.044 57.7625 117.93C58.5068 117.781 59.6486 117.461 60.7933 116.624C62.2396 115.566 63.3032 113.961 63.7135 112.217C64.2362 109.994 63.4997 107.913 63.3609 107.521C63.3511 107.493 63.3443 107.474 63.3411 107.464C61.0566 100.083 55.1635 93.242 46.1907 92.3544C45.7686 90.1714 45.3475 87.9921 44.926 85.8114L44.2041 82.0761C45.8453 80.9988 47.0159 79.3283 47.453 77.3758C47.659 76.456 47.6362 75.6729 47.6134 75.2572C47.5929 74.8849 47.5484 74.4801 47.5208 74.2283L47.5164 74.1883C47.4499 73.5825 47.3853 72.9747 47.3224 72.3627C50.7199 68.9882 51.6551 64.4083 50.8206 60.6734C50.369 58.6515 49.7941 56.5627 49.2702 54.6594L49.2062 54.4269L48.6933 52.5431C48.3312 51.1793 47.9701 49.8435 47.6135 48.5247C46.9343 46.0122 46.2708 43.5577 45.6442 41.0724C45.843 41.0576 46.0444 41.0404 46.2444 41.0187C50.9004 40.5147 54.8988 38.1792 57.6355 34.8152C60.9892 37.5665 65.3747 39.0572 70.0389 38.6211C70.2396 38.6024 70.4389 38.5803 70.6369 38.555C70.5192 41.1143 70.3591 43.6509 70.1952 46.2473L70.1636 46.7477C70.0879 47.9487 70.0117 49.1666 69.9393 50.4025C69.8982 51.1013 69.8477 51.8465 69.7952 52.6212C69.6624 54.5831 69.5168 56.7336 69.4782 58.7948C69.4063 62.6207 71.2376 66.9202 75.2395 69.5484C75.3001 70.1611 75.3592 70.7696 75.4151 71.3769L75.4211 71.442C75.4442 71.6957 75.48 72.0877 75.5326 72.4447C75.5933 72.8567 75.7273 73.6286 76.1127 74.4886C76.9307 76.314 78.411 77.7167 80.2335 78.4447L80.2757 82.6613L80.2758 82.6748C80.2967 84.7539 80.3175 86.8321 80.3382 88.9138C71.7249 91.5756 67.3154 99.4639 66.5505 107.152Z" fill="#C62B1C"/>
<path d="M79.327 20.3581C79.9011 26.6135 75.562 31.9822 69.4715 32.5504C63.419 33.1163 58.0246 28.5974 57.4574 22.4869C56.8816 16.2914 61.3396 10.9153 67.5166 10.3537C73.4172 9.8169 78.7753 14.3548 79.327 20.3581Z" fill="#F092F9"/>
<path d="M85 94.1653C85.0994 94.155 85.1491 94.1498 85.1903 94.1432C85.9063 94.0289 86.4404 93.4304 86.4729 92.7061C86.4748 92.6644 86.4743 92.6161 86.4733 92.5196C86.4151 86.6361 86.3573 80.8009 86.2983 74.9151C86.292 74.2826 86.2889 73.9664 86.1958 73.7164C86.0197 73.2435 85.6116 72.8824 85.1208 72.7653C84.8613 72.7034 84.539 72.7398 83.8944 72.8124C83.2905 72.8804 82.9885 72.9145 82.741 72.8598C82.2613 72.7539 81.8793 72.4428 81.6783 71.9945C81.5747 71.7632 81.5457 71.4482 81.4877 70.8184C81.376 69.604 81.2538 68.3908 81.1304 67.1775C81.0714 66.5969 81.0419 66.3066 80.9504 66.0928C80.8529 65.8647 80.7815 65.7617 80.6022 65.5903C80.4341 65.4295 80.0803 65.2542 79.3727 64.9034C76.6764 63.5668 75.5361 61.0185 75.5758 58.9092C75.6266 56.1918 75.8677 53.4767 76.0274 50.7606C76.2843 46.3782 76.6059 42 76.7827 37.615C76.9631 33.173 78.4828 28.3682 80.9444 24.4925C81.296 23.9388 81.4718 23.662 81.7789 23.4767C82.0246 23.3284 82.3917 23.2406 82.6779 23.2615C83.0355 23.2877 83.33 23.4623 83.9191 23.8115C89.4758 27.1054 94.7548 31.8846 98.4999 36.9374C103.225 43.3105 106.401 50.4191 108.229 58.1064C108.96 61.1811 109.387 64.3117 109.926 67.4222C110.09 68.3716 110.172 68.8463 110.051 69.2099C109.943 69.5356 109.741 69.8011 109.456 69.9929C109.139 70.2071 108.671 70.2543 107.735 70.3487L102.222 70.9046C101.312 70.9963 100.858 71.0422 100.539 71.2572C100.259 71.4462 100.051 71.7223 99.9448 72.043C99.8245 72.4077 99.9041 72.8581 100.063 73.7587C101.657 82.7732 103.21 91.7948 104.782 100.813C104.99 102.005 105.2 103.196 105.415 104.386C105.581 105.303 105.664 105.761 105.544 106.127C105.439 106.45 105.232 106.725 104.95 106.916C104.631 107.132 104.171 107.178 103.251 107.271L75.1398 110.106C74.2464 110.196 73.7997 110.241 73.4229 110.068C73.1164 109.927 72.816 109.627 72.6748 109.321C72.5012 108.944 72.5409 108.545 72.6203 107.746C73.2994 100.92 77.4083 94.9588 85 94.1653Z" fill="#F092F9"/>
<path d="M33.4964 24.9774C34.1828 31.2215 39.5064 35.6158 45.5878 34.9565C51.6313 34.3026 56.015 28.7977 55.3507 22.6969C54.6779 16.5112 49.2364 12.1335 43.0716 12.8164C37.1826 13.4685 32.8384 18.9848 33.4964 24.9774Z" fill="#F092F9"/>
<path d="M42.6737 98.4313C42.5727 98.4411 42.5222 98.4461 42.4798 98.4478C41.7563 98.4781 41.1144 97.999 40.9376 97.2968C40.9273 97.2557 40.9182 97.2087 40.9 97.1146C39.7826 91.338 38.6751 85.607 37.558 79.8278C37.438 79.2068 37.3779 78.8962 37.4192 78.6327C37.4974 78.1342 37.8251 77.699 38.2827 77.4863C38.5246 77.3738 38.8477 77.345 39.4938 77.2875C40.0991 77.2336 40.4018 77.2067 40.6334 77.1037C41.0824 76.9042 41.3946 76.5231 41.5019 76.0436C41.5573 75.7963 41.5228 75.4819 41.4539 74.8531C41.3209 73.6409 41.1985 72.4277 41.0771 71.2142C41.019 70.6335 40.99 70.3432 41.0369 70.1154C41.0869 69.8724 41.1363 69.7573 41.2777 69.5535C41.4104 69.3624 41.722 69.1199 42.3453 68.635C44.7205 66.787 45.3291 64.0623 44.8691 62.0034C44.2767 59.3509 43.4984 56.7385 42.7996 54.109C41.673 49.8661 40.4837 45.6403 39.4349 41.3788C38.3712 37.0623 35.9228 32.6577 32.7371 29.3515C32.282 28.8792 32.0544 28.643 31.7166 28.5228C31.4462 28.4265 31.0689 28.4137 30.7927 28.4914C30.4475 28.5885 30.1937 28.8184 29.6862 29.2781C24.8991 33.6151 20.6806 39.3521 18.0197 45.0509C14.6624 52.239 12.9693 59.8386 12.713 67.7362C12.611 70.8948 12.8168 74.0478 12.9105 77.2032C12.9391 78.1662 12.9534 78.6477 13.1445 78.9799C13.3157 79.2774 13.5663 79.4973 13.8835 79.6284C14.2377 79.7748 14.7056 79.7276 15.6415 79.6332L21.1547 79.0773C22.0641 78.9856 22.5187 78.9397 22.8735 79.0868C23.1854 79.2162 23.4452 79.445 23.6129 79.7381C23.8036 80.0715 23.8155 80.5287 23.8394 81.443C24.0779 90.5941 24.3574 99.7442 24.6173 108.895C24.6512 110.104 24.6836 111.313 24.7103 112.522C24.7308 113.453 24.7411 113.919 24.9314 114.254C25.0995 114.55 25.3571 114.777 25.6712 114.908C26.0267 115.056 26.4867 115.01 27.4068 114.917L55.518 112.082C56.4113 111.992 56.858 111.947 57.1927 111.702C57.4649 111.503 57.6994 111.149 57.7766 110.821C57.8715 110.417 57.7529 110.034 57.5156 109.267C55.4874 102.714 50.271 97.693 42.6737 98.4313Z" fill="#F092F9"/>
<path d="M74.8596 52.6047C74.808 52.6353 74.7592 52.6656 74.7155 52.6927L74.6775 52.7163L74.6464 52.7194C74.6318 52.7209 74.6177 52.722 74.6045 52.723L74.588 52.7243L74.535 52.7046C74.4905 52.6881 74.4417 52.6699 74.3903 52.652C74.1855 52.5807 73.8471 52.4696 73.443 52.3873C73.0408 52.3054 72.4462 52.2248 71.7455 52.2954L70.8662 52.3841C69.433 52.5287 67.7508 53.3234 66.8272 55.041C66.8205 55.0535 66.8141 55.0663 66.8077 55.0791L66.7944 55.1052C66.0583 55.3177 65.3918 55.6787 64.8272 56.1536C63.8863 55.6435 62.8043 55.4173 61.7154 55.5271L56.0041 56.103C54.517 56.253 53.1673 57.0132 52.2658 58.1888C51.2344 57.2657 49.8212 56.7266 48.1572 56.8943L46.0954 57.1023C45.022 57.2105 44.0055 57.6382 43.1775 58.3299L43.1323 58.3679L43.1197 58.3603C42.1616 57.8332 41.066 57.6094 39.978 57.7192L37.7889 57.9399C36.7734 58.0424 35.902 58.3841 35.1892 58.8872C34.8682 58.8285 34.5459 58.7775 34.225 58.738C32.5184 58.5246 30.7261 58.5324 28.8739 58.7192C27.0167 58.9065 25.2511 59.2577 23.6139 59.8091C21.98 60.3575 20.375 61.1577 19.067 62.373C17.6074 63.7291 16.6219 65.6264 16.7069 67.867L16.7379 68.3203L16.7982 68.7725C17.1653 70.998 18.5221 72.6448 20.2064 73.6721L20.5047 73.8462C21.9513 74.6556 23.5743 75.0765 25.1757 75.2773C26.8878 75.4898 28.6858 75.4828 30.5455 75.2953C32.4007 75.1082 34.1579 74.7601 35.7867 74.2141L36.3777 74.0014C37.1309 74.2957 37.9876 74.4241 38.9254 74.3295L40.9513 74.1252C41.9673 74.0227 42.9337 73.6339 43.7376 73.004L44.4198 72.469L45.0421 72.7999C45.984 73.3003 47.0539 73.5098 48.1151 73.4028L56.2273 72.5847C57.4815 72.4582 58.6346 71.8981 59.5045 71.0263L61.1776 70.8576C62.2034 71.5377 63.4448 71.8569 64.7 71.7303L73.2105 70.8721C74.285 70.7637 75.3029 70.336 76.1312 69.6431L76.7041 69.1623C77.7347 69.9026 79.0282 70.2853 80.3899 70.1481L83.8149 69.8027C84.6706 69.7164 85.4546 69.4208 86.1223 68.9732C86.3348 69.008 86.5533 69.0397 86.7657 69.0664C88.4775 69.2789 90.2749 69.2719 92.1335 69.0845C93.9872 68.8976 95.7477 68.5487 97.3765 68.0022L97.387 67.9992C99.0154 67.4485 100.614 66.6494 101.918 65.4448C103.472 64.0126 104.519 61.9527 104.271 59.4931C104.025 57.0469 102.601 55.2308 100.789 54.1318C100.786 54.1297 100.782 54.1275 100.778 54.1254L100.767 54.1193C99.2498 53.1993 97.519 52.7379 95.8183 52.5274C94.1121 52.3138 92.3148 52.3216 90.4619 52.5084C88.6032 52.6959 86.8406 53.0468 85.2039 53.5981C84.9986 53.6671 84.7938 53.7399 84.5899 53.8171C84.0248 53.5854 83.412 53.4537 82.7746 53.4417C81.5235 51.9316 79.709 51.4924 78.2807 51.6364L77.38 51.7272C76.6791 51.7979 76.1119 51.9957 75.7341 52.1563C75.3548 52.3174 75.046 52.494 74.8596 52.6047Z" fill="#69E364"/>
<path d="M71.1075 57.7255C71.0502 57.697 70.9965 57.6678 70.9464 57.6376C70.5209 57.3816 70.8237 56.9074 71.3179 56.8575L72.1965 56.7689C72.6438 56.7238 73.1848 57.0353 73.6217 57.1414C74.01 57.2357 74.5023 57.2528 75.0973 57.1928C75.6923 57.1328 76.1545 57.0195 76.509 56.8503C76.9158 56.6591 77.3838 56.2458 77.8311 56.2007L78.7326 56.1098C79.2267 56.06 79.6151 56.4635 79.2476 56.7974C79.2027 56.8382 79.1539 56.8789 79.1011 56.9194C78.7274 57.2111 78.1994 57.4665 77.5185 57.6855C76.8444 57.9003 76.0692 58.0523 75.1929 58.1407C74.3166 58.2291 73.5219 58.2353 72.8113 58.1602C72.1075 58.0808 71.5392 57.9359 71.1075 57.7255Z" fill="#1B451E"/>
<path d="M98.4483 57.9703C97.6397 57.4771 96.5794 57.1499 95.2663 56.9883C93.954 56.823 92.5027 56.821 90.9136 56.9813C89.3245 57.1415 87.9005 57.4334 86.6392 57.8583C85.3848 58.2788 84.4112 58.8111 83.7173 59.4559C83.5832 59.5803 83.3459 59.5053 83.3275 59.3233L83.2392 58.447C83.2076 58.1344 82.9287 57.9066 82.6161 57.9381L78.4814 58.3551C78.3017 58.3732 78.1317 58.445 77.9934 58.5611L74.2371 61.7148C74.0694 61.8585 73.8524 62.0543 73.5847 62.302C73.4334 62.4397 73.2832 62.5777 73.1348 62.7159C72.9142 62.9212 72.5456 62.7743 72.5226 62.4737C72.5059 62.1516 72.4883 61.8927 72.4686 61.6976L72.2857 59.8836C72.2358 59.3895 71.7949 59.0294 71.3008 59.0792L68.2062 59.3913C67.7121 59.4411 67.3519 59.882 67.4018 60.3761L67.6478 62.8156C67.733 63.6608 66.7069 64.1419 66.1117 63.536L62.8983 60.2648C62.7072 60.0702 62.438 59.9729 62.1666 60.0003L56.4552 60.5763C56.1823 60.6038 55.9368 60.7544 55.7887 60.9852L51.9563 66.9564C51.7096 67.3407 51.214 67.4791 50.8038 67.2781L47.7769 65.7945C47.1851 65.5044 47.0961 64.6972 47.6107 64.2852L49.2605 62.9642C49.9598 62.4042 49.4996 61.2777 48.6083 61.3676L46.5468 61.5755C46.3679 61.5935 46.1985 61.6648 46.0605 61.7801L44.9485 62.7091C44.7224 62.8987 44.4964 63.0903 44.2706 63.2834C44.2303 63.3183 44.1902 63.3532 44.1502 63.3881C43.8572 63.6439 43.4345 63.6873 43.0981 63.4921C42.8042 63.3216 42.5079 63.1519 42.2019 62.9861L40.9532 62.2992C40.7935 62.2113 40.6109 62.1741 40.4296 62.1923L38.2407 62.4131C37.3485 62.5031 37.1233 63.7006 37.9219 64.1085L39.8788 65.1082C40.472 65.4112 40.5413 66.2315 40.0073 66.6297L37.8467 68.2411C37.1156 68.7863 37.567 69.9481 38.4745 69.8566L40.5006 69.6522C40.67 69.6352 40.831 69.5704 40.965 69.4654L42.6392 68.1537C42.8308 68.0071 43.0129 67.862 43.189 67.7175C43.2773 67.6443 43.3653 67.571 43.4532 67.4978C43.7376 67.2607 44.1393 67.221 44.4653 67.3966C44.565 67.4503 44.6641 67.5042 44.7613 67.5589C44.9614 67.6655 45.1628 67.7719 45.363 67.879L47.1519 68.8293C47.3089 68.9127 47.4871 68.9477 47.664 68.9299L55.777 68.1117C56.0672 68.0824 56.3252 67.9142 56.469 67.6604L56.7485 67.1673C56.8923 66.9135 57.1503 66.7452 57.4406 66.7159L62.3511 66.2208C62.6466 66.191 62.9377 66.309 63.1291 66.5362L63.4708 66.9419C63.6621 67.1691 63.9533 67.2872 64.2488 67.2574L72.7598 66.3991C72.9389 66.3811 73.1084 66.3097 73.2465 66.1942L76.7412 63.2712C76.9677 63.0846 77.2401 62.8483 77.5598 62.5626C77.7065 62.429 77.8533 62.2952 77.9984 62.1613C78.2702 61.9105 78.6831 62.0778 78.7101 62.4466L78.9546 64.8706C79.0044 65.3648 79.4454 65.7249 79.9395 65.6751L83.3646 65.3297C83.6755 65.2983 83.9021 65.0209 83.8707 64.71L83.7821 63.8307C83.7638 63.6495 83.982 63.5282 84.1375 63.623C84.9458 64.1126 86.0061 64.4403 87.3196 64.605C88.6402 64.7689 90.0951 64.771 91.683 64.6109C93.2709 64.4508 94.6939 64.1605 95.9471 63.7401C97.2012 63.316 98.1748 62.7837 98.869 62.1425C99.5714 61.497 99.8812 60.7642 99.7984 59.9438C99.7157 59.1234 99.2654 58.4627 98.4483 57.9703ZM59.6725 64.8872C58.9465 64.9605 58.44 64.1839 58.7876 63.5423C58.807 63.5065 58.8264 63.4707 58.8457 63.4349C59.161 62.8503 59.9832 62.7725 60.4028 63.2875C60.4284 63.3189 60.454 63.3503 60.4797 63.3816C60.9385 63.9424 60.5953 64.7942 59.8744 64.8669L59.6725 64.8872ZM94.5667 61.5742C94.3229 61.9025 93.9436 62.1748 93.4274 62.3906C92.9121 62.6026 92.2699 62.748 91.503 62.8253C90.7361 62.9026 90.0909 62.8871 89.5425 62.7823C88.9936 62.674 88.564 62.4833 88.2511 62.2111C87.9476 61.9343 87.7739 61.5844 87.7312 61.1607C87.6884 60.737 87.7883 60.3549 88.0305 60.0231C88.2823 59.6903 88.6652 59.4177 89.1818 59.2055C89.6979 58.9898 90.3352 58.8434 91.0937 58.7669C91.8522 58.6904 92.5191 58.7053 93.0667 58.8137C93.6152 58.9185 94.0413 59.1096 94.346 59.3862C94.6508 59.6629 94.8246 60.0143 94.8677 60.441C94.9107 60.8677 94.81 61.2422 94.5667 61.5742Z" fill="#1B451E"/>
<path d="M37.2802 68.3533C37.9813 67.7079 38.2911 66.9752 38.2083 66.1547C38.1256 65.3343 37.6753 64.6736 36.8594 64.1812C36.0508 63.688 34.9905 63.3607 33.6774 63.1991C32.3639 63.0339 30.9126 63.032 29.3247 63.1921C27.7368 63.3522 26.3104 63.6444 25.0491 64.0692C23.7947 64.4898 22.8211 65.0221 22.1272 65.6668C21.4333 66.3115 21.1285 67.0453 21.2115 67.8688C21.2946 68.6922 21.7388 69.3407 22.5474 69.8339C23.3557 70.3235 24.4161 70.6513 25.7295 70.8159C27.0501 70.9799 28.505 70.982 30.0941 70.8217C31.6832 70.6615 33.1038 70.3715 34.3582 69.9509C35.6123 69.5268 36.5859 68.9945 37.2802 68.3533ZM32.9778 67.785C32.734 68.1134 32.3547 68.3856 31.8386 68.6014C31.322 68.8136 30.681 68.9588 29.9141 69.0361C29.1472 69.1135 28.5008 69.0981 27.9536 68.9932C27.4047 68.8848 26.9739 68.6942 26.6623 68.4219C26.3575 68.1452 26.1838 67.7953 26.1411 67.3716C26.0983 66.948 26.1982 66.5659 26.4416 66.2339C26.6922 65.9013 27.0763 65.6285 27.5929 65.4163C28.1078 65.2007 28.7451 65.0543 29.5048 64.9777C30.2645 64.9011 30.929 64.9162 31.4779 65.0246C32.0263 65.1294 32.4524 65.3204 32.7571 65.5971C33.0619 65.8737 33.2358 66.2251 33.2788 66.6519C33.3218 67.0786 33.2212 67.4531 32.9778 67.785Z" fill="#1B451E"/>
</svg>
