<svg width="164" height="51" viewBox="0 0 164 51" fill="none" xmlns="http://www.w3.org/2000/svg">
<g clip-path="url(#clip0_2872_428)">
<path d="M5.86313 0.338379L9.80544 1.01524L5.91351 23.6836L1.97119 23.0067L5.86313 0.338379Z" fill="#E2E2E2"/>
<path d="M15.7189 2.03052L23.6036 3.38424L19.7116 26.0526L11.827 24.6988L15.7189 2.03052Z" fill="#E2E2E2"/>
<path d="M33.4593 5.07639L45.2863 7.10696L41.3944 29.7753L29.5674 27.7447L33.4593 5.07639Z" fill="#E2E2E2"/>
<path d="M61.0556 9.81439L80.7672 13.1987L76.8752 35.867L57.1636 32.4827L61.0556 9.81439Z" fill="#E2E2E2"/>
<path d="M104.421 17.2598L132.017 21.9978L128.125 44.6662L100.529 39.9282L104.421 17.2598Z" fill="#E2E2E2"/>
<path d="M3.89194 -6.10744e-05L5.86309 0.338368L1.97116 23.0067L2.28632e-07 22.6683L3.89194 -6.10744e-05Z" fill="white"/>
<path d="M9.80541 1.01523L15.7189 2.03051L11.827 24.6988L5.91348 23.6835L9.80541 1.01523Z" fill="white"/>
<path d="M23.6035 3.38423L33.4593 5.07638L29.5674 27.7447L19.7116 26.0526L23.6035 3.38423Z" fill="white"/>
<path d="M45.2863 7.10695L61.0555 9.81438L57.1636 32.4827L41.3943 29.7753L45.2863 7.10695Z" fill="white"/>
<path d="M80.7671 13.1987L104.421 17.2598L100.529 39.9281L76.8752 35.867L80.7671 13.1987Z" fill="white"/>
<path d="M132.017 21.9978L163.556 27.4127L159.664 50.081L128.125 44.6662L132.017 21.9978Z" fill="white"/>
<path d="M9.21251 23.3047C8.97221 23.2635 8.74446 23.1827 8.52927 23.0626C8.31447 22.9401 8.13212 22.7701 7.98221 22.5525C7.83269 22.3326 7.73083 22.0573 7.67663 21.7267C7.62243 21.396 7.63485 21.0005 7.71389 20.5401C7.78754 20.1111 7.89912 19.7373 8.04865 19.4184C8.19857 19.0974 8.37891 18.8347 8.58969 18.6305C8.80272 18.4266 9.03979 18.2846 9.30091 18.2046C9.56466 18.1228 9.84701 18.1077 10.1479 18.1593C10.4646 18.2137 10.7334 18.3246 10.9544 18.492C11.1779 18.6575 11.3467 18.8599 11.4605 19.0991C11.5743 19.3383 11.6259 19.5968 11.6152 19.8747L10.7225 19.7214C10.7107 19.5206 10.6439 19.3508 10.5221 19.2119C10.4003 19.0731 10.2304 18.985 10.0126 18.9476C9.66675 18.8882 9.37367 18.9928 9.13336 19.2613C8.89529 19.5303 8.73076 19.9297 8.63976 20.4597L8.67345 20.4655C8.77897 20.3357 8.90349 20.2299 9.04699 20.1482C9.19312 20.0646 9.35054 20.0096 9.51924 19.983C9.69058 19.9547 9.86608 19.9559 10.0457 19.9867C10.3399 20.0372 10.5917 20.1533 10.8009 20.3349C11.0106 20.5142 11.1627 20.7392 11.2573 21.0097C11.3523 21.278 11.3726 21.5705 11.3182 21.8872C11.2615 22.2173 11.1356 22.4997 10.9404 22.7344C10.7452 22.9691 10.4988 23.1383 10.2012 23.2421C9.90365 23.3459 9.57408 23.3668 9.21251 23.3047ZM9.33185 22.5692C9.51152 22.6 9.67829 22.5847 9.83218 22.5233C9.98871 22.46 10.1199 22.3623 10.2258 22.2302C10.3344 22.0963 10.4043 21.9383 10.4355 21.7564C10.4663 21.5768 10.4537 21.4081 10.3975 21.2505C10.344 21.091 10.2549 20.9567 10.1303 20.8474C10.008 20.7386 9.85698 20.6687 9.67731 20.6379C9.50214 20.6078 9.33517 20.6242 9.1764 20.6871C9.01988 20.7504 8.88754 20.8479 8.77939 20.9796C8.67123 21.1114 8.60211 21.2648 8.57204 21.44C8.54196 21.6151 8.55463 21.7838 8.61003 21.9459C8.66581 22.1057 8.75561 22.2425 8.87943 22.3563C9.00363 22.4678 9.15444 22.5387 9.33185 22.5692Z" fill="#262626"/>
<path d="M24.0187 20.6102L23.1569 25.6295L22.2541 25.4745L22.9638 21.3411L22.9335 21.3359L21.6322 21.8859L21.7756 21.0504L23.1597 20.4627L24.0187 20.6102Z" fill="#262626"/>
<path d="M25.682 26.1324C25.2755 26.0626 24.9447 25.9018 24.6897 25.6499C24.4374 25.3962 24.2676 25.0653 24.1804 24.6573C24.0937 24.2471 24.0969 23.7702 24.1902 23.2267C24.2835 22.6832 24.4395 22.2326 24.6582 21.8748C24.8772 21.5147 25.1478 21.2583 25.47 21.1055C25.7948 20.9509 26.1604 20.9085 26.5669 20.9783C26.9711 21.0477 27.3006 21.2095 27.5552 21.4636C27.8098 21.7177 27.9805 22.0498 28.0673 22.4601C28.1541 22.8703 28.1508 23.3472 28.0575 23.8907C27.9642 24.4342 27.8082 24.8848 27.5895 25.2426C27.3713 25.5982 27.1009 25.8535 26.7783 26.0085C26.4562 26.1613 26.0907 26.2025 25.682 26.1324ZM25.8127 25.3711C26.0305 25.4085 26.2268 25.3693 26.4016 25.2537C26.5786 25.1384 26.7295 24.9528 26.8544 24.6968C26.9819 24.4389 27.0786 24.118 27.1446 23.7339C27.2109 23.3477 27.2269 23.0117 27.1928 22.7261C27.1608 22.4409 27.0806 22.2144 26.9522 22.0467C26.8264 21.8771 26.6546 21.7736 26.4368 21.7362C26.1089 21.68 25.8288 21.796 25.5967 22.0845C25.3671 22.371 25.2026 22.804 25.1031 23.3835C25.0372 23.7675 25.0202 24.1021 25.0522 24.3874C25.0845 24.6703 25.1649 24.8957 25.2933 25.0634C25.4217 25.2311 25.5948 25.3337 25.8127 25.3711Z" fill="#262626"/>
<path d="M45.7014 24.3328L44.8396 29.3522L43.9368 29.1971L44.6465 25.0638L44.6161 25.0586L43.3149 25.6085L43.4583 24.7731L44.8424 24.1853L45.7014 24.3328Z" fill="#262626"/>
<path d="M47.3478 29.8521C47.1075 29.8109 46.8798 29.7302 46.6646 29.61C46.4498 29.4876 46.2674 29.3175 46.1175 29.0999C45.968 28.88 45.8661 28.6048 45.8119 28.2741C45.7577 27.9434 45.7701 27.5479 45.8492 27.0875C45.9228 26.6586 46.0344 26.2847 46.184 25.9659C46.3339 25.6448 46.5142 25.3821 46.725 25.1779C46.938 24.974 47.1751 24.8321 47.4362 24.7521C47.7 24.6702 47.9823 24.6551 48.2832 24.7067C48.5999 24.7611 48.8687 24.872 49.0897 25.0394C49.3132 25.2049 49.482 25.4073 49.5958 25.6465C49.7096 25.8857 49.7612 26.1442 49.7505 26.4221L48.8578 26.2689C48.846 26.068 48.7792 25.8982 48.6574 25.7594C48.5356 25.6205 48.3657 25.5324 48.1479 25.495C47.8021 25.4356 47.509 25.5402 47.2687 25.8088C47.0306 26.0777 46.8661 26.4772 46.7751 27.0072L46.8088 27.013C46.9143 26.8831 47.0388 26.7773 47.1823 26.6956C47.3284 26.612 47.4858 26.557 47.6545 26.5305C47.8259 26.5021 48.0014 26.5033 48.181 26.5342C48.4752 26.5847 48.727 26.7007 48.9362 26.8823C49.1459 27.0616 49.298 27.2866 49.3926 27.5571C49.4876 27.8255 49.5079 28.1179 49.4535 28.4346C49.3968 28.7647 49.2709 29.0471 49.0757 29.2818C48.8805 29.5165 48.6341 29.6857 48.3365 29.7895C48.039 29.8934 47.7094 29.9142 47.3478 29.8521ZM47.4672 29.1166C47.6468 29.1475 47.8136 29.1322 47.9675 29.0707C48.124 29.0074 48.2552 28.9097 48.3611 28.7777C48.4697 28.6437 48.5396 28.4858 48.5708 28.3039C48.6016 28.1242 48.589 27.9556 48.5328 27.7979C48.4793 27.6385 48.3902 27.5041 48.2656 27.3949C48.1433 27.286 47.9923 27.2162 47.8126 27.1853C47.6374 27.1552 47.4705 27.1716 47.3117 27.2346C47.1552 27.2979 47.0228 27.3954 46.9147 27.5271C46.8065 27.6588 46.7374 27.8122 46.7073 27.9874C46.6773 28.1626 46.6899 28.3312 46.7453 28.4933C46.8011 28.6532 46.8909 28.7899 47.0147 28.9037C47.1389 29.0152 47.2897 29.0862 47.4672 29.1166Z" fill="#262626"/>
<path d="M78.3431 35.1044L78.4553 34.4509L80.4941 33.0392C80.687 32.8989 80.8496 32.7731 80.982 32.6617C81.1167 32.5508 81.2225 32.4395 81.2994 32.3278C81.3768 32.2139 81.4274 32.0874 81.4513 31.9481C81.4783 31.7909 81.4657 31.6489 81.4135 31.522C81.3613 31.3952 81.2775 31.2906 81.1622 31.2084C81.0491 31.1265 80.9128 31.0719 80.7533 31.0445C80.5872 31.016 80.4365 31.0248 80.3014 31.071C80.1663 31.1172 80.0534 31.196 79.9626 31.3076C79.874 31.4195 79.815 31.5609 79.7857 31.7315L78.9233 31.5835C78.9777 31.2668 79.0968 31.0041 79.2806 30.7952C79.4671 30.5844 79.6995 30.4359 79.9779 30.3496C80.2563 30.2633 80.5606 30.2485 80.8907 30.3052C81.2298 30.3634 81.5154 30.4772 81.7476 30.6465C81.9798 30.8158 82.1478 31.0227 82.2514 31.2671C82.3555 31.5092 82.3835 31.7706 82.3353 32.0514C82.3029 32.24 82.2351 32.4191 82.132 32.5887C82.0293 32.756 81.8679 32.9352 81.6479 33.1263C81.4304 33.3156 81.1321 33.5383 80.7528 33.7946L79.7395 34.5257L79.7331 34.5628L81.916 34.9376L81.7859 35.6955L78.3431 35.1044Z" fill="#262626"/>
<path d="M82.343 34.834L82.4674 34.1097L85.1776 31.1105L85.7772 31.2135L85.6002 32.2443L85.233 32.1813L83.4081 34.2054L83.4012 34.2458L86.3757 34.7565L86.2473 35.5043L82.343 34.834ZM84.5752 36.1744L84.7724 35.0257L84.842 34.7012L85.4504 31.1574L86.3061 31.3043L85.4443 36.3236L84.5752 36.1744Z" fill="#262626"/>
<path d="M131.384 44.2804C131.031 44.2199 130.728 44.1066 130.475 43.9405C130.222 43.7722 130.034 43.5665 129.911 43.3236C129.791 43.081 129.752 42.8176 129.794 42.5335L130.71 42.6908C130.693 42.829 130.717 42.9555 130.78 43.0704C130.846 43.1835 130.943 43.2799 131.07 43.3596C131.198 43.437 131.346 43.4901 131.515 43.5191C131.694 43.5499 131.858 43.5457 132.006 43.5063C132.156 43.4651 132.28 43.3962 132.378 43.2996C132.476 43.2008 132.537 43.0785 132.562 42.9325C132.588 42.7798 132.571 42.6381 132.51 42.5074C132.452 42.3771 132.353 42.2665 132.214 42.1756C132.074 42.0846 131.899 42.021 131.688 41.9848L131.24 41.9078L131.36 41.2071L131.808 41.2841C131.979 41.3134 132.136 41.3091 132.279 41.2712C132.422 41.2333 132.539 41.1668 132.632 41.0718C132.725 40.9744 132.784 40.8528 132.809 40.7068C132.833 40.5653 132.822 40.4362 132.775 40.3195C132.73 40.2031 132.654 40.1057 132.548 40.0273C132.441 39.9489 132.309 39.8961 132.152 39.8692C131.999 39.8429 131.852 39.8465 131.709 39.8799C131.57 39.9115 131.451 39.9708 131.353 40.058C131.257 40.1456 131.195 40.2597 131.166 40.4004L130.293 40.2506C130.346 39.9707 130.468 39.7373 130.66 39.5506C130.854 39.3642 131.092 39.2341 131.375 39.1602C131.659 39.084 131.963 39.0739 132.289 39.1298C132.622 39.1868 132.9 39.2995 133.126 39.4676C133.354 39.634 133.517 39.8342 133.616 40.0685C133.716 40.3031 133.745 40.5473 133.701 40.8011C133.653 41.084 133.529 41.3067 133.33 41.4691C133.131 41.6314 132.891 41.7196 132.608 41.7336L132.602 41.7706C132.944 41.8802 133.19 42.0565 133.34 42.2996C133.493 42.5431 133.542 42.8221 133.488 43.1365C133.44 43.4172 133.317 43.655 133.119 43.85C132.922 44.0427 132.673 44.178 132.373 44.256C132.073 44.334 131.743 44.3421 131.384 44.2804Z" fill="#262626"/>
<path d="M133.831 44.6312L133.943 43.9777L135.982 42.566C136.175 42.4257 136.338 42.2998 136.47 42.1885C136.605 42.0775 136.71 41.9662 136.787 41.8546C136.865 41.7407 136.915 41.6141 136.939 41.4749C136.966 41.3177 136.954 41.1757 136.902 41.0488C136.849 40.9219 136.766 40.8174 136.65 40.7351C136.537 40.6533 136.401 40.5987 136.241 40.5713C136.075 40.5428 135.925 40.5516 135.789 40.5977C135.654 40.6439 135.541 40.7228 135.451 40.8343C135.362 40.9463 135.303 41.0876 135.274 41.2583L134.411 41.1102C134.466 40.7936 134.585 40.5308 134.769 40.3219C134.955 40.1112 135.188 39.9626 135.466 39.8763C135.744 39.79 136.049 39.7752 136.379 39.8319C136.718 39.8901 137.003 40.0039 137.236 40.1733C137.468 40.3426 137.636 40.5494 137.739 40.7938C137.844 41.036 137.871 41.2974 137.823 41.5781C137.791 41.7668 137.723 41.9459 137.62 42.1154C137.517 42.2828 137.356 42.462 137.136 42.6531C136.918 42.8423 136.62 43.0651 136.241 43.3213L135.228 44.0525L135.221 44.0895L137.404 44.4643L137.274 45.2223L133.831 44.6312Z" fill="#262626"/>
<path d="M154.723 48.277C154.57 48.2508 154.45 48.177 154.362 48.0555C154.277 47.9323 154.247 47.7954 154.273 47.6449C154.299 47.4944 154.372 47.3764 154.493 47.2909C154.617 47.2034 154.755 47.1728 154.908 47.199C155.06 47.2253 155.179 47.3 155.265 47.4233C155.352 47.5447 155.383 47.6807 155.358 47.8311C155.332 47.9816 155.257 48.1006 155.133 48.188C155.012 48.2736 154.875 48.3032 154.723 48.277ZM156.498 48.5818C156.345 48.5556 156.225 48.4818 156.137 48.3603C156.052 48.2371 156.022 48.1002 156.048 47.9497C156.074 47.7992 156.147 47.6812 156.268 47.5957C156.392 47.5082 156.53 47.4776 156.683 47.5038C156.836 47.5301 156.955 47.6048 157.04 47.7281C157.128 47.8495 157.159 47.9855 157.133 48.1359C157.107 48.2864 157.032 48.4054 156.909 48.4928C156.788 48.5784 156.651 48.608 156.498 48.5818ZM158.283 48.8884C158.131 48.8621 158.01 48.7883 157.923 48.6669C157.837 48.5436 157.808 48.4067 157.833 48.2562C157.859 48.1058 157.933 47.9878 158.054 47.9022C158.177 47.8148 158.316 47.7842 158.468 47.8104C158.621 47.8366 158.74 47.9114 158.825 48.0346C158.913 48.1561 158.944 48.292 158.918 48.4425C158.892 48.593 158.818 48.7119 158.694 48.7993C158.573 48.8849 158.436 48.9146 158.283 48.8884Z" fill="#262626"/>
</g>
<defs>
<clipPath id="clip0_2872_428">
<rect width="162" height="23" fill="white" transform="translate(3.89209) rotate(9.74216)"/>
</clipPath>
</defs>
</svg>
