<svg width="151" height="164" viewBox="0 0 151 164" fill="none" xmlns="http://www.w3.org/2000/svg">
<path d="M150.86 66.2387C150.86 74.4083 144.238 81.0306 136.068 81.0307C132.696 81.0307 129.588 79.9014 127.1 78.0014C124.611 79.9015 121.503 81.0307 118.131 81.0307C109.961 81.0307 103.338 74.4083 103.338 66.2387V20.8207C103.338 9.39386 112.601 0.130456 124.028 0.13031H130.17C141.597 0.13031 150.86 9.39378 150.86 20.8207V66.2387Z" fill="#EE2D24"/>
<path d="M99.5634 66.2377C99.5632 74.4079 92.9396 81.0307 84.7694 81.0307C81.4987 81.0306 78.4764 79.9686 76.0272 78.1713C73.4695 79.9856 70.3615 81.0307 67.0643 81.0307C58.5058 81.0307 51.5675 74.0931 51.5673 65.5346V14.9233C51.5673 6.75351 58.1905 0.13031 66.3602 0.13031L66.7421 0.135193C69.8667 0.214402 72.7496 1.26385 75.1034 2.99164C77.6613 1.17639 80.7701 0.13031 84.0683 0.13031L84.4686 0.135193C92.8413 0.347561 99.5632 7.20162 99.5634 15.6254V66.2377Z" fill="#EE2D24"/>
<path d="M47.6792 66.2387C47.679 74.4083 41.0558 81.0306 32.8862 81.0307C29.5133 81.0307 26.4049 79.9009 23.9165 78.0004C21.4281 79.901 18.3197 81.0307 14.9468 81.0307C6.77714 81.0307 0.153988 74.4083 0.153809 66.2387V20.8207C0.153951 9.39385 9.41737 0.130457 20.8442 0.13031H26.9878C38.4148 0.13031 47.6791 9.39378 47.6792 20.8207V66.2387Z" fill="#EE2D24"/>
<path d="M150.858 148.77C150.858 156.939 144.236 163.562 136.066 163.562C132.694 163.562 129.586 162.433 127.098 160.533C124.61 162.432 121.502 163.562 118.13 163.562C109.961 163.562 103.338 156.939 103.338 148.77V103.356C103.338 91.9299 112.6 82.6671 124.025 82.6653L130.165 82.6643L130.699 82.6712C141.881 82.9529 150.858 92.1051 150.858 103.355V148.77Z" fill="#EE2D24"/>
<path d="M85.3377 82.6692C94.8179 82.9451 101.75 91.8418 99.6053 101.158L90.1463 142.243L90.1444 142.253C89.3548 145.668 88.374 148.876 87.1082 151.676L87.0985 151.7L87.0877 151.723C85.8176 154.497 83.9512 157.499 81.0897 159.809L81.0907 159.81C81.0827 159.816 81.0742 159.822 81.0662 159.828C81.0572 159.836 81.0489 159.844 81.0399 159.851L81.0389 159.85C78.0621 162.247 74.4457 163.558 70.5516 163.558C62.4367 163.558 55.8582 156.979 55.8582 148.865V141.38C55.8582 137.28 57.717 133.614 60.6375 131.178L53.0731 101.656C50.607 92.0306 57.8775 82.6625 67.8133 82.6624L68.4764 82.677C71.3689 82.802 74.0812 83.7432 76.3641 85.2952C78.8066 83.6258 81.7507 82.6624 84.8846 82.6624L85.3377 82.6692Z" fill="#EE2D24"/>
<path d="M47.6763 148.766C47.6763 156.936 41.0538 163.558 32.8843 163.558C29.5116 163.558 26.4028 162.429 23.9146 160.529C21.4264 162.429 18.3181 163.558 14.9458 163.558C6.77644 163.558 0.153809 156.935 0.153809 148.766V103.353C0.153952 91.9259 9.41737 82.6625 20.8442 82.6624H26.9858C38.4128 82.6624 47.6761 91.9259 47.6763 103.353V148.766Z" fill="#EE2D24"/>
<path d="M130.17 10.8325C135.687 10.8325 140.159 15.3045 140.159 20.821V66.2384C140.159 68.4976 138.327 70.329 136.068 70.329C133.809 70.329 131.978 68.4976 131.978 66.2384V29.768C131.978 27.0739 129.794 24.8899 127.099 24.8899C124.405 24.8899 122.221 27.0739 122.221 29.768V66.2384C122.221 68.4976 120.39 70.329 118.131 70.329C115.871 70.329 114.04 68.4976 114.04 66.2384V20.821C114.04 15.3045 118.512 10.8325 124.029 10.8325H130.17Z" fill="#E933F6"/>
<path d="M84.0682 10.8325C86.7155 10.8325 88.8615 12.9785 88.8615 15.6257V66.2374C88.8615 68.4971 87.0296 70.329 84.7699 70.329C82.5101 70.329 80.6782 68.4971 80.6782 66.2374V43.6167C80.6856 42.5002 79.1263 42.2833 78.8237 43.358C78.7994 43.4443 78.7751 43.5305 78.7508 43.6167C78.1747 45.6407 77.6833 47.3048 77.2764 48.6091L71.6478 66.9415C71.0297 68.9548 69.1702 70.329 67.0642 70.329C64.4161 70.329 62.2694 68.1823 62.2694 65.5342V14.9231C62.2694 12.6639 64.1009 10.8325 66.3601 10.8325C68.6192 10.8325 70.4507 12.6639 70.4507 14.9231V32.6341C70.4507 34.4556 70.4422 36.2778 70.4285 38.0999C70.4208 39.1155 71.9265 39.324 72.2009 38.3462C72.6863 36.588 73.0791 35.206 73.3812 34.1919L79.4843 14.2246C80.1004 12.2091 81.9607 10.8325 84.0682 10.8325Z" fill="#E933F6"/>
<path d="M26.9882 10.8325C32.5047 10.8325 36.9767 15.3045 36.9767 20.821V66.2384C36.9767 68.4976 35.1453 70.329 32.8861 70.329C30.6269 70.329 28.7955 68.4976 28.7955 66.2384V29.769C28.7955 27.0743 26.611 24.8899 23.9164 24.8899C21.2217 24.8899 19.0372 27.0743 19.0372 29.769V66.2384C19.0372 68.4976 17.2058 70.329 14.9466 70.329C12.6874 70.329 10.856 68.4976 10.856 66.2384V20.821C10.856 15.3045 15.328 10.8325 20.8445 10.8325H26.9882Z" fill="#E933F6"/>
<path d="M130.167 93.3661C135.684 93.3652 140.157 97.8375 140.157 103.355V148.77C140.157 151.029 138.325 152.86 136.066 152.86C133.807 152.86 131.976 151.029 131.976 148.77V112.302C131.976 109.609 129.792 107.425 127.098 107.425C124.404 107.425 122.221 109.609 122.221 112.302V148.77C122.221 151.029 120.389 152.86 118.13 152.86C115.871 152.86 114.04 151.029 114.04 148.77V103.356C114.04 97.8396 118.511 93.3678 124.027 93.367L130.167 93.3661Z" fill="#E933F6"/>
<path d="M84.8844 93.3645C87.7157 93.3645 89.8114 95.9976 89.1763 98.7567L79.7176 139.843C79.0228 142.848 78.2354 145.325 77.3573 147.267C76.4792 149.185 75.4763 150.595 74.3485 151.499C73.2348 152.402 71.97 152.856 70.5522 152.856C68.3477 152.856 66.5606 151.069 66.5606 148.865V141.38C66.5606 139.957 67.7139 138.804 69.1364 138.804C70.1857 138.804 70.8865 138.538 71.241 138.003C71.6075 137.471 71.8895 136.686 72.0868 135.648C72.2938 134.544 72.2565 133.408 71.9777 132.319L63.4407 98.9991C62.7091 96.1437 64.866 93.3645 67.8136 93.3645C69.9219 93.3645 71.7494 94.8238 72.2159 96.8797L74.1914 105.585C74.6627 107.633 75.1218 109.694 75.5689 111.771C75.8085 112.879 77.4056 112.857 77.6211 111.744C78.0196 109.687 78.4244 107.634 78.8335 105.585L80.5655 96.9067C80.9765 94.8473 82.7844 93.3645 84.8844 93.3645Z" fill="#E933F6"/>
<path d="M26.986 93.3645C32.5026 93.3645 36.9746 97.8366 36.9746 103.353V148.766C36.9746 151.025 35.1433 152.856 32.8843 152.856C30.6253 152.856 28.794 151.025 28.794 148.766V112.3C28.794 109.605 26.6097 107.421 23.9153 107.421C21.2208 107.421 19.0365 109.605 19.0365 112.3V148.766C19.0365 151.025 17.2053 152.856 14.9462 152.856C12.6872 152.856 10.856 151.025 10.856 148.766V103.353C10.856 97.8366 15.328 93.3645 20.8445 93.3645H26.986Z" fill="#E933F6"/>
<path fill-rule="evenodd" clip-rule="evenodd" d="M118.105 7.05622C119.928 6.27078 121.935 5.8382 124.029 5.8382H125.617C126.133 5.8382 126.631 5.91651 127.1 6.0619C127.568 5.91651 128.066 5.8382 128.582 5.8382H130.17C132.265 5.8382 134.271 6.27078 136.094 7.05622C138.061 7.90329 139.205 9.8634 139.108 11.8831C141.128 11.7862 143.088 12.9307 143.935 14.8972C144.721 16.7206 145.153 18.7268 145.153 20.821V32.5669C145.153 35.3252 142.917 37.5612 140.159 37.5612C138.947 37.5612 137.837 37.1298 136.972 36.4123V39.2C136.972 41.9583 134.736 44.1943 131.978 44.1943C129.589 44.1943 127.592 42.5169 127.1 40.2757C126.608 42.5169 124.61 44.1943 122.221 44.1943C119.463 44.1943 117.227 41.9583 117.227 39.2V36.4123C116.362 37.1298 115.252 37.5612 114.04 37.5612C111.282 37.5612 109.046 35.3251 109.046 32.5669V20.821C109.046 18.7268 109.478 16.7206 110.264 14.8972C111.111 12.9307 113.071 11.7862 115.091 11.8831C114.994 9.8634 116.138 7.90328 118.105 7.05622ZM119.84 16.6327C119.876 17.3694 119.749 18.1256 119.438 18.8487C119.18 19.4473 119.034 20.1107 119.034 20.821V24.3586C119.486 23.8942 120.02 23.5268 120.602 23.2703C121.093 22.1565 121.99 21.2184 123.196 20.6989C124.4 20.1803 125.723 19.8956 127.1 19.8956C128.476 19.8956 129.8 20.1803 131.003 20.6989C132.209 21.2184 133.106 22.1565 133.597 23.2703C134.179 23.5268 134.713 23.8942 135.165 24.3586V20.821C135.165 20.1107 135.019 19.4473 134.762 18.8487C134.45 18.1256 134.323 17.3694 134.359 16.6327C133.622 16.6687 132.866 16.5414 132.143 16.2299C131.544 15.9721 130.881 15.8267 130.17 15.8267H128.582C128.066 15.8267 127.568 15.7484 127.1 15.603C126.631 15.7484 126.133 15.8267 125.617 15.8267H124.029C123.318 15.8267 122.655 15.9721 122.056 16.2299C121.333 16.5414 120.577 16.6687 119.84 16.6327ZM118.845 53.1261C118.251 51.0321 116.325 49.4982 114.04 49.4982C111.282 49.4982 109.046 51.7343 109.046 54.4925V66.2384C109.046 67.5046 109.308 68.7226 109.785 69.831C110.261 70.9349 111.087 71.7798 112.078 72.2915C112.589 73.2821 113.434 74.1084 114.538 74.5839C115.647 75.0613 116.865 75.3233 118.131 75.3233C119.397 75.3233 120.615 75.0613 121.723 74.5839C122.827 74.1084 123.672 73.2821 124.184 72.2915C125.175 71.7798 126.001 70.9349 126.476 69.831C126.768 69.1537 126.979 68.4355 127.1 67.6903C127.22 68.4355 127.431 69.1537 127.723 69.831C128.198 70.9349 129.025 71.7798 130.015 72.2915C130.527 73.2821 131.372 74.1084 132.476 74.5839C133.584 75.0613 134.802 75.3233 136.068 75.3233C137.335 75.3233 138.553 75.0613 139.661 74.5839C140.765 74.1084 141.61 73.2821 142.121 72.2915C143.112 71.7798 143.938 70.9349 144.414 69.831C144.891 68.7226 145.153 67.5046 145.153 66.2384V54.4925C145.153 51.7343 142.917 49.4982 140.159 49.4982C137.874 49.4982 135.948 51.0321 135.354 53.1261C134.465 52.3102 133.279 51.8121 131.978 51.8121C129.589 51.8121 127.592 53.4895 127.1 55.7307C126.608 53.4895 124.61 51.8121 122.221 51.8121C120.92 51.8121 119.734 52.3102 118.845 53.1261Z" fill="black"/>
<path fill-rule="evenodd" clip-rule="evenodd" d="M72.4133 8.87003C71.9016 7.87937 71.0567 7.0531 69.9528 6.57759C68.8444 6.10016 67.6264 5.8382 66.3602 5.8382C65.094 5.8382 63.876 6.10016 62.7676 6.57759C61.6636 7.0531 60.8188 7.87937 60.3071 8.87002C59.3165 9.38167 58.4902 10.2265 58.0147 11.3305C57.5372 12.4389 57.2753 13.6569 57.2753 14.9231V28.0122C57.2753 30.7704 59.5113 33.0065 62.2696 33.0065C63.481 33.0065 64.5918 32.5751 65.4565 31.8576V32.6341C65.4565 33.1013 65.456 33.5687 65.4549 34.0363C65.4539 34.4897 65.5133 34.9291 65.6256 35.347C65.5098 35.764 65.4467 36.2032 65.444 36.6568C65.4412 37.1251 65.438 37.5936 65.4345 38.0623C65.4226 39.642 66.0323 41.1117 67.0925 42.1956C68.0441 43.1685 69.296 43.6699 70.5571 43.6965C71.5356 43.9501 72.5913 43.9086 73.5796 43.5326C73.463 43.9388 73.4002 44.3477 73.387 44.7516C73.1789 45.099 73.01 45.4775 72.888 45.8829C72.753 46.3316 72.6266 46.7444 72.5089 47.122L72.5055 47.1326L71.0466 51.8844C70.4321 53.886 71.1375 55.978 72.6665 57.224C70.7018 57.3973 68.9439 58.733 68.3293 60.7345L67.2638 64.2049V52.4451C67.2638 49.6869 65.0278 47.4509 62.2696 47.4509C59.5113 47.4509 57.2753 49.6869 57.2753 52.4451V65.5342C57.2753 66.8993 57.5576 68.2114 58.0718 69.4052C58.5866 70.6003 59.5125 71.4918 60.613 71.9855C61.1068 73.0861 61.9983 74.012 63.1934 74.5268C64.3872 75.041 65.6993 75.3233 67.0644 75.3233C68.1603 75.3233 69.228 75.1402 70.23 74.7977C71.223 74.4582 72.0398 73.837 72.6216 73.0537C73.5411 72.7274 74.3747 72.129 74.9907 71.2793C75.4628 70.6281 75.8581 69.9136 76.1619 69.1484C76.2402 69.3799 76.3275 69.6073 76.4236 69.8304C76.8992 70.9345 77.7256 71.7794 78.7164 72.291C79.228 73.2818 80.0729 74.1082 81.177 74.5838C82.2855 75.0613 83.5037 75.3233 84.77 75.3233C86.0364 75.3233 87.2545 75.0613 88.363 74.5838C89.4671 74.1082 90.312 73.2818 90.8237 72.291C91.8145 71.7794 92.6409 70.9345 93.1165 69.8304C93.5939 68.7219 93.8559 67.5037 93.8559 66.2374V53.1482C93.8559 50.3899 91.6199 48.1539 88.8616 48.1539C87.6492 48.1539 86.5377 48.5859 85.6727 49.3044V43.6267C85.6769 42.1522 85.1514 40.7228 84.1455 39.6119C83.1782 38.5436 81.8541 37.9907 80.5185 37.9703C79.5133 37.7021 78.4268 37.7466 77.4179 38.1407C77.4502 37.9593 77.4722 37.778 77.4843 37.5976C77.641 37.3003 77.7698 36.9827 77.8665 36.6472C77.9749 36.2712 78.0736 35.934 78.1628 35.6345L79.7359 30.4879C80.5421 27.8501 79.0574 25.0581 76.4196 24.2518C75.4806 23.9648 74.522 23.9681 73.6404 24.2104C73.4498 24.0521 73.2472 23.9076 73.0342 23.7786C73.4838 23.5063 73.887 23.1651 74.2292 22.7696C74.8109 23.4034 75.5641 23.8951 76.4462 24.1647C79.084 24.971 81.8759 23.4863 82.6822 20.8485L83.8674 16.971V28.715C83.8674 31.4732 86.1034 33.7092 88.8616 33.7092C91.6199 33.7092 93.8559 31.4732 93.8559 28.715V15.6257C93.8559 14.2609 93.5736 12.949 93.0595 11.7554C92.5448 10.5605 91.6191 9.66908 90.5189 9.17526C90.025 8.07499 89.1337 7.14932 87.9387 6.63461C86.7451 6.12048 85.4332 5.8382 84.0684 5.8382C82.9715 5.8382 81.9029 6.02166 80.9002 6.36477C79.9065 6.70482 79.0893 7.32712 78.5077 8.11149C77.5876 8.43843 76.7536 9.03796 76.1379 9.88891C75.6669 10.54 75.2725 11.2542 74.9695 12.0189C74.8907 11.7852 74.8027 11.5556 74.7057 11.3305C74.2302 10.2265 73.4039 9.38167 72.4133 8.87003ZM67.2638 23.349V24.2082C67.4537 24.0507 67.6554 23.907 67.8674 23.7786C67.6554 23.6502 67.4537 23.5065 67.2638 23.349ZM80.7042 54.4611L80.5952 54.8162C80.5331 55.0184 80.4593 55.2139 80.3749 55.402C80.4753 55.396 80.5765 55.3929 80.6784 55.3929C81.8908 55.3929 83.0023 55.825 83.8674 56.5435V53.3106C83.0085 54.024 81.9066 54.455 80.7042 54.4611Z" fill="black"/>
<path fill-rule="evenodd" clip-rule="evenodd" d="M14.9208 7.05622C16.7443 6.27078 18.7504 5.8382 20.8446 5.8382H22.4335C22.9499 5.8382 23.448 5.91656 23.9165 6.06205C24.385 5.91656 24.8831 5.8382 25.3995 5.8382H26.9883C29.0825 5.8382 31.0887 6.27078 32.9122 7.05622C34.8787 7.90329 36.0231 9.8634 35.9263 11.8831C37.946 11.7862 39.9061 12.9307 40.7531 14.8972C41.5386 16.7206 41.9712 18.7268 41.9712 20.821V32.5669C41.9712 35.3252 39.7351 37.5612 36.9769 37.5612C35.7654 37.5612 34.6547 37.1298 33.7899 36.4123V39.2007C33.7899 41.959 31.5539 44.195 28.7956 44.195C26.405 44.195 24.4067 42.5154 23.9165 40.2719C23.4262 42.5154 21.4279 44.195 19.0373 44.195C16.2791 44.195 14.0431 41.959 14.0431 39.2007V36.4123C13.1783 37.1298 12.0676 37.5612 10.8561 37.5612C8.09783 37.5612 5.86182 35.3251 5.86182 32.5669V20.821C5.86182 18.7268 6.2944 16.7206 7.07984 14.8972C7.92691 12.9307 9.88702 11.7862 11.9067 11.8831C11.8099 9.8634 12.9543 7.90328 14.9208 7.05622ZM16.6563 16.6327C16.6923 17.3694 16.565 18.1256 16.2535 18.8487C15.9957 19.4473 15.8504 20.1107 15.8504 20.821V24.3593C16.3019 23.8947 16.8361 23.5273 17.4182 23.2707C17.9091 22.1568 18.806 21.2185 20.0122 20.699C21.2162 20.1804 22.5396 19.8956 23.9165 19.8956C25.2934 19.8956 26.6168 20.1804 27.8208 20.699C29.027 21.2185 29.9239 22.1568 30.4148 23.2707C30.9969 23.5273 31.5311 23.8947 31.9826 24.3593V20.821C31.9826 20.1107 31.8373 19.4473 31.5794 18.8487C31.268 18.1256 31.1406 17.3694 31.1767 16.6327C30.4399 16.6687 29.6838 16.5414 28.9607 16.2299C28.3621 15.9721 27.6987 15.8267 26.9883 15.8267H25.3995C24.8831 15.8267 24.385 15.7484 23.9165 15.6029C23.448 15.7484 22.9499 15.8267 22.4335 15.8267H20.8446C20.1343 15.8267 19.4709 15.9721 18.8723 16.2299C18.1492 16.5414 17.3931 16.6687 16.6563 16.6327ZM15.6612 53.1263C15.067 51.0322 13.1407 49.4982 10.8561 49.4982C8.09783 49.4982 5.86182 51.7342 5.86182 54.4925V66.2384C5.86182 67.5046 6.12378 68.7226 6.60121 69.831C7.07672 70.9349 7.90299 71.7798 8.89365 72.2915C9.40529 73.2821 10.2502 74.1084 11.3541 74.5839C12.4625 75.0613 13.6805 75.3233 14.9467 75.3233C16.2129 75.3233 17.431 75.0613 18.5393 74.5839C19.6433 74.1084 20.4881 73.2821 20.9998 72.2915C21.9904 71.7798 22.8167 70.9349 23.2922 69.831C23.5848 69.1518 23.7964 68.4314 23.9165 67.684C24.0365 68.4314 24.2482 69.1518 24.5407 69.831C25.0163 70.9349 25.8425 71.7798 26.8332 72.2915C27.3448 73.2821 28.1897 74.1084 29.2936 74.5839C30.402 75.0613 31.6201 75.3233 32.8863 75.3233C34.1525 75.3233 35.3705 75.0613 36.4789 74.5839C37.5828 74.1084 38.4277 73.2821 38.9393 72.2915C39.93 71.7798 40.7562 70.935 41.2318 69.831C41.7092 68.7226 41.9712 67.5046 41.9712 66.2384V54.4925C41.9712 51.7343 39.7351 49.4982 36.9769 49.4982C34.6923 49.4982 32.766 51.0322 32.1718 53.1263C31.2828 52.3104 30.0974 51.8124 28.7956 51.8124C26.405 51.8124 24.4067 53.492 23.9165 55.7355C23.4262 53.492 21.4279 51.8124 19.0373 51.8124C17.7356 51.8124 16.5502 52.3104 15.6612 53.1263Z" fill="black"/>
<path fill-rule="evenodd" clip-rule="evenodd" d="M130.166 88.3718C132.26 88.3714 134.267 88.8038 136.091 89.5891C138.057 90.4361 139.202 92.3964 139.105 94.4163C141.125 94.3191 143.086 95.4635 143.933 97.4302C144.718 99.2538 145.151 101.26 145.151 103.355V115.1C145.151 117.858 142.915 120.094 140.157 120.094C138.946 120.094 137.835 119.663 136.971 118.946V121.734C136.971 124.492 134.734 126.728 131.976 126.728C129.588 126.728 127.591 125.052 127.098 122.811C126.606 125.052 124.609 126.728 122.221 126.728C119.462 126.728 117.226 124.492 117.226 121.734V118.947C116.362 119.664 115.251 120.095 114.04 120.095C111.282 120.095 109.046 117.859 109.046 115.101V103.356C109.046 101.262 109.478 99.2555 110.264 97.4322C111.111 95.4659 113.07 94.3214 115.09 94.4179C114.993 92.3985 116.137 90.4386 118.103 89.5914C119.927 88.8058 121.932 88.373 124.026 88.3727L125.614 88.3724C126.13 88.3724 126.628 88.4505 127.096 88.5958C127.564 88.4504 128.062 88.3721 128.578 88.372L130.166 88.3718ZM127.098 98.1372C126.629 98.2826 126.132 98.3609 125.616 98.361L124.028 98.3612C123.318 98.3613 122.654 98.5068 122.056 98.7646C121.333 99.0761 120.577 99.2036 119.84 99.1677C119.876 99.9043 119.749 100.66 119.438 101.383C119.18 101.982 119.034 102.645 119.034 103.356V106.892C119.486 106.428 120.019 106.061 120.601 105.805C121.092 104.691 121.989 103.753 123.195 103.234C124.399 102.715 125.722 102.43 127.098 102.43C128.475 102.43 129.798 102.715 131.002 103.234C132.208 103.753 133.105 104.691 133.596 105.805C134.178 106.061 134.711 106.428 135.163 106.892V103.355C135.163 102.644 135.017 101.981 134.759 101.382C134.448 100.659 134.32 99.9026 134.356 99.1658C133.62 99.2019 132.863 99.0747 132.14 98.7633C131.541 98.5055 130.878 98.3602 130.167 98.3603L128.58 98.3605C128.064 98.3606 127.566 98.2824 127.098 98.1372ZM140.157 132.03C142.915 132.03 145.151 134.266 145.151 137.025V148.77C145.151 150.036 144.889 151.254 144.412 152.362C143.936 153.466 143.11 154.311 142.119 154.823C141.608 155.813 140.763 156.64 139.659 157.115C138.551 157.592 137.333 157.854 136.067 157.854C134.8 157.854 133.582 157.592 132.474 157.115C131.37 156.64 130.525 155.813 130.014 154.823C129.023 154.311 128.197 153.466 127.721 152.362C127.43 151.686 127.219 150.968 127.098 150.224C126.978 150.968 126.767 151.686 126.476 152.362C126 153.466 125.174 154.311 124.183 154.823C123.672 155.813 122.827 156.64 121.723 157.115C120.615 157.592 119.397 157.854 118.13 157.854C116.864 157.854 115.646 157.592 114.538 157.115C113.434 156.64 112.589 155.813 112.078 154.823C111.087 154.311 110.261 153.466 109.785 152.362C109.308 151.254 109.046 150.036 109.046 148.77V137.025C109.046 134.266 111.282 132.03 114.04 132.03C116.324 132.03 118.251 133.564 118.845 135.658C119.734 134.842 120.919 134.344 122.221 134.344C124.609 134.344 126.606 136.021 127.098 138.261C127.591 136.021 129.588 134.344 131.976 134.344C133.278 134.344 134.463 134.842 135.352 135.658C135.946 133.564 137.872 132.03 140.157 132.03Z" fill="black"/>
<path fill-rule="evenodd" clip-rule="evenodd" d="M60.9433 92.5468C61.2994 91.235 62.1865 90.0725 63.4924 89.4057C64.7919 88.7423 66.2633 88.3703 67.8136 88.3703C68.9431 88.3703 70.0401 88.5703 71.0622 88.9419C72.0761 89.3106 72.898 89.9735 73.4666 90.7992C74.3977 91.171 75.226 91.8258 75.8099 92.733C76.0212 93.0612 76.213 93.4037 76.3837 93.7589C76.5336 93.4411 76.7006 93.1332 76.8835 92.8366C77.4539 91.9115 78.2773 91.2376 79.2094 90.8492C79.7727 90.0112 80.5947 89.3356 81.6136 88.9573C82.6404 88.5759 83.7455 88.3703 84.8844 88.3703C86.3947 88.3703 87.8302 88.7278 89.102 89.3669C90.3782 90.0083 91.2601 91.1225 91.6418 92.3901C92.7915 93.0465 93.6795 94.1559 94.0182 95.5435C94.3557 96.9262 94.382 98.4054 94.0432 99.8772L91.597 110.503C90.9782 113.191 88.2975 114.868 85.6096 114.249C84.3427 113.958 83.3003 113.208 82.617 112.215C82.5861 112.375 82.5552 112.534 82.5243 112.694C82.2427 114.148 81.4584 115.419 80.3236 116.305C79.2453 117.147 77.9296 117.477 76.6701 117.329C75.4121 117.512 74.0846 117.216 72.9825 116.4C71.8196 115.539 71.0036 114.282 70.6887 112.832L70.6875 112.827L70.6865 112.822C70.5726 112.293 70.458 111.765 70.3425 111.238C70.2296 110.723 70.2006 110.209 70.2466 109.71C70.2346 109.689 70.2228 109.669 70.2111 109.648C69.6112 110.993 68.4252 112.061 66.8881 112.454C64.2161 113.139 61.4951 111.528 60.8105 108.856L58.6027 100.239C58.2179 98.7369 58.213 97.2192 58.5332 95.7957C58.855 94.3652 59.7609 93.2173 60.9433 92.5468ZM68.5303 118.864C71.2023 118.179 73.9233 119.791 74.6079 122.463L76.7074 130.657L77.2968 128.096C77.9156 125.408 80.5963 123.731 83.2843 124.35C85.9722 124.969 87.6496 127.649 87.0308 130.337L84.5835 140.968C84.4148 141.697 84.2397 142.404 84.0578 143.087C83.8677 143.8 83.5324 144.437 83.0921 144.972C83.1527 145.675 83.0644 146.402 82.8066 147.109C82.5247 147.882 82.2259 148.622 81.908 149.325L81.9031 149.336L81.8981 149.347C81.6542 149.879 81.3957 150.395 81.1211 150.893C80.8282 151.423 80.4531 151.879 80.0204 152.254C79.8154 152.822 79.5029 153.363 79.0808 153.846C78.5976 154.399 78.0669 154.918 77.4837 155.386C77.0005 155.777 76.4845 156.132 75.9352 156.444C75.3802 156.759 74.7905 156.956 74.195 157.043C73.6781 157.355 73.0953 157.579 72.4641 157.688C71.828 157.798 71.1893 157.85 70.5522 157.85C69.2999 157.85 68.0951 157.591 66.9987 157.119C65.9075 156.649 65.0694 155.836 64.556 154.861C63.5805 154.347 62.7677 153.509 62.2977 152.418C61.8254 151.322 61.5663 150.117 61.5663 148.865V146.929C61.5663 146.292 61.6856 145.683 61.9031 145.122C61.6856 144.562 61.5663 143.953 61.5663 143.316V141.38C61.5663 140.326 61.7845 139.311 62.1828 138.386C62.5761 137.473 63.2093 136.737 63.977 136.22C64.4937 135.453 65.2295 134.82 66.1425 134.426C66.4928 134.275 66.8561 134.15 67.2296 134.053C67.218 133.989 67.2077 133.923 67.1986 133.858C67.1846 133.757 67.165 133.658 67.1397 133.559L64.9318 124.942C64.2473 122.27 65.8583 119.549 68.5303 118.864ZM71.5549 147.279V146.929C71.5549 146.292 71.4356 145.683 71.2181 145.122C71.423 144.594 71.5408 144.023 71.5537 143.425C71.6392 143.392 71.7234 143.357 71.8063 143.319C72.4001 143.199 72.9817 142.967 73.5213 142.618C73.7716 142.457 74.0134 142.276 74.2438 142.078C74.2465 142.128 74.25 142.177 74.2543 142.227C73.9057 142.651 73.6218 143.141 73.4229 143.686C73.2175 144.249 73.013 144.752 72.8114 145.199C72.6643 145.52 72.5192 145.807 72.3777 146.063C72.2479 146.298 72.139 146.539 72.0505 146.784C71.8788 146.933 71.7152 147.095 71.5613 147.271C71.5592 147.274 71.557 147.276 71.5549 147.279Z" fill="black"/>
<path fill-rule="evenodd" clip-rule="evenodd" d="M14.9208 89.5883C16.7443 88.8029 18.7504 88.3703 20.8446 88.3703H22.433C22.9492 88.3703 23.447 88.4486 23.9154 88.594C24.3838 88.4486 24.8817 88.3703 25.3979 88.3703H26.9862C29.0804 88.3703 31.0866 88.8029 32.91 89.5883C34.8765 90.4354 36.021 92.3955 35.9241 94.4152C37.9438 94.3183 39.9039 95.4627 40.751 97.4293C41.5364 99.2527 41.969 101.259 41.969 103.353V115.098C41.969 117.856 39.733 120.092 36.9747 120.092C35.7636 120.092 34.6531 119.661 33.7884 118.944V121.73C33.7884 124.489 31.5524 126.725 28.7942 126.725C26.4042 126.725 24.4064 125.046 23.9154 122.803C23.4245 125.046 21.4266 126.725 19.0367 126.725C16.2784 126.725 14.0424 124.489 14.0424 121.73V118.944C13.1777 119.661 12.0673 120.092 10.8561 120.092C8.09783 120.092 5.86182 117.856 5.86182 115.098V103.353C5.86182 101.259 6.2944 99.2527 7.07984 97.4293C7.92691 95.4627 9.88702 94.3183 11.9067 94.4152C11.8099 92.3955 12.9543 90.4354 14.9208 89.5883ZM16.6563 99.1648C16.6923 99.9015 16.565 100.658 16.2535 101.381C15.9957 101.979 15.8504 102.643 15.8504 103.353V106.889C16.3017 106.425 16.8356 106.058 17.4174 105.801C17.9083 104.688 18.8052 103.749 20.0113 103.23C21.2152 102.711 22.5386 102.427 23.9154 102.427C25.2923 102.427 26.6156 102.711 27.8195 103.23C29.0257 103.749 29.9225 104.688 30.4135 105.801C30.9953 106.058 31.5291 106.425 31.9805 106.889V103.353C31.9805 102.643 31.8351 101.979 31.5773 101.381C31.2658 100.658 31.1385 99.9015 31.1745 99.1648C30.4378 99.2008 29.6816 99.0735 28.9585 98.762C28.3599 98.5042 27.6965 98.3588 26.9862 98.3588H25.3979C24.8817 98.3588 24.3838 98.2805 23.9154 98.1351C23.447 98.2805 22.9492 98.3588 22.433 98.3588H20.8446C20.1343 98.3588 19.4709 98.5042 18.8723 98.762C18.1492 99.0735 17.3931 99.2008 16.6563 99.1648ZM36.9747 132.027C39.733 132.027 41.969 134.263 41.969 137.021V148.766C41.969 150.032 41.7071 151.25 41.2297 152.358C40.7542 153.462 39.9279 154.307 38.9373 154.819C38.4257 155.809 37.5808 156.636 36.4769 157.111C35.3686 157.589 34.1506 157.85 32.8844 157.85C31.6183 157.85 30.4003 157.589 29.292 157.111C28.1881 156.636 27.3432 155.809 26.8316 154.819C25.841 154.307 25.0147 153.462 24.5392 152.358C24.247 151.68 24.0355 150.961 23.9154 150.214C23.7953 150.961 23.5838 151.68 23.2916 152.358C22.8161 153.462 21.9899 154.307 20.9993 154.819C20.4876 155.809 19.6428 156.636 18.5389 157.111C17.4305 157.589 16.2125 157.85 14.9464 157.85C13.6802 157.85 12.4622 157.589 11.3539 157.111C10.25 156.636 9.40516 155.809 8.8935 154.819C7.9029 154.307 7.07668 153.462 6.60118 152.358C6.12377 151.25 5.86182 150.032 5.86182 148.766V137.021C5.86182 134.263 8.09783 132.027 10.8561 132.027C13.1404 132.027 15.0665 133.561 15.661 135.654C16.5499 134.839 17.7351 134.341 19.0367 134.341C21.4266 134.341 23.4245 136.019 23.9154 138.262C24.4064 136.019 26.4042 134.341 28.7942 134.341C30.0957 134.341 31.2809 134.839 32.1699 135.654C32.7644 133.561 34.6905 132.027 36.9747 132.027Z" fill="black"/>
<path d="M138.375 20.8207C138.375 16.2894 134.701 12.6157 130.17 12.6157H124.028C119.497 12.6158 115.823 16.2895 115.823 20.8207V66.2387C115.823 67.5126 116.857 68.5453 118.131 68.5453C119.405 68.5452 120.437 67.5126 120.438 66.2387V29.768C120.438 26.0888 123.42 23.1059 127.1 23.1059C130.779 23.106 133.762 26.0888 133.762 29.768V66.2387C133.762 67.5126 134.794 68.5453 136.068 68.5453C137.342 68.5453 138.375 67.5126 138.375 66.2387V20.8207ZM141.942 66.2387C141.942 69.4828 139.312 72.1126 136.068 72.1127C132.824 72.1127 130.195 69.4828 130.194 66.2387V29.768C130.194 28.059 128.809 26.6734 127.1 26.6733C125.391 26.6733 124.005 28.059 124.005 29.768V66.2387C124.005 69.4828 121.375 72.1126 118.131 72.1127C114.887 72.1127 112.257 69.4828 112.257 66.2387V20.8207C112.257 14.3193 117.527 9.0494 124.028 9.04926H130.17C136.671 9.04926 141.942 14.3192 141.942 20.8207V66.2387Z" fill="#78F0FC"/>
<path d="M68.6669 14.9233C68.6669 13.6492 67.6343 12.6158 66.3602 12.6157C65.0861 12.6157 64.0526 13.6492 64.0526 14.9233V65.5346C64.0528 67.1974 65.4015 68.5453 67.0643 68.5453C68.3867 68.5453 69.554 67.6824 69.9423 66.4184L75.5712 48.0854L75.5741 48.0776C75.9748 46.793 76.4613 45.1445 77.035 43.1284C77.0589 43.0438 77.0825 42.9591 77.1063 42.8745C77.9612 39.8383 82.4721 40.3937 82.4618 43.6166V66.2377C82.462 67.5121 83.4951 68.5451 84.7694 68.5453C86.044 68.5453 87.0778 67.5122 87.078 66.2377V15.6254C87.0779 13.9634 85.7303 12.6157 84.0683 12.6157C82.7451 12.6157 81.5773 13.4803 81.1903 14.7455L75.0897 34.7006C74.7926 35.6979 74.4039 37.0673 73.9198 38.8207L73.9179 38.8286C73.4879 40.3597 72.0533 40.8889 70.9638 40.7377C69.8726 40.5864 68.6324 39.6827 68.6444 38.0864C68.6581 36.2677 68.6669 34.4502 68.6669 32.6342V14.9233ZM72.2343 31.8422L77.7782 13.7036C78.6235 10.938 81.1764 9.04926 84.0683 9.04926C87.7005 9.04927 90.6452 11.9932 90.6454 15.6254V66.2377C90.6452 69.4824 88.0141 72.1127 84.7694 72.1127C81.5249 72.1125 78.8946 69.4823 78.8944 66.2377V49.4145L73.3534 67.4653C72.5053 70.2274 69.9537 72.1127 67.0643 72.1127C63.4313 72.1127 60.4864 69.1676 60.4862 65.5346V14.9233C60.4862 11.679 63.116 9.04926 66.3602 9.04926C69.6044 9.04936 72.2343 11.6791 72.2343 14.9233V31.8422Z" fill="#78F0FC"/>
<path d="M138.373 103.355C138.373 98.8229 134.699 95.1491 130.167 95.1497L124.027 95.1507C119.496 95.1514 115.823 98.8248 115.823 103.356V148.77C115.823 150.044 116.856 151.076 118.13 151.076C119.404 151.076 120.437 150.044 120.437 148.77V112.302C120.437 108.623 123.42 105.641 127.099 105.641C130.777 105.641 133.76 108.623 133.76 112.302V148.77C133.76 150.044 134.792 151.076 136.066 151.076C137.34 151.076 138.373 150.044 138.373 148.77V103.355ZM141.94 148.77C141.94 152.014 139.31 154.644 136.066 154.644C132.822 154.644 130.192 152.014 130.192 148.77V112.302C130.192 110.594 128.807 109.208 127.099 109.208C125.39 109.208 124.004 110.593 124.004 112.302V148.77C124.004 152.014 121.374 154.644 118.13 154.644C114.886 154.644 112.257 152.014 112.257 148.77V103.356C112.257 96.855 117.526 91.5845 124.026 91.5833L130.166 91.5823C136.668 91.5813 141.94 96.8525 141.94 103.355V148.77Z" fill="#78F0FC"/>
<path d="M84.8846 91.5813C88.8623 91.5816 91.8061 95.2802 90.9139 99.1565L81.4559 140.242L81.4549 140.244C80.7443 143.318 79.9249 145.917 78.9823 148.002L78.9793 148.01C78.0366 150.069 76.8891 151.744 75.4715 152.883C74.0457 154.04 72.3858 154.64 70.5516 154.64C67.3622 154.64 64.7772 152.054 64.7772 148.865V141.38C64.7772 138.972 66.7289 137.021 69.1366 137.021C69.5091 137.021 69.713 136.972 69.8035 136.94C69.9633 136.684 70.1693 136.185 70.3348 135.315C70.4928 134.468 70.4637 133.597 70.2498 132.762L61.7127 99.4417C60.6922 95.4581 63.7011 91.5815 67.8133 91.5813C70.7544 91.5813 73.3039 93.6166 73.9549 96.4847L76.5496 107.928C76.7269 107.03 76.9048 106.132 77.0838 105.236L78.8162 96.5579C79.3937 93.6644 81.934 91.5813 84.8846 91.5813ZM68.3446 148.865C68.3446 150.084 69.3324 151.072 70.5516 151.073C71.553 151.073 72.4229 150.764 73.2244 150.114L73.2332 150.107C74.0672 149.439 74.9238 148.297 75.7352 146.525C76.5473 144.727 77.3013 142.373 77.9793 139.441L87.4383 98.3567C87.8162 96.7152 86.569 95.148 84.8846 95.1477C83.6351 95.1477 82.5588 96.0308 82.3143 97.2561L80.5828 105.934C80.1743 107.98 79.7696 110.03 79.3719 112.083C78.793 115.073 74.4808 115.18 73.825 112.148C73.3797 110.079 72.9224 108.025 72.453 105.985L72.452 105.98L70.4764 97.2747C70.1942 96.0311 69.0885 95.1477 67.8133 95.1477C66.0305 95.1479 64.7265 96.8289 65.1688 98.5559L73.7059 131.876C74.0493 133.217 74.0945 134.616 73.8397 135.976L73.8387 135.981C73.6234 137.114 73.284 138.164 72.7264 138.986L72.7283 138.987C72.7243 138.993 72.7187 138.998 72.7147 139.004C72.7124 139.008 72.7111 139.012 72.7088 139.015L72.7078 139.014C71.851 140.281 70.384 140.588 69.1366 140.588C68.6991 140.588 68.3446 140.943 68.3446 141.38V148.865Z" fill="#78F0FC"/>
<path d="M35.1909 103.353C35.1908 98.8215 31.5172 95.1477 26.9858 95.1477H20.8442C16.313 95.1479 12.6393 98.8216 12.6392 103.353V148.766C12.6392 150.04 13.6721 151.072 14.9458 151.073C16.2197 151.073 17.2524 150.04 17.2524 148.766V112.299C17.2527 108.62 20.2361 105.637 23.9155 105.637C27.5948 105.637 30.5774 108.62 30.5776 112.299V148.766C30.5776 150.04 31.6104 151.073 32.8843 151.073C34.1582 151.073 35.1909 150.04 35.1909 148.766V103.353ZM38.7583 148.766C38.7583 152.01 36.1284 154.64 32.8843 154.64C29.6402 154.64 27.0103 152.01 27.0103 148.766V112.299C27.01 110.59 25.6246 109.205 23.9155 109.204C22.2063 109.204 20.82 110.59 20.8198 112.299V148.766C20.8198 152.01 18.1899 154.64 14.9458 154.64C11.7019 154.64 9.07275 152.01 9.07275 148.766V103.353C9.0729 96.8514 14.3428 91.5815 20.8442 91.5813H26.9858C33.4874 91.5813 38.7582 96.8513 38.7583 103.353V148.766Z" fill="#78F0FC"/>
<path d="M35.1929 20.8207C35.1927 16.2894 31.5191 12.6157 26.9878 12.6157H20.8442C16.313 12.6158 12.6393 16.2895 12.6392 20.8207V66.2387C12.6393 67.5126 13.6728 68.5453 14.9468 68.5453C16.2207 68.5452 17.2532 67.5126 17.2534 66.2387V29.769C17.2534 26.0892 20.2367 23.1059 23.9165 23.1059C27.5962 23.106 30.5796 26.0893 30.5796 29.769V66.2387C30.5798 67.5127 31.6122 68.5453 32.8862 68.5453C34.1602 68.5453 35.1927 67.5126 35.1929 66.2387V20.8207ZM38.7603 66.2387C38.7601 69.4828 36.1304 72.1127 32.8862 72.1127C29.6421 72.1127 27.0124 69.4828 27.0122 66.2387V29.769C27.0122 28.0595 25.626 26.6734 23.9165 26.6733C22.2069 26.6733 20.8208 28.0594 20.8208 29.769V66.2387C20.8206 69.4828 18.1909 72.1126 14.9468 72.1127C11.7026 72.1127 9.07293 69.4828 9.07275 66.2387V20.8207C9.0729 14.3193 14.3428 9.0494 20.8442 9.04926H26.9878C33.4893 9.04926 38.7601 14.3192 38.7603 20.8207V66.2387Z" fill="#78F0FC"/>
</svg>
