<svg width="310" height="182" viewBox="0 0 310 182" fill="none" xmlns="http://www.w3.org/2000/svg">
<path fill-rule="evenodd" clip-rule="evenodd" d="M154.713 50.0703C160.68 50.0703 166.349 51.3495 171.46 53.6486C171.507 53.6697 171.554 53.691 171.601 53.7123C185.28 59.9284 194.928 73.463 195.546 89.3159C195.567 89.853 195.578 90.3927 195.578 90.9349C195.578 91.0981 195.577 91.261 195.575 91.4237C195.568 92.03 195.547 92.6331 195.514 93.2328C195.473 93.9718 195.413 94.7056 195.333 95.4336C195.332 95.4441 195.33 95.4547 195.329 95.4652C195.095 97.5926 194.697 99.6708 194.148 101.687C194.08 101.939 194.009 102.189 193.936 102.439C193.554 103.745 193.108 105.023 192.602 106.271C192.6 106.277 192.597 106.284 192.595 106.29C192.506 106.508 192.416 106.726 192.324 106.942C192.323 106.943 192.323 106.943 192.323 106.944C186.411 120.814 173.051 130.748 157.267 131.721C156.422 131.773 155.57 131.8 154.713 131.8C153.855 131.8 153.003 131.773 152.159 131.721C136.374 130.748 123.014 120.814 117.103 106.944C117.07 106.868 117.038 106.792 117.006 106.715C116.947 106.574 116.888 106.432 116.831 106.29C116.798 106.209 116.765 106.128 116.733 106.046C116.264 104.87 115.849 103.667 115.49 102.44C115.416 102.19 115.346 101.939 115.277 101.687C114.729 99.6708 114.331 97.5927 114.096 95.4653C114.095 95.4547 114.094 95.4442 114.092 95.4336C114.013 94.7056 113.952 93.9718 113.911 93.2328C113.878 92.6332 113.858 92.03 113.851 91.4237C113.849 91.261 113.848 91.0981 113.848 90.9349C113.848 90.3927 113.858 89.853 113.879 89.3159C114.729 67.4974 132.686 50.0703 154.713 50.0703ZM126.816 74.5176C125.534 73.3198 123.435 73.5046 122.656 75.0766C120.287 79.8555 118.956 85.2398 118.956 90.9349C118.956 108.857 132.142 123.7 149.342 126.291C150.856 126.519 152.159 125.3 152.159 123.769V87.9208C152.159 86.5268 151.073 85.3823 149.69 85.211C144.788 84.6039 140.026 83.1119 135.638 80.7957C132.421 79.0979 129.456 76.9841 126.816 74.5176ZM157.267 123.769C157.267 125.3 158.569 126.519 160.083 126.291C175.531 123.964 187.742 111.754 190.069 96.306C190.297 94.7918 189.078 93.4893 187.547 93.4893H159.907C158.449 93.4893 157.267 94.6713 157.267 96.1293V123.769ZM186.769 75.0766C185.99 73.5046 183.891 73.3199 182.609 74.5176C179.568 77.3585 176.102 79.7271 172.323 81.5315C168.022 83.5856 163.406 84.8661 158.686 85.3272C157.89 85.405 157.267 86.0646 157.267 86.8651C157.267 87.7024 157.946 88.3812 158.783 88.3812H187.547C189.078 88.3812 190.297 87.0802 190.069 85.5661C189.51 81.8516 188.379 78.3243 186.769 75.0766ZM154.713 55.1784C144.596 55.1784 135.461 59.3797 128.956 66.1327C128.059 67.064 128.059 68.5263 128.956 69.4577C131.588 72.1912 134.646 74.4965 138.022 76.2782C141.906 78.3281 146.125 79.6403 150.465 80.1596C151.378 80.2687 152.159 79.5395 152.159 78.6203C152.159 77.8839 151.646 77.2558 150.952 77.0094C146.595 75.4625 143.475 71.3037 143.475 66.4163C143.475 60.2097 148.506 55.1784 154.713 55.1784ZM154.713 55.1784C160.919 55.1784 165.951 60.2097 165.951 66.4163C165.951 71.3037 162.83 75.4625 158.473 77.0094C157.779 77.2558 157.267 77.8839 157.267 78.6203C157.267 79.5395 158.047 80.2687 158.96 80.1596C162.821 79.6976 166.593 78.6075 170.122 76.922C174 75.07 177.503 72.5386 180.47 69.4577C181.367 68.5263 181.366 67.064 180.469 66.1327C173.965 59.3797 164.829 55.1784 154.713 55.1784ZM154.713 60.2865C151.327 60.2865 148.583 63.0309 148.583 66.4163C148.583 69.8016 151.327 72.546 154.713 72.546C158.098 72.546 160.842 69.8016 160.842 66.4163C160.842 63.0309 158.098 60.2865 154.713 60.2865Z" fill="#F0F0F0"/>
<path d="M154.706 0.00137707C154.706 -0.000458874 154.708 -0.000459091 154.709 0.00137683L158.036 39.4243C158.122 40.437 158.165 40.9434 158.002 41.3107C157.854 41.6452 157.624 41.8927 157.301 42.064C156.946 42.2522 156.412 42.2454 155.344 42.2318C155.134 42.2292 154.924 42.2278 154.713 42.2278C154.499 42.2278 154.284 42.2292 154.071 42.232C153.002 42.2458 152.468 42.2527 152.113 42.0646C151.79 41.8933 151.56 41.6457 151.412 41.3113C151.249 40.9439 151.292 40.4374 151.378 39.4245L154.706 0.00137707Z" fill="#F0F0F0"/>
<path d="M108.024 76.9736C108.311 76.0118 108.455 75.5309 108.382 75.1527C108.316 74.8082 108.158 74.5255 107.899 74.2889C107.614 74.0293 107.153 73.9068 106.23 73.6619L0 45.4597L104.564 79.3246C105.475 79.6196 105.93 79.7671 106.311 79.7025C106.657 79.6436 106.944 79.491 107.186 79.2363C107.452 78.9568 107.591 78.4728 107.868 77.5048C107.919 77.3273 107.971 77.1503 108.024 76.9736Z" fill="#F0F0F0"/>
<path d="M107.86 104.371C107.583 103.403 107.445 102.918 107.179 102.638C106.936 102.384 106.65 102.231 106.303 102.172C105.922 102.107 105.467 102.255 104.555 102.55L0 136.412L106.221 108.212C107.143 107.967 107.604 107.845 107.889 107.586C108.148 107.349 108.306 107.067 108.372 106.722C108.445 106.344 108.302 105.864 108.015 104.902C107.962 104.726 107.911 104.549 107.86 104.371Z" fill="#F0F0F0"/>
<path d="M154.073 139.673C153.005 139.659 152.471 139.652 152.116 139.84C151.793 140.011 151.562 140.259 151.415 140.593C151.252 140.961 151.295 141.467 151.38 142.48L154.696 181.757C154.696 181.759 154.696 181.76 154.697 181.761C154.698 181.762 154.698 181.764 154.699 181.764C154.703 181.767 154.708 181.768 154.712 181.766C154.714 181.765 154.715 181.764 154.716 181.763C154.717 181.761 154.718 181.759 154.718 181.757L158.034 142.48C158.119 141.468 158.162 140.961 157.999 140.594C157.852 140.259 157.621 140.012 157.298 139.841C156.944 139.652 156.41 139.659 155.342 139.673C155.132 139.675 154.923 139.677 154.713 139.677C154.499 139.677 154.286 139.675 154.073 139.673Z" fill="#F0F0F0"/>
<path d="M201.41 104.905C201.124 105.866 200.98 106.347 201.053 106.725C201.119 107.07 201.278 107.352 201.537 107.589C201.821 107.848 202.282 107.97 203.204 108.215L309.414 136.412L204.87 102.553C203.959 102.258 203.503 102.111 203.122 102.176C202.776 102.234 202.489 102.387 202.247 102.642C201.981 102.922 201.842 103.406 201.565 104.375C201.515 104.552 201.463 104.729 201.41 104.905Z" fill="#F0F0F0"/>
<path d="M201.557 77.5014C201.835 78.4693 201.973 78.9532 202.239 79.2328C202.482 79.4874 202.768 79.64 203.115 79.6988C203.495 79.7634 203.95 79.616 204.861 79.321L309.414 45.4597L203.195 73.6589C202.272 73.9038 201.811 74.0263 201.527 74.286C201.268 74.5226 201.109 74.8053 201.043 75.1498C200.97 75.528 201.114 76.0089 201.402 76.9708C201.455 77.1472 201.506 77.3241 201.557 77.5014Z" fill="#F0F0F0"/>
</svg>
