<svg width="181" height="51" viewBox="0 0 181 51" fill="none" xmlns="http://www.w3.org/2000/svg">
<g clip-path="url(#clip0_2872_477)">
<rect y="20.0289" width="177.5" height="30.6475" transform="rotate(-6.46568 0 20.0289)" fill="white"/>
<g clip-path="url(#clip1_2872_477)">
<path fill-rule="evenodd" clip-rule="evenodd" d="M18.5802 36.5584C18.2434 37.8969 17.5698 38.8143 16.705 38.9123C15.2451 39.0778 13.7933 36.8449 13.4624 33.925C13.1315 31.0051 14.0468 28.504 15.5067 28.3385C16.3715 28.2405 17.2333 28.9839 17.8611 30.2131C18.1979 28.8746 18.8715 27.9572 19.7363 27.8592C21.1962 27.6938 22.648 29.9267 22.9789 32.8465C23.3098 35.7664 22.3945 38.2676 20.9346 38.433C20.0698 38.531 19.208 37.7876 18.5802 36.5584ZM16.8742 35.6803C16.9404 36.2643 16.5207 36.7913 15.9367 36.8575C15.3527 36.9237 14.8257 36.5039 14.7595 35.92C14.6933 35.336 15.1131 34.8089 15.697 34.7427C16.281 34.6766 16.8081 35.0963 16.8742 35.6803ZM21.1038 35.201C21.1699 35.7849 20.7502 36.312 20.1662 36.3782C19.5822 36.4444 19.0552 36.0246 18.989 35.4406C18.9228 34.8566 19.3426 34.3296 19.9266 34.2634C20.5105 34.1972 21.0376 34.617 21.1038 35.201Z" fill="#262626"/>
</g>
<path d="M31.1256 35.0145C30.9294 35.0367 30.7308 35.0387 30.53 35.0203C30.3291 35.0019 30.1316 34.9523 29.9374 34.8715C29.7499 34.79 29.5722 34.673 29.4041 34.5207L29.4427 35.1332L28.2449 35.269L27.4316 28.0923L28.67 27.952L28.953 30.4491C29.1209 30.1765 29.3501 29.962 29.6409 29.8057C29.9376 29.6418 30.2517 29.5411 30.5833 29.5035C31.1112 29.4437 31.5581 29.5164 31.9241 29.7217C32.296 29.9194 32.5866 30.2155 32.7958 30.6099C33.0118 31.0035 33.1493 31.4609 33.2083 31.982C33.2674 32.503 33.2327 32.9833 33.1043 33.4228C32.9819 33.8548 32.7586 34.2125 32.4343 34.496C32.11 34.7795 31.6738 34.9524 31.1256 35.0145ZM30.7984 33.9412C31.1435 33.9021 31.4054 33.7936 31.584 33.6157C31.7686 33.4303 31.8903 33.204 31.9492 32.9369C32.008 32.6697 32.0213 32.3941 31.9891 32.1098C31.9561 31.8189 31.8784 31.5569 31.7561 31.324C31.6405 31.0904 31.4728 30.9106 31.2529 30.7848C31.033 30.6589 30.7539 30.6151 30.4155 30.6535C30.1042 30.6887 29.8495 30.7999 29.6514 30.9868C29.4592 31.1662 29.3236 31.3907 29.2444 31.6601C29.1645 31.9227 29.1399 32.1894 29.1706 32.4601C29.2028 32.7443 29.2805 33.0063 29.4036 33.2459C29.5335 33.4848 29.7121 33.6702 29.9396 33.8021C30.1737 33.9332 30.46 33.9795 30.7984 33.9412ZM36.8831 34.362C36.1116 34.4494 35.4969 34.3169 35.0388 33.9644C34.5875 33.6112 34.3155 33.0251 34.2227 32.2063L33.8833 29.2118L35.1217 29.0714L35.4519 31.9847C35.4841 32.2689 35.5493 32.5117 35.6475 32.7131C35.7525 32.9137 35.8961 33.0619 36.0783 33.1578C36.2665 33.2461 36.4926 33.2753 36.7565 33.2454C37.0408 33.2132 37.2576 33.1304 37.4069 32.9969C37.5623 32.8559 37.6619 32.6767 37.7058 32.4593C37.7497 32.2418 37.7564 31.9977 37.7257 31.727L37.3955 28.8137L38.6339 28.6734L38.9733 31.6679C39.0684 32.507 38.9284 33.1466 38.5533 33.5867C38.1842 34.0192 37.6275 34.2776 36.8831 34.362ZM42.5566 33.7087C41.9678 33.7755 41.5197 33.6617 41.2122 33.3676C40.9047 33.0734 40.7183 32.6388 40.6532 32.0635L40.3725 29.5867L39.5502 29.6799L39.426 28.5836L40.2482 28.4904L40.078 26.9881L41.3164 26.8478L41.4866 28.3501L43.1108 28.166L43.235 29.2623L41.6109 29.4464L41.8651 31.6897C41.885 31.8657 41.9234 32.0224 41.9801 32.1599C42.0368 32.2974 42.1239 32.4007 42.2414 32.4696C42.3588 32.5385 42.5127 32.5656 42.703 32.5509C42.8654 32.5325 43.001 32.4897 43.1099 32.4226C43.2188 32.3554 43.3067 32.2837 43.3734 32.2076L43.8966 33.1045C43.7803 33.2273 43.6448 33.3318 43.49 33.4179C43.3421 33.5032 43.1884 33.5686 43.0291 33.6141C42.8697 33.6595 42.7122 33.6911 42.5566 33.7087ZM46.7497 33.2335C46.161 33.3003 45.7129 33.1865 45.4054 32.8924C45.0979 32.5982 44.9115 32.1636 44.8463 31.5883L44.5656 29.1115L43.7434 29.2047L43.6192 28.1084L44.4414 28.0152L44.2711 26.5129L45.5095 26.3726L45.6798 27.8749L47.3039 27.6908L47.4282 28.7871L45.804 28.9712L46.0583 31.2145C46.0782 31.3905 46.1165 31.5472 46.1732 31.6847C46.23 31.8222 46.3171 31.9254 46.4345 31.9944C46.552 32.0633 46.7059 32.0904 46.8961 32.0757C47.0585 32.0573 47.1942 32.0145 47.3031 31.9474C47.412 31.8802 47.4999 31.8085 47.5666 31.7324L48.0898 32.6293C47.9735 32.7521 47.838 32.8566 47.6832 32.9427C47.5352 33.028 47.3816 33.0934 47.2222 33.1389C47.0629 33.1843 46.9054 33.2159 46.7497 33.2335ZM51.2587 32.7328C50.7106 32.7949 50.2242 32.737 49.7997 32.5589C49.3819 32.38 49.0413 32.0965 48.7779 31.7082C48.5214 31.3192 48.3617 30.8472 48.2988 30.2923C48.2351 29.7307 48.2886 29.2345 48.4591 28.8039C48.6289 28.3666 48.897 28.0107 49.2634 27.7361C49.6298 27.4615 50.0871 27.2932 50.6352 27.2311C51.1766 27.1697 51.6566 27.2318 52.0752 27.4174C52.4937 27.603 52.8317 27.8937 53.089 28.2895C53.3456 28.6786 53.5057 29.1539 53.5694 29.7156C53.6315 30.2637 53.581 30.7561 53.418 31.1927C53.261 31.6217 52.9989 31.9701 52.6317 32.2379C52.2646 32.5057 51.8069 32.6707 51.2587 32.7328ZM51.1209 31.6072C51.4593 31.5689 51.7215 31.4638 51.9077 31.2919C52.1006 31.1192 52.2306 30.9057 52.2977 30.6514C52.3649 30.397 52.3823 30.1277 52.3501 29.8435C52.3179 29.5593 52.2402 29.2973 52.1171 29.0577C51.994 28.818 51.8191 28.6356 51.5925 28.5105C51.3718 28.3779 51.0923 28.3308 50.7539 28.3691C50.4156 28.4074 50.1503 28.5163 49.9582 28.6957C49.7653 28.8684 49.6356 29.0853 49.5693 29.3464C49.5021 29.6008 49.485 29.8734 49.518 30.1644C49.5502 30.4487 49.6279 30.7106 49.751 30.9502C49.8801 31.1824 50.0546 31.3614 50.2745 31.4872C50.5004 31.6056 50.7825 31.6456 51.1209 31.6072ZM54.8611 32.2526L54.2549 26.9031L55.4121 26.7719L55.5602 27.444C55.6809 27.2384 55.8298 27.0707 56.007 26.941C56.1842 26.8112 56.375 26.7108 56.5794 26.6397C56.7831 26.5617 56.9763 26.5124 57.159 26.4917C57.6665 26.4342 58.0784 26.5006 58.3947 26.691C58.7178 26.8805 58.9613 27.1545 59.1253 27.5129C59.2893 27.8713 59.3974 28.2806 59.4495 28.7408L59.7843 31.6947L58.5459 31.835L58.2341 29.0841C58.2119 28.8879 58.1769 28.6999 58.1291 28.5203C58.0806 28.3339 58.0073 28.1708 57.9092 28.0311C57.8179 27.8907 57.6962 27.7845 57.5441 27.7127C57.392 27.6408 57.1975 27.6183 56.9607 27.6451C56.6697 27.6781 56.4315 27.7839 56.2461 27.9626C56.0608 28.1412 55.9323 28.3683 55.8607 28.6437C55.7883 28.9124 55.7709 29.2125 55.8085 29.5441L56.0995 32.1122L54.8611 32.2526ZM66.1359 31.0468C65.581 31.1097 65.1014 31.0509 64.6971 30.8706C64.2921 30.6834 63.9681 30.3946 63.725 30.004C63.482 29.6135 63.3298 29.1475 63.2685 28.6061C63.2071 28.0647 63.2545 27.5761 63.4108 27.1403C63.5662 26.6978 63.8268 26.3358 64.1925 26.0545C64.5581 25.7731 65.0218 25.6006 65.5835 25.537C65.9963 25.4902 66.3698 25.5198 66.7039 25.6259C67.0449 25.7312 67.3292 25.9115 67.5569 26.1667C67.7906 26.4144 67.9575 26.7382 68.0576 27.1381L66.8395 27.2761C66.7292 27.0281 66.5727 26.8574 66.3702 26.7638C66.1737 26.6627 65.9469 26.6267 65.6897 26.6559C65.3446 26.695 65.0801 26.8106 64.8963 27.0028C64.7184 27.1875 64.5997 27.41 64.5401 27.6703C64.4805 27.9307 64.466 28.1962 64.4967 28.4669C64.5289 28.7511 64.6066 29.0131 64.7297 29.2527C64.852 29.4856 65.0198 29.6654 65.2329 29.792C65.4528 29.9179 65.7218 29.9628 66.0398 29.9268C66.297 29.8976 66.5206 29.814 66.7105 29.676C66.9073 29.5371 67.0215 29.3357 67.0533 29.0716L68.312 28.929C68.3114 29.3472 68.2118 29.708 68.0132 30.0116C67.8205 30.3076 67.5593 30.5428 67.2295 30.7172C66.8997 30.8917 66.5352 31.0015 66.1359 31.0468ZM71.8975 30.3938C71.3493 30.456 70.863 30.398 70.4384 30.2199C70.0206 30.0411 69.68 29.7575 69.4167 29.3693C69.1601 28.9802 69.0004 28.5083 68.9375 27.9534C68.8739 27.3917 68.9273 26.8956 69.0978 26.465C69.2676 26.0276 69.5357 25.6717 69.9021 25.3971C70.2685 25.1225 70.7258 24.9542 71.274 24.8921C71.8154 24.8307 72.2953 24.8929 72.7139 25.0785C73.1325 25.2641 73.4704 25.5548 73.7278 25.9506C73.9843 26.3396 74.1444 26.8149 74.2081 27.3766C74.2702 27.9248 74.2198 28.4171 74.0568 28.8537C73.8998 29.2827 73.6377 29.6312 73.2705 29.899C72.9033 30.1668 72.4456 30.3317 71.8975 30.3938ZM71.7596 29.2683C72.098 29.2299 72.3603 29.1248 72.5464 28.9529C72.7393 28.7802 72.8693 28.5667 72.9365 28.3124C73.0036 28.058 73.0211 27.7887 72.9888 27.5045C72.9566 27.2203 72.879 26.9584 72.7559 26.7187C72.6327 26.4791 72.4578 26.2967 72.2312 26.1716C72.0105 26.0389 71.731 25.9918 71.3927 26.0301C71.0543 26.0685 70.789 26.1774 70.5969 26.3568C70.404 26.5294 70.2744 26.7463 70.208 27.0074C70.1409 27.2618 70.1238 27.5345 70.1568 27.8255C70.189 28.1097 70.2666 28.3716 70.3897 28.6113C70.5189 28.8434 70.6934 29.0224 70.9133 29.1483C71.1391 29.2666 71.4213 29.3066 71.7596 29.2683ZM75.4999 29.9136L74.8936 24.5641L76.0305 24.4353L76.1808 25.0351C76.2954 24.8371 76.4252 24.6819 76.5701 24.5695C76.721 24.4496 76.8787 24.3597 77.0433 24.2999C77.2147 24.2394 77.3781 24.2003 77.5338 24.1827C77.8722 24.1443 78.1674 24.1794 78.4196 24.2879C78.6786 24.3956 78.8911 24.5772 79.0571 24.8325C79.171 24.6277 79.306 24.4582 79.4621 24.324C79.6175 24.183 79.7869 24.0747 79.9702 23.9991C80.1528 23.9167 80.349 23.8636 80.5587 23.8399C80.9715 23.7931 81.3131 23.8435 81.5834 23.991C81.853 24.1318 82.0626 24.348 82.2121 24.6395C82.3609 24.9242 82.4572 25.2594 82.5009 25.6452L82.8897 29.0761L81.6513 29.2165L81.3073 26.1814C81.292 26.046 81.2691 25.9047 81.2387 25.7573C81.2083 25.61 81.1554 25.4755 81.0799 25.3538C81.0112 25.2314 80.9181 25.1357 80.8006 25.0668C80.6831 24.9978 80.5263 24.9745 80.33 24.9967C80.1338 25.0189 79.9763 25.0813 79.8577 25.1839C79.7451 25.2789 79.6563 25.4021 79.5912 25.5534C79.5321 25.6972 79.4952 25.8556 79.4805 26.0286C79.4719 26.1941 79.4767 26.358 79.4951 26.5204L79.8241 29.4236L78.5857 29.5639L78.2406 26.5186C78.2261 26.3901 78.2006 26.2559 78.1642 26.1161C78.1337 25.9687 78.0842 25.8338 78.0155 25.7114C77.9528 25.5814 77.8593 25.4823 77.735 25.4142C77.6176 25.3452 77.4607 25.3219 77.2645 25.3441C76.9802 25.3763 76.7725 25.4787 76.6413 25.6512C76.5168 25.823 76.4401 26.0236 76.4113 26.253C76.3892 26.4817 76.3897 26.6976 76.4127 26.9006L76.7383 29.7733L75.4999 29.9136ZM84.2581 30.9156L83.4287 23.5969L84.5859 23.4657L84.7284 24.1795C84.9068 23.8783 85.1342 23.6469 85.4106 23.4853C85.687 23.3238 86.0012 23.2231 86.3531 23.1832C86.8809 23.1234 87.3312 23.1957 87.7039 23.4002C88.0767 23.6047 88.371 23.9038 88.587 24.2974C88.8029 24.6911 88.9405 25.1484 88.9995 25.6695C89.0586 26.1906 89.0239 26.6708 88.8955 27.1104C88.7663 27.5431 88.5362 27.9016 88.2052 28.1859C87.8801 28.4626 87.4503 28.6313 86.9157 28.6919C86.6653 28.7202 86.4321 28.7192 86.2162 28.6889C86.007 28.6577 85.8155 28.6006 85.6416 28.5175C85.4744 28.4337 85.3294 28.3336 85.2066 28.2173L85.4965 30.7753L84.2581 30.9156ZM86.5963 27.5971C86.9414 27.558 87.2036 27.4529 87.383 27.2818C87.5616 27.1039 87.6811 26.8881 87.7415 26.6345C87.8011 26.3742 87.8152 26.1053 87.7837 25.8278C87.7507 25.5368 87.6727 25.2715 87.5496 25.0319C87.4332 24.7914 87.2647 24.6049 87.0441 24.4723C86.8234 24.3396 86.5439 24.2925 86.2055 24.3308C85.8942 24.3661 85.6391 24.4739 85.4402 24.654C85.2473 24.8267 85.1109 25.0444 85.031 25.307C84.9511 25.5697 84.9276 25.8465 84.9606 26.1375C84.9944 26.4352 85.0762 26.7036 85.2061 26.9424C85.3352 27.1746 85.5165 27.3528 85.7499 27.4771C85.9825 27.5947 86.2647 27.6347 86.5963 27.5971ZM92.0133 28.1141C91.7629 28.1425 91.5222 28.1355 91.2912 28.0932C91.0602 28.0508 90.8495 27.9753 90.659 27.8667C90.4677 27.7513 90.3068 27.6016 90.1763 27.4176C90.0517 27.2261 89.9742 26.995 89.9435 26.7243C89.9044 26.3792 89.9402 26.0906 90.051 25.8588C90.161 25.6201 90.3246 25.4302 90.5416 25.2891C90.7655 25.1472 91.0239 25.0391 91.3171 24.9647C91.6095 24.8836 91.9181 24.8247 92.2429 24.7878L93.2885 24.6694C93.2616 24.4325 93.2014 24.2337 93.1078 24.073C93.0134 23.9054 92.8792 23.7801 92.7053 23.697C92.5382 23.6132 92.3294 23.5854 92.079 23.6138C91.9166 23.6322 91.7666 23.6698 91.6291 23.7265C91.4976 23.7756 91.3857 23.8466 91.2934 23.9393C91.2071 24.0245 91.1506 24.1303 91.1238 24.2567L89.8549 24.4005C89.8708 24.1177 89.9387 23.8701 90.0586 23.6577C90.1845 23.4378 90.345 23.2517 90.5402 23.0993C90.7422 22.9462 90.9683 22.8246 91.2186 22.7346C91.4681 22.6378 91.7248 22.5744 91.9887 22.5445C92.7669 22.4563 93.3573 22.6156 93.7598 23.0224C94.1691 23.4283 94.4194 24.034 94.5106 24.8393L94.8373 27.7221L93.741 27.8464L93.6324 27.1596C93.5028 27.4073 93.3359 27.5976 93.1316 27.7304C92.9273 27.8632 92.7252 27.9546 92.5252 28.0047C92.3261 28.0616 92.1554 28.098 92.0133 28.1141ZM92.143 27.0816C92.4137 27.0509 92.6482 26.9729 92.8465 26.8477C93.0448 26.7224 93.1945 26.5615 93.2956 26.365C93.4034 26.1677 93.4439 25.9506 93.4171 25.7137L93.3975 25.5412L92.4231 25.6516C92.2606 25.67 92.099 25.6952 91.9381 25.7271C91.7832 25.7515 91.6442 25.7947 91.521 25.8567C91.397 25.9118 91.2994 25.988 91.2282 26.0852C91.1637 26.1816 91.1407 26.311 91.1591 26.4734C91.1775 26.6358 91.233 26.7632 91.3257 26.8555C91.4252 26.947 91.5457 27.0122 91.6872 27.051C91.8354 27.089 91.9874 27.0992 92.143 27.0816ZM98.3827 27.3923C97.8278 27.4552 97.3482 27.3964 96.9439 27.2161C96.5389 27.0289 96.2149 26.7401 95.9718 26.3495C95.7288 25.959 95.5766 25.493 95.5152 24.9516C95.4539 24.4102 95.5013 23.9216 95.6576 23.4858C95.813 23.0433 96.0736 22.6813 96.4393 22.4C96.8049 22.1186 97.2686 21.9461 97.8303 21.8825C98.2431 21.8357 98.6165 21.8653 98.9507 21.9714C99.2916 22.0767 99.576 22.257 99.8036 22.5122C100.037 22.7599 100.204 23.0837 100.304 23.4836L99.0863 23.6216C98.976 23.3737 98.8195 23.2029 98.617 23.1093C98.4205 23.0082 98.1937 22.9722 97.9365 23.0014C97.5914 23.0405 97.3269 23.1561 97.143 23.3483C96.9652 23.533 96.8465 23.7555 96.7869 24.0159C96.7273 24.2762 96.7128 24.5417 96.7435 24.8124C96.7757 25.0966 96.8534 25.3586 96.9765 25.5982C97.0988 25.8311 97.2666 26.0109 97.4797 26.1375C97.6996 26.2634 97.9686 26.3083 98.2866 26.2723C98.5438 26.2431 98.7673 26.1595 98.9573 26.0215C99.1541 25.8826 99.2683 25.6812 99.3001 25.4172L100.559 25.2745C100.558 25.6927 100.459 26.0535 100.26 26.3571C100.067 26.6531 99.8061 26.8883 99.4763 27.0627C99.1465 27.2372 98.782 27.3471 98.3827 27.3923ZM103.828 26.7649C103.24 26.8316 102.792 26.7179 102.484 26.4237C102.177 26.1296 101.99 25.6949 101.925 25.1197L101.644 22.6429L100.822 22.736L100.698 21.6398L101.52 21.5466L101.35 20.0442L102.588 19.9039L102.758 21.4062L104.383 21.2222L104.507 22.3185L102.883 22.5025L103.137 24.7459C103.157 24.9218 103.195 25.0785 103.252 25.216C103.309 25.3536 103.396 25.4568 103.513 25.5257C103.631 25.5946 103.785 25.6218 103.975 25.6071C104.137 25.5887 104.273 25.5459 104.382 25.4787C104.491 25.4115 104.579 25.3399 104.645 25.2638L105.168 26.1606C105.052 26.2835 104.917 26.3879 104.762 26.474C104.614 26.5593 104.46 26.6247 104.301 26.6702C104.142 26.7157 103.984 26.7472 103.828 26.7649ZM111.143 25.9564C110.825 25.9925 110.507 25.9909 110.187 25.9517C109.867 25.9126 109.57 25.8298 109.295 25.7032C109.019 25.57 108.779 25.3847 108.574 25.1475C108.376 24.9095 108.232 24.6105 108.143 24.2505L109.402 24.1078C109.487 24.3107 109.614 24.4642 109.783 24.5684C109.959 24.6718 110.156 24.7421 110.373 24.7792C110.589 24.8096 110.805 24.8125 111.021 24.7879C111.177 24.7703 111.331 24.7391 111.484 24.6944C111.636 24.6497 111.776 24.5824 111.903 24.4927C112.03 24.4029 112.126 24.2857 112.192 24.1412C112.258 23.9966 112.279 23.8161 112.254 23.5995C112.232 23.4033 112.176 23.2451 112.087 23.1249C112.005 23.004 111.896 22.917 111.759 22.8639C111.629 22.8033 111.481 22.7687 111.316 22.76C111.156 22.7438 110.989 22.7457 110.813 22.7656L110.021 22.8553L109.898 21.7692L110.416 21.7105C110.612 21.6883 110.789 21.6477 110.947 21.5886C111.104 21.5296 111.24 21.456 111.353 21.3678C111.466 21.2728 111.546 21.1609 111.593 21.0322C111.647 20.9027 111.664 20.7534 111.645 20.5842C111.617 20.3406 111.542 20.1572 111.418 20.0341C111.301 19.9103 111.152 19.8313 110.97 19.7971C110.787 19.7561 110.591 19.7475 110.381 19.7713C110.191 19.7928 110.012 19.8439 109.843 19.9248C109.673 19.9989 109.531 20.1007 109.415 20.2303C109.299 20.3599 109.235 20.5146 109.221 20.6944L107.982 20.8348C107.985 20.4918 108.05 20.1897 108.178 19.9284C108.306 19.6672 108.476 19.4457 108.689 19.264C108.907 19.0747 109.158 18.9264 109.44 18.8189C109.723 18.7115 110.02 18.6402 110.331 18.6049C110.635 18.5704 110.93 18.5713 111.215 18.6075C111.507 18.6429 111.77 18.7262 112.005 18.8573C112.238 18.9817 112.433 19.1584 112.589 19.3874C112.745 19.6165 112.843 19.9069 112.883 20.2588C112.908 20.4821 112.895 20.6961 112.843 20.9008C112.79 21.1055 112.702 21.2904 112.577 21.4553C112.458 21.6196 112.306 21.7602 112.121 21.8771C112.4 21.9209 112.64 22.017 112.842 22.1655C113.043 22.3072 113.201 22.4881 113.315 22.7082C113.436 22.9276 113.512 23.176 113.543 23.4534C113.592 23.8865 113.552 24.2578 113.423 24.5672C113.299 24.869 113.115 25.1161 112.869 25.3085C112.631 25.5 112.359 25.6473 112.056 25.7502C111.752 25.8532 111.448 25.9219 111.143 25.9564ZM117.654 25.2186C117.133 25.2776 116.68 25.2365 116.293 25.0952C115.906 24.9471 115.582 24.7166 115.321 24.4035C115.059 24.0905 114.849 23.7201 114.691 23.2925C114.539 22.8642 114.435 22.3962 114.378 21.8887C114.319 21.3744 114.316 20.8881 114.366 20.43C114.424 19.9711 114.546 19.5632 114.732 19.2063C114.923 18.8418 115.191 18.5442 115.535 18.3133C115.878 18.0756 116.31 17.9273 116.831 17.8682C117.366 17.8076 117.828 17.8581 118.216 18.0197C118.611 18.1806 118.937 18.4213 119.192 18.7419C119.455 19.0617 119.658 19.4362 119.803 19.8653C119.954 20.2937 120.057 20.7481 120.112 21.2285C120.165 21.7023 120.166 22.1648 120.115 22.6162C120.07 23.0668 119.955 23.4773 119.771 23.8477C119.587 24.2182 119.32 24.526 118.971 24.7712C118.628 25.0089 118.189 25.158 117.654 25.2186ZM117.523 24.0614C117.868 24.0223 118.136 23.9096 118.328 23.7234C118.526 23.5365 118.665 23.3117 118.745 23.049C118.824 22.7796 118.864 22.4974 118.865 22.2026C118.873 21.907 118.862 21.6307 118.833 21.3735C118.803 21.1163 118.756 20.8476 118.69 20.5672C118.623 20.28 118.521 20.014 118.383 19.7691C118.246 19.5242 118.063 19.3325 117.835 19.1938C117.607 19.0552 117.317 19.0058 116.965 19.0457C116.613 19.0856 116.338 19.199 116.14 19.386C115.948 19.5721 115.813 19.7999 115.734 20.0694C115.654 20.332 115.61 20.6112 115.603 20.9067C115.602 21.2016 115.616 21.4776 115.645 21.7347C115.674 21.9919 115.722 22.264 115.789 22.5512C115.855 22.8316 115.954 23.0946 116.084 23.3402C116.222 23.5851 116.404 23.7769 116.633 23.9155C116.868 24.0534 117.164 24.102 117.523 24.0614ZM124.375 24.4569C123.854 24.5159 123.401 24.4748 123.014 24.3335C122.627 24.1854 122.303 23.9549 122.042 23.6418C121.78 23.3288 121.57 22.9584 121.412 22.5309C121.26 22.1025 121.156 21.6345 121.099 21.127C121.04 20.6127 121.037 20.1265 121.087 19.6683C121.145 19.2094 121.267 18.8015 121.453 18.4446C121.644 18.0802 121.912 17.7825 122.256 17.5516C122.599 17.3139 123.031 17.1656 123.552 17.1065C124.087 17.0459 124.549 17.0964 124.937 17.258C125.332 17.4189 125.658 17.6596 125.913 17.9802C126.176 18.3 126.379 18.6745 126.524 19.1036C126.675 19.532 126.778 19.9864 126.833 20.4669C126.886 20.9406 126.887 21.4031 126.836 21.8545C126.791 22.3051 126.676 22.7156 126.492 23.0861C126.308 23.4565 126.041 23.7643 125.692 24.0095C125.349 24.2472 124.91 24.3963 124.375 24.4569ZM124.244 23.2997C124.589 23.2606 124.857 23.1479 125.049 22.9617C125.247 22.7748 125.386 22.55 125.466 22.2873C125.545 22.0179 125.585 21.7358 125.586 21.4409C125.593 21.1453 125.583 20.869 125.554 20.6118C125.524 20.3547 125.477 20.0859 125.411 19.8055C125.344 19.5183 125.242 19.2523 125.104 19.0074C124.967 18.7626 124.784 18.5708 124.556 18.4322C124.328 18.2935 124.038 18.2441 123.686 18.284C123.334 18.3239 123.059 18.4373 122.861 18.6243C122.669 18.8105 122.534 19.0383 122.455 19.3077C122.375 19.5703 122.331 19.8495 122.324 20.1451C122.323 20.4399 122.337 20.7159 122.366 20.973C122.395 21.2302 122.443 21.5023 122.51 21.7895C122.576 22.0699 122.675 22.3329 122.805 22.5786C122.943 22.8234 123.125 23.0152 123.354 23.1539C123.589 23.2917 123.885 23.3403 124.244 23.2997ZM132.865 23.4845C132.614 23.5129 132.373 23.5059 132.142 23.4635C131.911 23.4212 131.701 23.3457 131.51 23.237C131.319 23.1216 131.158 22.9719 131.027 22.788C130.903 22.5964 130.825 22.3653 130.795 22.0947C130.756 21.7495 130.791 21.461 130.902 21.2291C131.012 20.9905 131.176 20.8006 131.393 20.6595C131.617 20.5176 131.875 20.4095 132.168 20.3351C132.461 20.254 132.769 20.195 133.094 20.1582L134.14 20.0397C134.113 19.8029 134.053 19.6041 133.959 19.4433C133.865 19.2758 133.73 19.1505 133.557 19.0674C133.389 18.9835 133.181 18.9558 132.93 18.9842C132.768 19.0026 132.618 19.0401 132.48 19.0968C132.349 19.146 132.237 19.217 132.145 19.3097C132.058 19.3949 132.002 19.5006 131.975 19.6271L130.706 19.7709C130.722 19.488 130.79 19.2404 130.91 19.0281C131.036 18.8082 131.196 18.6221 131.391 18.4697C131.593 18.3166 131.82 18.195 132.07 18.105C132.319 18.0082 132.576 17.9448 132.84 17.9149C133.618 17.8267 134.209 17.986 134.611 18.3927C135.02 18.7987 135.271 19.4044 135.362 20.2097L135.689 23.0925L134.592 23.2167L134.484 22.5299C134.354 22.7777 134.187 22.9679 133.983 23.1008C133.779 23.2336 133.576 23.325 133.376 23.3751C133.177 23.4319 133.007 23.4684 132.865 23.4845ZM132.994 22.452C133.265 22.4213 133.499 22.3433 133.698 22.218C133.896 22.0928 134.046 21.9318 134.147 21.7353C134.255 21.538 134.295 21.321 134.268 21.0841L134.249 20.9116L133.274 21.022C133.112 21.0404 132.95 21.0656 132.789 21.0975C132.634 21.1219 132.495 21.1651 132.372 21.227C132.248 21.2822 132.151 21.3584 132.079 21.4556C132.015 21.552 131.992 21.6814 132.01 21.8438C132.029 22.0062 132.084 22.1336 132.177 22.2259C132.276 22.3174 132.397 22.3826 132.538 22.4214C132.687 22.4594 132.839 22.4696 132.994 22.452ZM139.234 22.7627C138.679 22.8256 138.199 22.7668 137.795 22.5865C137.39 22.3993 137.066 22.1105 136.823 21.7199C136.58 21.3293 136.428 20.8634 136.366 20.322C136.305 19.7806 136.353 19.292 136.509 18.8562C136.664 18.4136 136.925 18.0517 137.29 17.7703C137.656 17.489 138.12 17.3165 138.681 17.2529C139.094 17.2061 139.468 17.2357 139.802 17.3418C140.143 17.4471 140.427 17.6273 140.655 17.8826C140.889 18.1302 141.055 18.454 141.156 18.8539L139.938 18.992C139.827 18.744 139.671 18.5733 139.468 18.4797C139.272 18.3786 139.045 18.3426 138.788 18.3718C138.443 18.4109 138.178 18.5265 137.994 18.7187C137.816 18.9034 137.698 19.1259 137.638 19.3862C137.578 19.6466 137.564 19.9121 137.595 20.1828C137.627 20.467 137.705 20.729 137.828 20.9686C137.95 21.2015 138.118 21.3813 138.331 21.5079C138.551 21.6338 138.82 21.6787 139.138 21.6426C139.395 21.6135 139.619 21.5299 139.809 21.3918C140.005 21.253 140.12 21.0516 140.151 20.7875L141.41 20.6449C141.409 21.0631 141.31 21.4239 141.111 21.7274C140.919 22.0234 140.657 22.2587 140.328 22.4331C139.998 22.6076 139.633 22.7174 139.234 22.7627ZM145.003 22.1088C144.448 22.1717 143.969 22.113 143.564 21.9326C143.159 21.7455 142.835 21.4566 142.592 21.0661C142.349 20.6755 142.197 20.2095 142.136 19.6682C142.074 19.1268 142.122 18.6382 142.278 18.2024C142.434 17.7598 142.694 17.3979 143.06 17.1165C143.425 16.8352 143.889 16.6627 144.451 16.599C144.864 16.5523 145.237 16.5819 145.571 16.688C145.912 16.7933 146.197 16.9735 146.424 17.2287C146.658 17.4764 146.825 17.8002 146.925 18.2001L145.707 18.3381C145.597 18.0902 145.44 17.9194 145.238 17.8259C145.041 17.7248 144.814 17.6888 144.557 17.7179C144.212 17.757 143.947 17.8727 143.764 18.0649C143.586 18.2495 143.467 18.472 143.407 18.7324C143.348 18.9928 143.333 19.2583 143.364 19.529C143.396 19.8132 143.474 20.0751 143.597 20.3148C143.719 20.5477 143.887 20.7274 144.1 20.8541C144.32 20.9799 144.589 21.0248 144.907 20.9888C145.164 20.9597 145.388 20.8761 145.578 20.738C145.775 20.5992 145.889 20.3978 145.921 20.1337L147.179 19.9911C147.179 20.4092 147.079 20.7701 146.88 21.0736C146.688 21.3696 146.427 21.6048 146.097 21.7793C145.767 21.9537 145.403 22.0636 145.003 22.1088ZM150.714 21.4616C150.159 21.5245 149.672 21.4632 149.254 21.2776C148.842 21.0912 148.512 20.8065 148.263 20.4235C148.02 20.0329 147.867 19.5669 147.806 19.0256C147.745 18.4842 147.792 17.9956 147.948 17.5598C148.111 17.1164 148.371 16.7545 148.73 16.4739C149.096 16.1926 149.553 16.0209 150.101 15.9587C150.507 15.9127 150.87 15.9469 151.192 16.0613C151.512 16.1689 151.788 16.3364 152.02 16.5637C152.258 16.7903 152.446 17.0569 152.583 17.3635C152.721 17.67 152.806 17.9997 152.839 18.3523C152.842 18.4343 152.844 18.5163 152.847 18.5982C152.848 18.6734 152.847 18.7558 152.844 18.8453L149.088 19.271C149.135 19.5055 149.221 19.7152 149.344 19.8999C149.475 20.0839 149.641 20.2227 149.844 20.3162C150.053 20.409 150.303 20.4389 150.594 20.406C150.764 20.3868 150.924 20.3481 151.075 20.2898C151.225 20.2248 151.353 20.1418 151.458 20.0408C151.57 19.939 151.638 19.8182 151.663 19.6782L152.902 19.5379C152.858 19.9336 152.731 20.2667 152.522 20.5371C152.312 20.8076 152.048 21.0191 151.73 21.1717C151.418 21.3236 151.079 21.4202 150.714 21.4616ZM149.004 18.3449L151.582 18.0527C151.557 17.8294 151.483 17.6321 151.361 17.4609C151.239 17.2897 151.077 17.1641 150.876 17.0841C150.681 16.9965 150.452 16.9677 150.188 16.9976C149.903 17.0298 149.673 17.1141 149.497 17.2507C149.32 17.3872 149.192 17.5526 149.111 17.7468C149.03 17.941 148.994 18.1404 149.004 18.3449ZM154.139 21.0015L153.533 15.652L154.69 15.5209L154.838 16.1929C154.959 15.9873 155.108 15.8197 155.285 15.6899C155.462 15.5602 155.653 15.4597 155.858 15.3886C156.061 15.3107 156.254 15.2614 156.437 15.2406C156.945 15.1831 157.357 15.2495 157.673 15.4399C157.996 15.6295 158.239 15.9034 158.403 16.2618C158.567 16.6202 158.675 17.0295 158.728 17.4897L159.062 20.4436L157.824 20.5839L157.512 17.833C157.49 17.6368 157.455 17.4488 157.407 17.2692C157.359 17.0828 157.285 16.9197 157.187 16.7801C157.096 16.6396 156.974 16.5335 156.822 16.4616C156.67 16.3897 156.476 16.3672 156.239 16.3941C155.948 16.427 155.71 16.5328 155.524 16.7115C155.339 16.8902 155.21 17.1172 155.139 17.3926C155.066 17.6613 155.049 17.9614 155.087 18.293L155.378 20.8612L154.139 21.0015ZM162.56 20.0471C162.127 20.0962 161.762 20.0793 161.465 19.9965C161.174 19.9129 160.944 19.7506 160.772 19.5095C160.608 19.2677 160.501 18.9303 160.452 18.4972L160.17 16.0102L159.348 16.1034L159.224 15.0071L160.046 14.9139L159.877 13.4217L161.115 13.2814L161.284 14.7736L162.533 14.6321L162.657 15.7284L161.408 15.8699L161.672 18.1944C161.703 18.4651 161.773 18.6661 161.884 18.7975C161.995 18.9289 162.216 18.9758 162.548 18.9382L162.974 18.8899L163.098 19.9862L162.56 20.0471Z" fill="#262626"/>
</g>
<path d="M15.196 18.0366C10.4663 18.5726 8.10145 18.8406 6.32358 19.8247C3.9531 21.1368 2.20094 23.3369 1.45256 25.9409C0.891286 27.8939 1.15929 30.2587 1.6953 34.9884" stroke="#262626" stroke-width="1.27698" stroke-linecap="round" stroke-dasharray="2.55 2.55"/>
<path d="M164.596 32.219L171.702 31.4138C174.544 31.0916 175.965 30.9306 176.988 30.2543C177.888 29.6595 178.577 28.7951 178.955 27.7849C179.385 26.6365 179.224 25.2153 178.902 22.3728L178.097 15.2672" stroke="#262626" stroke-width="1.27698" stroke-linecap="round" stroke-dasharray="2.55 2.55"/>
<rect x="162.546" y="11.2975" width="4.46942" height="10.8543" rx="0.957734" transform="rotate(-6.46568 162.546 11.2975)" fill="url(#paint0_linear_2872_477)" fill-opacity="0.12" stroke="url(#paint1_linear_2872_477)" stroke-width="0.638489"/>
<defs>
<linearGradient id="paint0_linear_2872_477" x1="167.301" y1="16.7626" x2="162.193" y2="16.7626" gradientUnits="userSpaceOnUse">
<stop stop-color="#262626" stop-opacity="0"/>
<stop offset="1" stop-color="#262626"/>
</linearGradient>
<linearGradient id="paint1_linear_2872_477" x1="167.301" y1="16.7626" x2="162.193" y2="16.7626" gradientUnits="userSpaceOnUse">
<stop stop-color="#262626" stop-opacity="0"/>
<stop offset="1" stop-color="#262626"/>
</linearGradient>
<clipPath id="clip0_2872_477">
<path d="M1.72558 35.2551C1.18957 30.5254 0.921559 28.1606 1.48284 26.2076C2.23121 23.6036 3.98337 21.4035 6.35386 20.0914C8.13172 19.1073 10.4966 18.8393 15.2263 18.3033L160.491 1.84064C166.176 1.19636 169.018 0.874224 171.315 1.73452C173.335 2.49126 175.064 3.86815 176.254 5.66787C177.606 7.71387 177.928 10.5564 178.573 16.2414L179.263 22.3319C179.585 25.1744 179.746 26.5956 179.316 27.744C178.938 28.7542 178.249 29.6186 177.349 30.2134C176.326 30.8897 174.905 31.0507 172.062 31.3729L18.6774 48.7558C13.9477 49.2919 11.5829 49.5599 9.62988 48.9986C7.02587 48.2502 4.82582 46.498 3.51369 44.1276C2.5296 42.3497 2.26159 39.9848 1.72558 35.2551Z" fill="white"/>
</clipPath>
<clipPath id="clip1_2872_477">
<rect width="12.7698" height="12.7698" fill="white" transform="translate(11.1572 27.7605) rotate(-6.46568)"/>
</clipPath>
</defs>
</svg>
