<?xml version="1.0" encoding="UTF-8"?> <svg xmlns="http://www.w3.org/2000/svg" width="141" height="140" viewBox="0 0 141 140" fill="none"> <path d="M77.782 97.4849V41.2436C77.782 39.8215 78.4794 39.1242 79.8741 39.1515L96.3238 39.4387C96.65 39.4439 96.971 39.5211 97.2639 39.6648C97.5568 39.8084 97.8143 40.015 98.0181 40.2697C98.2219 40.5245 98.3669 40.8211 98.4427 41.1383C98.5186 41.4556 98.5235 41.7857 98.457 42.1051C97.5545 46.2073 98.539 49.5438 101.411 52.1145C102.014 52.6531 102.743 53.027 103.527 53.1996C104.31 53.3722 105.122 53.3375 105.882 53.099C113.389 50.7607 113.184 35.4595 110.722 30.2087C110.121 28.9197 109.168 27.8294 107.976 27.0663C106.785 26.3031 105.403 25.899 103.995 25.9014H37.1705C35.6214 25.9018 34.1188 26.4305 32.9106 27.4C31.7025 28.3695 30.8609 29.722 30.525 31.2342C29.2123 37.1688 29.2533 43.0759 30.6481 48.9558C30.9913 50.4243 31.8584 51.7171 33.0869 52.5919C34.3154 53.4666 35.8207 53.8632 37.3207 53.7071C38.8207 53.5511 40.2122 52.8532 41.2343 51.7443C42.2564 50.6355 42.8389 49.1918 42.8725 47.6841L43.0366 41.8179C43.064 40.0677 43.9528 39.1925 45.703 39.1925L61.7836 39.2746C62.4944 39.2853 63.1724 39.571 63.6713 40.0699C64.1702 40.5688 64.4499 41.2409 64.45 41.941V97.772C64.45 99.6317 63.5201 100.616 61.6605 100.726C56.984 100.972 49.395 99.618 45.8261 102.408C43.3375 104.377 42.9683 107.453 44.7185 111.637C44.9731 112.247 45.3995 112.769 45.9458 113.141C46.4921 113.512 47.1346 113.717 47.7951 113.73L92.3858 114.14C95.4761 114.167 97.3904 112.677 98.1288 109.668C99.1954 105.238 97.7323 102.613 93.7395 101.792C89.063 100.835 84.2908 100.028 79.4229 99.3719C78.329 99.2351 77.782 98.6061 77.782 97.4849Z" stroke="#FDAB88" stroke-width="8.20438"></path> <path d="M135.839 102.225C135.808 111.092 132.256 119.584 125.964 125.832C119.673 132.08 111.157 135.572 102.29 135.541L38.3785 135.318C29.5116 135.287 21.0203 131.735 14.7723 125.444C8.52441 119.152 5.03175 110.636 5.0627 101.769L5.28586 37.7748C5.31681 28.9078 8.86884 20.4164 15.1605 14.1684C21.4522 7.92044 29.9682 4.42775 38.8351 4.4587L102.747 4.68186C111.613 4.71281 120.105 8.26487 126.353 14.5566C132.601 20.8484 136.093 29.3644 136.062 38.2313L135.839 102.225ZM77.7823 97.4848V41.2436C77.7823 39.8215 78.4797 39.1241 79.8744 39.1515L96.3241 39.4386C96.6503 39.4439 96.9713 39.5211 97.2642 39.6647C97.5571 39.8084 97.8146 40.015 98.0184 40.2697C98.2222 40.5244 98.3672 40.821 98.443 41.1383C98.5189 41.4556 98.5238 41.7857 98.4573 42.1051C97.5548 46.2073 98.5393 49.5437 101.411 52.1144C102.014 52.6531 102.743 53.027 103.527 53.1996C104.311 53.3722 105.122 53.3375 105.882 53.099C113.389 50.7607 113.184 35.4595 110.723 30.2087C110.121 28.9197 109.169 27.8294 107.977 27.0662C106.785 26.3031 105.403 25.8989 103.995 25.9013H37.1708C35.6217 25.9018 34.1191 26.4304 32.9109 27.4C31.7027 28.3695 30.8612 29.722 30.5253 31.2342C29.2126 37.1687 29.2536 43.0759 30.6484 48.9557C30.9916 50.4243 31.8587 51.7171 33.0872 52.5919C34.3157 53.4666 35.821 53.8631 37.321 53.7071C38.821 53.5511 40.2125 52.8532 41.2346 51.7443C42.2567 50.6354 42.8392 49.1918 42.8728 47.6841L43.0369 41.8179C43.0643 40.0676 43.9531 39.1925 45.7033 39.1925L61.7839 39.2745C62.4947 39.2853 63.1727 39.571 63.6716 40.0699C64.1705 40.5687 64.4502 41.2408 64.4503 41.941V97.772C64.4503 99.6317 63.5204 100.616 61.6608 100.726C56.9843 100.972 49.3953 99.618 45.8264 102.407C43.3378 104.377 42.9686 107.453 44.7188 111.637C44.9734 112.247 45.3998 112.769 45.9461 113.141C46.4924 113.512 47.1349 113.717 47.7954 113.73L92.3861 114.14C95.4764 114.167 97.3907 112.677 98.1291 109.668C99.1957 105.238 97.7326 102.613 93.7398 101.792C89.0633 100.835 84.2911 100.028 79.4232 99.3719C78.3293 99.2351 77.7823 98.6061 77.7823 97.4848Z" fill="#FA5710"></path> <path d="M79.4229 99.3714C84.2908 100.028 89.063 100.835 93.7395 101.792C97.7323 102.612 99.1954 105.238 98.1288 109.668C97.3904 112.676 95.4761 114.167 92.3858 114.139L47.7951 113.729C47.1346 113.716 46.4921 113.512 45.9458 113.14C45.3995 112.769 44.9731 112.247 44.7185 111.637C42.9683 107.453 43.3375 104.376 45.8261 102.407C49.395 99.6175 56.984 100.971 61.6605 100.725C63.5201 100.616 64.45 99.6312 64.45 97.7715V41.9405C64.4499 41.2404 64.1702 40.5683 63.6713 40.0694C63.1724 39.5705 62.4944 39.2848 61.7836 39.2741L45.703 39.192C43.9528 39.192 43.064 40.0672 43.0366 41.8175L42.8725 47.6836C42.8389 49.1913 42.2564 50.635 41.2343 51.7438C40.2122 52.8527 38.8207 53.5506 37.3207 53.7066C35.8207 53.8627 34.3154 53.4661 33.0869 52.5914C31.8584 51.7167 30.9913 50.4238 30.6481 48.9553C29.2533 43.0755 29.2123 37.1683 30.525 31.2338C30.8609 29.7215 31.7025 28.369 32.9106 27.3995C34.1188 26.43 35.6214 25.9014 37.1705 25.9009H103.995C105.403 25.8985 106.785 26.3027 107.976 27.0658C109.168 27.8289 110.121 28.9192 110.722 30.2082C113.184 35.459 113.389 50.7603 105.882 53.0985C105.122 53.337 104.31 53.3717 103.527 53.1991C102.743 53.0265 102.014 52.6526 101.411 52.114C98.539 49.5433 97.5545 46.2068 98.457 42.1046C98.5235 41.7852 98.5186 41.4551 98.4427 41.1379C98.3669 40.8206 98.2219 40.524 98.0181 40.2693C97.8143 40.0145 97.5568 39.8079 97.2639 39.6643C96.971 39.5206 96.65 39.4434 96.3238 39.4382L79.8741 39.151C78.4794 39.1237 77.782 39.821 77.782 41.2431V97.4844C77.782 98.6057 78.329 99.2347 79.4229 99.3714Z" fill="white"></path> </svg> 