<svg width="140" height="140" viewBox="0 0 140 140" fill="none" xmlns="http://www.w3.org/2000/svg">
<path d="M4.5 66.0045C4.5 44.4681 4.5 33.713 8.692 25.4862C12.3731 18.255 18.255 12.3731 25.4862 8.692C33.713 4.5 44.4681 4.5 66.0045 4.5H74.0086C95.5319 4.5 106.287 4.5 114.514 8.692C121.745 12.3731 127.627 18.255 131.308 25.4862C135.5 33.713 135.5 44.4681 135.5 66.0045V74.0086C135.5 95.5319 135.5 106.3 131.308 114.527C127.627 121.745 121.745 127.627 114.514 131.308C106.287 135.5 95.5319 135.5 73.9955 135.5H65.9914C44.4681 135.5 33.6999 135.5 25.4731 131.308C18.255 127.627 12.3731 121.745 8.692 114.514C4.5 106.287 4.5 95.5319 4.5 73.9955V66.0045Z" fill="#EA33F6"/>
<path d="M101.258 53.8737C96.9704 53.8737 93.0902 55.1671 89.7848 57.3947V37.1191H80.6351V74.4846C80.6351 85.8499 89.8806 94.9996 101.198 94.9996C112.515 94.9996 121.869 85.9097 121.869 74.3768C121.881 62.8558 112.731 53.8737 101.258 53.8737ZM59.7368 77.1313L51.3655 55.3228H44.9583L36.5391 77.1313L28.1079 55.3228H18.1318L32.8624 93.6703H39.2696L48.108 70.8318L56.9943 93.6703H63.4015L78.0842 55.3228H68.156L59.7368 77.1313ZM101.21 85.8618C95.0064 85.8618 89.7848 80.9037 89.7848 74.4366C89.7848 67.9696 94.695 63.0713 101.258 63.0713C107.821 63.0713 112.731 68.1851 112.731 74.4366C112.731 80.7001 107.509 85.8618 101.21 85.8618Z" fill="white"/>
</svg>
