<?xml version="1.0" encoding="UTF-8"?> <svg xmlns="http://www.w3.org/2000/svg" width="141" height="140" viewBox="0 0 141 140" fill="none"> <rect x="5.43848" y="4.5" width="131" height="131" rx="22" fill="#4353FF"></rect> <path d="M93.47 57.5118C93.47 57.5118 86.416 79.6668 85.8412 81.4956C85.6322 79.6145 80.4592 39.8506 80.4592 39.8506C68.4412 39.8506 62.0142 48.4199 58.6178 57.4596C58.6178 57.4596 50.0484 79.6668 49.3169 81.5479C49.2646 79.8235 48.0105 57.7208 48.0105 57.7208C47.279 46.6434 37.1421 39.9028 28.9385 39.9028L38.8664 100.15C51.4592 100.097 58.252 91.5803 61.8051 82.5406C61.8051 82.5406 69.3817 62.9461 69.6952 62.0578C69.7475 62.8938 75.1295 100.15 75.1295 100.15C87.7745 100.15 94.5673 92.155 98.225 83.4289L115.938 39.9028C103.45 39.9028 96.8664 48.42 93.47 57.5118Z" fill="white"></path> </svg> 